<svg xmlns="http://www.w3.org/2000/svg" viewBox="0 0 1200 660">
  <style>
    text { font-family: "Helvetica Neue", Helvetica, Arial, "PingFang SC", "Microsoft YaHei", sans-serif; }
  </style>
  <defs>
    <marker id="arr-blue" markerWidth="10" markerHeight="7" refX="9" refY="3.5" orient="auto">
      <polygon points="0 0, 10 3.5, 0 7" fill="#3b82f6"/>
    </marker>
    <marker id="arr-orange" markerWidth="10" markerHeight="7" refX="9" refY="3.5" orient="auto">
      <polygon points="0 0, 10 3.5, 0 7" fill="#f97316"/>
    </marker>
    <marker id="arr-green" markerWidth="10" markerHeight="7" refX="9" refY="3.5" orient="auto">
      <polygon points="0 0, 10 3.5, 0 7" fill="#22c55e"/>
    </marker>
    <marker id="arr-purple" markerWidth="10" markerHeight="7" refX="9" refY="3.5" orient="auto">
      <polygon points="0 0, 10 3.5, 0 7" fill="#a855f7"/>
    </marker>
    <marker id="arr-cyan" markerWidth="10" markerHeight="7" refX="9" refY="3.5" orient="auto">
      <polygon points="0 0, 10 3.5, 0 7" fill="#06b6d4"/>
    </marker>
    <marker id="arr-gray" markerWidth="10" markerHeight="7" refX="9" refY="3.5" orient="auto">
      <polygon points="0 0, 10 3.5, 0 7" fill="#6b7280"/>
    </marker>
    <filter id="shadow" x="-5%" y="-5%" width="110%" height="115%">
      <feDropShadow dx="1" dy="2" stdDeviation="3" flood-opacity="0.08"/>
    </filter>
  </defs>
  <rect width="1200" height="660" fill="#ffffff"/>
  <text x="600" y="28" text-anchor="middle" font-size="22" font-weight="700" fill="#1e293b">AI 核心概念关系架构图</text>
  <text x="600" y="48" text-anchor="middle" font-size="12" fill="#64748b">LLM 系统 · Agent 系统 · 跨系统集成</text>
  <!-- Training System -->
  <rect x="330" y="65" width="460" height="115" rx="10" fill="#fff7ed" fill-opacity="0.6" stroke="#fdba74" stroke-width="1" stroke-dasharray="6,4"/>
  <text x="348" y="83" font-size="11" font-weight="600" fill="#c2410c">训练系统</text>
  <rect x="348" y="93" width="125" height="48" rx="8" fill="#ffffff" stroke="#fb923c" stroke-width="1.5" filter="url(#shadow)"/>
  <text x="410" y="114" text-anchor="middle" font-size="13" font-weight="600" fill="#c2410c">Scaling Laws</text>
  <text x="410" y="130" text-anchor="middle" font-size="9" fill="#9a3412">算力 / 参数 / 数据</text>
  <rect x="500" y="93" width="125" height="48" rx="8" fill="#ffffff" stroke="#fb923c" stroke-width="1.5" filter="url(#shadow)"/>
  <text x="562" y="114" text-anchor="middle" font-size="13" font-weight="600" fill="#c2410c">Fine-tuning</text>
  <text x="562" y="130" text-anchor="middle" font-size="9" fill="#9a3412">SFT / RLHF / DPO</text>
  <rect x="652" y="93" width="118" height="48" rx="8" fill="#ffffff" stroke="#f97316" stroke-width="1.5" filter="url(#shadow)"/>
  <text x="711" y="114" text-anchor="middle" font-size="13" font-weight="600" fill="#c2410c">Alignment</text>
  <text x="711" y="130" text-anchor="middle" font-size="9" fill="#9a3412">RLHF / DPO</text>
  <line x1="473" y1="117" x2="500" y2="117" stroke="#f97316" stroke-width="1.5" marker-end="url(#arr-orange)"/>
  <line x1="625" y1="117" x2="652" y2="117" stroke="#f97316" stroke-width="1.5" marker-end="url(#arr-orange)"/>
  <!-- Core Pipeline -->
  <rect x="42" y="298" width="92" height="48" rx="8" fill="#eff6ff" stroke="#93c5fd" stroke-width="1.5"/>
  <text x="88" y="319" text-anchor="middle" font-size="13" font-weight="600" fill="#1e40af">Token</text>
  <text x="88" y="335" text-anchor="middle" font-size="9" fill="#3b82f6">输入原子</text>
  <rect x="168" y="298" width="112" height="48" rx="8" fill="#eff6ff" stroke="#93c5fd" stroke-width="1.5"/>
  <text x="224" y="319" text-anchor="middle" font-size="13" font-weight="600" fill="#1e40af">Embedding</text>
  <text x="224" y="335" text-anchor="middle" font-size="9" fill="#3b82f6">向量映射</text>
  <rect x="316" y="288" width="140" height="58" rx="10" fill="#f0fdf4" stroke="#86efac" stroke-width="2"/>
  <text x="386" y="314" text-anchor="middle" font-size="14" font-weight="700" fill="#166534">Transformer</text>
  <text x="386" y="332" text-anchor="middle" font-size="9" fill="#15803d">Self-Attention + FFN</text>
  <rect x="492" y="262" width="158" height="84" rx="12" fill="#dbeafe" stroke="#3b82f6" stroke-width="2.5" filter="url(#shadow)"/>
  <rect x="496" y="266" width="150" height="76" rx="10" fill="none" stroke="#93c5fd" stroke-width="0.8" opacity="0.4"/>
  <text x="571" y="300" text-anchor="middle" font-size="24" font-weight="700" fill="#1e3a8a">LLM</text>
  <text x="571" y="320" text-anchor="middle" font-size="11" fill="#2563eb">Next Token Prediction</text>
  <rect x="700" y="298" width="108" height="48" rx="8" fill="#f0fdf4" stroke="#86efac" stroke-width="1.5"/>
  <text x="754" y="319" text-anchor="middle" font-size="13" font-weight="600" fill="#166534">Prompt</text>
  <text x="754" y="335" text-anchor="middle" font-size="9" fill="#15803d">用户输入 + 上下文</text>
  <rect x="845" y="298" width="128" height="48" rx="8" fill="#f0fdf4" stroke="#86efac" stroke-width="1.5"/>
  <text x="909" y="319" text-anchor="middle" font-size="13" font-weight="600" fill="#166534">CoT / ReAct</text>
  <text x="909" y="335" text-anchor="middle" font-size="9" fill="#15803d">推理 + 行动循环</text>
  <rect x="1010" y="288" width="122" height="58" rx="10" fill="#f0fdf4" stroke="#16a34a" stroke-width="2"/>
  <text x="1071" y="314" text-anchor="middle" font-size="15" font-weight="700" fill="#166534">Agent</text>
  <text x="1071" y="332" text-anchor="middle" font-size="9" fill="#15803d">自主决策循环</text>
  <line x1="134" y1="322" x2="168" y2="322" stroke="#3b82f6" stroke-width="1.5" marker-end="url(#arr-blue)"/>
  <line x1="280" y1="322" x2="316" y2="317" stroke="#3b82f6" stroke-width="1.5" marker-end="url(#arr-blue)"/>
  <line x1="456" y1="317" x2="492" y2="305" stroke="#3b82f6" stroke-width="1.5" marker-end="url(#arr-blue)"/>
  <line x1="808" y1="322" x2="845" y2="322" stroke="#22c55e" stroke-width="1.5" marker-end="url(#arr-green)"/>
  <line x1="973" y1="322" x2="1010" y2="317" stroke="#22c55e" stroke-width="1.5" marker-end="url(#arr-green)"/>
  <!-- Memory System -->
  <rect x="30" y="430" width="530" height="115" rx="10" fill="#f0fdfa" fill-opacity="0.5" stroke="#99f6e4" stroke-width="1" stroke-dasharray="6,4"/>
  <text x="48" y="449" font-size="11" font-weight="600" fill="#0891b2">记忆系统</text>
  <rect x="48" y="460" width="100" height="48" rx="8" fill="#ffffff" stroke="#22d3ee" stroke-width="1.5"/>
  <text x="98" y="481" text-anchor="middle" font-size="13" font-weight="600" fill="#0e7490">Context</text>
  <text x="98" y="497" text-anchor="middle" font-size="9" fill="#0891b2">工作记忆</text>
  <rect x="178" y="460" width="105" height="48" rx="8" fill="#ffffff" stroke="#22d3ee" stroke-width="1.5"/>
  <text x="230" y="481" text-anchor="middle" font-size="13" font-weight="600" fill="#0e7490">Vector DB</text>
  <text x="230" y="497" text-anchor="middle" font-size="9" fill="#0891b2">长期记忆</text>
  <rect x="313" y="460" width="95" height="48" rx="8" fill="#ffffff" stroke="#22d3ee" stroke-width="1.5"/>
  <text x="360" y="481" text-anchor="middle" font-size="13" font-weight="600" fill="#0e7490">Memory</text>
  <text x="360" y="497" text-anchor="middle" font-size="9" fill="#0891b2">信息组织</text>
  <rect x="440" y="460" width="95" height="48" rx="8" fill="#ffffff" stroke="#14b8a6" stroke-width="2"/>
  <text x="487" y="481" text-anchor="middle" font-size="14" font-weight="700" fill="#0f766e">RAG</text>
  <text x="487" y="497" text-anchor="middle" font-size="9" fill="#0d9488">检索增强</text>
  <line x1="283" y1="484" x2="313" y2="484" stroke="#06b6d4" stroke-width="1.5" marker-end="url(#arr-cyan)"/>
  <line x1="408" y1="484" x2="440" y2="484" stroke="#06b6d4" stroke-width="1.5" marker-end="url(#arr-cyan)"/>
  <!-- Tool/Protocol -->
  <rect x="610" y="430" width="540" height="115" rx="10" fill="#faf5ff" fill-opacity="0.5" stroke="#e9d5ff" stroke-width="1" stroke-dasharray="6,4"/>
  <text x="628" y="449" font-size="11" font-weight="600" fill="#7c3aed">协议与工具</text>
  <rect x="628" y="460" width="140" height="48" rx="8" fill="#ffffff" stroke="#c084fc" stroke-width="1.5"/>
  <text x="698" y="481" text-anchor="middle" font-size="13" font-weight="600" fill="#7c3aed">Tool / Function</text>
  <text x="698" y="497" text-anchor="middle" font-size="9" fill="#6b21a8">外部能力扩展</text>
  <rect x="800" y="460" width="95" height="48" rx="8" fill="#ffffff" stroke="#c084fc" stroke-width="1.5"/>
  <text x="847" y="481" text-anchor="middle" font-size="13" font-weight="600" fill="#7c3aed">MCP</text>
  <text x="847" y="497" text-anchor="middle" font-size="9" fill="#6b21a8">工具标准化协议</text>
  <rect x="928" y="460" width="95" height="48" rx="8" fill="#ffffff" stroke="#a855f7" stroke-width="1.5"/>
  <text x="975" y="481" text-anchor="middle" font-size="13" font-weight="600" fill="#7c3aed">Skill</text>
  <text x="975" y="497" text-anchor="middle" font-size="9" fill="#6b21a8">模块化能力封装</text>
  <line x1="768" y1="484" x2="800" y2="484" stroke="#a855f7" stroke-width="1.5" marker-end="url(#arr-purple)"/>
  <line x1="895" y1="484" x2="928" y2="484" stroke="#a855f7" stroke-width="1.5" marker-end="url(#arr-purple)"/>
  <!-- Cross-System Arrows -->
  <path d="M 711,141 L 711,205 L 571,205 L 571,262" stroke="#f97316" stroke-width="1.5" stroke-dasharray="5,3" fill="none" marker-end="url(#arr-orange)"/>
  <rect x="604" y="193" width="62" height="20" rx="5" fill="#1c1917"/>
  <text x="635" y="207" text-anchor="middle" font-size="10" font-weight="600" fill="#ffffff">行为对齐</text>
  <path d="M 650,308 L 700,320" stroke="#f97316" stroke-width="1.5" stroke-dasharray="5,3" fill="none" marker-end="url(#arr-orange)"/>
  <rect x="641" y="280" width="62" height="20" rx="5" fill="#1e1b4b" stroke="#f97316" stroke-width="0.8"/>
  <text x="672" y="294" text-anchor="middle" font-size="10" font-weight="600" fill="#ffffff">推理引擎</text>
  <path d="M 1040,346 C 1040,398 640,398 640,346" stroke="#6b7280" stroke-width="1.5" stroke-dasharray="5,3" fill="none" marker-end="url(#arr-gray)"/>
  <rect x="790" y="385" width="110" height="20" rx="5" fill="#374151"/>
  <text x="845" y="399" text-anchor="middle" font-size="10" font-weight="600" fill="#ffffff">ReAct 循环反馈</text>
  <!-- Context → LLM (gray dashed, 工作记忆上限) -->
  <path d="M 98,460 L 98,380 L 520,380 L 520,346" stroke="#6b7280" stroke-width="1.2" stroke-dasharray="4,3" fill="none" marker-end="url(#arr-gray)"/>
  <rect x="260" y="368" width="72" height="20" rx="5" fill="#374151"/>
  <text x="296" y="382" text-anchor="middle" font-size="10" font-weight="600" fill="#ffffff">工作记忆上限</text>
  <!-- RAG → LLM (teal dashed, 检索增强) -->
  <path d="M 487,460 L 487,400 L 560,400 L 560,346" stroke="#06b6d4" stroke-width="1.2" stroke-dasharray="4,3" fill="none" marker-end="url(#arr-cyan)"/>
  <path d="M 1100,346 L 1100,420 L 698,420 L 698,460" stroke="#a855f7" stroke-width="1.2" stroke-dasharray="4,3" fill="none" marker-end="url(#arr-purple)"/>
  <rect x="860" y="408" width="56" height="20" rx="5" fill="#1e1b4b"/>
  <text x="888" y="422" text-anchor="middle" font-size="10" font-weight="600" fill="#ffffff">工具调用</text>
  <!-- Legend -->
  <rect x="115" y="575" width="970" height="42" rx="8" fill="#f9fafb" stroke="#e5e7eb" stroke-width="1"/>
  <line x1="135" y1="596" x2="165" y2="596" stroke="#3b82f6" stroke-width="1.5" marker-end="url(#arr-blue)"/>
  <text x="171" y="600" font-size="11" fill="#6b7280">数据流</text>
  <line x1="295" y1="596" x2="325" y2="596" stroke="#f97316" stroke-width="1.5" marker-end="url(#arr-orange)"/>
  <text x="331" y="600" font-size="11" fill="#6b7280">集成/对齐</text>
  <line x1="465" y1="596" x2="495" y2="596" stroke="#22c55e" stroke-width="1.5" marker-end="url(#arr-green)"/>
  <text x="501" y="600" font-size="11" fill="#6b7280">Agent 流</text>
  <line x1="625" y1="596" x2="655" y2="596" stroke="#a855f7" stroke-width="1.5" marker-end="url(#arr-purple)"/>
  <text x="661" y="600" font-size="11" fill="#6b7280">协议/工具</text>
  <line x1="795" y1="596" x2="825" y2="596" stroke="#06b6d4" stroke-width="1.5" marker-end="url(#arr-cyan)"/>
  <text x="831" y="600" font-size="11" fill="#6b7280">记忆/检索</text>
  <line x1="955" y1="596" x2="985" y2="596" stroke="#6b7280" stroke-width="1.5" stroke-dasharray="4,3" marker-end="url(#arr-gray)"/>
  <text x="991" y="600" font-size="11" fill="#6b7280">反馈/循环</text>
  <text x="1160" y="640" text-anchor="end" font-size="10" fill="#94a3b8">共 18 个核心概念</text>
</svg>