<svg xmlns="http://www.w3.org/2000/svg" viewBox="0 0 1200 800">
  <defs>
    <marker id="arr-orange" markerWidth="8" markerHeight="6" refX="7" refY="3" orient="auto">
      <polygon points="0 0, 8 3, 0 6" fill="#f97316"/>
    </marker>
    <marker id="arr-green" markerWidth="8" markerHeight="6" refX="7" refY="3" orient="auto">
      <polygon points="0 0, 8 3, 0 6" fill="#22c55e"/>
    </marker>
    <marker id="arr-purple" markerWidth="8" markerHeight="6" refX="7" refY="3" orient="auto">
      <polygon points="0 0, 8 3, 0 6" fill="#a855f7"/>
    </marker>
    <marker id="arr-cyan" markerWidth="8" markerHeight="6" refX="7" refY="3" orient="auto">
      <polygon points="0 0, 8 3, 0 6" fill="#06b6d4"/>
    </marker>
    <marker id="arr-blue" markerWidth="8" markerHeight="6" refX="7" refY="3" orient="auto">
      <polygon points="0 0, 8 3, 0 6" fill="#3b82f6"/>
    </marker>
    <filter id="shadow" x="-10%" y="-10%" width="120%" height="120%">
      <feDropShadow dx="1" dy="2" stdDeviation="2" flood-opacity="0.1"/>
    </filter>
  </defs>
  <rect width="1200" height="800" fill="#ffffff"/>
  <text x="600" y="35" text-anchor="middle" font-family="system-ui,sans-serif" font-size="24" font-weight="700" fill="#1e293b">AI 核心概念关系图 v5</text>
  <text x="600" y="58" text-anchor="middle" font-family="system-ui,sans-serif" font-size="12" fill="#64748b">系统内部关系 + 系统间协作 · 完整版</text>
  <rect x="40" y="80" width="220" height="380" rx="12" fill="#fff7ed" stroke="#fed7aa" stroke-width="2"/>
  <text x="60" y="108" font-family="system-ui,sans-serif" font-size="15" font-weight="700" fill="#c2410c">训练系统</text>
  <text x="60" y="126" font-family="system-ui,sans-serif" font-size="10" fill="#9a3412">内部关系</text>
  <rect x="60" y="140" width="180" height="50" rx="8" fill="#ffffff" stroke="#fb923c" stroke-width="1.5" filter="url(#shadow)"/>
  <text x="150" y="163" text-anchor="middle" font-family="system-ui,sans-serif" font-size="13" font-weight="600" fill="#c2410c">Scaling Laws</text>
  <text x="150" y="180" text-anchor="middle" font-family="system-ui,sans-serif" font-size="9" fill="#9a3412">算力/参数/数据 分配规律</text>
  <path d="M 150 190 L 150 215" stroke="#f97316" stroke-width="2" marker-end="url(#arr-orange)"/>
  <rect x="60" y="220" width="180" height="50" rx="8" fill="#ffffff" stroke="#fb923c" stroke-width="1.5" filter="url(#shadow)"/>
  <text x="150" y="243" text-anchor="middle" font-family="system-ui,sans-serif" font-size="13" font-weight="600" fill="#c2410c">Pre-training</text>
  <text x="150" y="260" text-anchor="middle" font-family="system-ui,sans-serif" font-size="9" fill="#9a3412">Next Token Prediction</text>
  <path d="M 150 270 L 150 295" stroke="#f97316" stroke-width="2" marker-end="url(#arr-orange)"/>
  <rect x="60" y="300" width="180" height="50" rx="8" fill="#ffffff" stroke="#fb923c" stroke-width="1.5" filter="url(#shadow)"/>
  <text x="150" y="323" text-anchor="middle" font-family="system-ui,sans-serif" font-size="13" font-weight="600" fill="#c2410c">Fine-tuning</text>
  <text x="150" y="340" text-anchor="middle" font-family="system-ui,sans-serif" font-size="9" fill="#9a3412">SFT / LoRA / PEFT</text>
  <path d="M 150 350 L 150 375" stroke="#f97316" stroke-width="2" marker-end="url(#arr-orange)"/>
  <rect x="60" y="380" width="180" height="50" rx="8" fill="#ffffff" stroke="#f97316" stroke-width="1.5" filter="url(#shadow)"/>
  <text x="150" y="403" text-anchor="middle" font-family="system-ui,sans-serif" font-size="13" font-weight="600" fill="#c2410c">Alignment</text>
  <text x="150" y="420" text-anchor="middle" font-family="system-ui,sans-serif" font-size="9" fill="#9a3412">RLHF / DPO</text>
  <rect x="310" y="80" width="280" height="380" rx="12" fill="#fef3c7" stroke="#fde68a" stroke-width="2"/>
  <text x="330" y="108" font-family="system-ui,sans-serif" font-size="15" font-weight="700" fill="#92400e">LLM 核心</text>
  <text x="330" y="126" font-family="system-ui,sans-serif" font-size="10" fill="#b45309">内部关系</text>
  <ellipse cx="450" cy="175" rx="100" ry="50" fill="#fef3c7" stroke="#f59e0b" stroke-width="2.5"/>
  <text x="450" y="170" text-anchor="middle" font-family="system-ui,sans-serif" font-size="22" font-weight="700" fill="#92400e">LLM</text>
  <text x="450" y="192" text-anchor="middle" font-family="system-ui,sans-serif" font-size="11" fill="#b45309">Next Token Prediction</text>
  <path d="M 240 405 Q 280 280 370 215" stroke="#f97316" stroke-width="2" stroke-dasharray="5,3" fill="none" marker-end="url(#arr-orange)"/>
  <rect x="248" y="320" width="60" height="20" rx="5" fill="#fff7ed" stroke="#fb923c" stroke-width="1"/>
  <text x="278" y="334" text-anchor="middle" font-family="system-ui,sans-serif" font-size="10" fill="#c2410c">行为对齐</text>
  <rect x="360" y="250" width="180" height="55" rx="10" fill="#dcfce7" stroke="#22c55e" stroke-width="2"/>
  <text x="450" y="275" text-anchor="middle" font-family="system-ui,sans-serif" font-size="15" font-weight="700" fill="#166534">Transformer</text>
  <text x="450" y="293" text-anchor="middle" font-family="system-ui,sans-serif" font-size="10" fill="#15803d">Self-Attention + FFN</text>
  <path d="M 450 220 L 450 250" stroke="#22c55e" stroke-width="2" marker-end="url(#arr-green)"/>
  <text x="330" y="340" font-family="system-ui,sans-serif" font-size="12" font-weight="600" fill="#64748b">输入管道</text>
  <rect x="330" y="355" width="85" height="45" rx="6" fill="#eff6ff" stroke="#3b82f6" stroke-width="1.5" filter="url(#shadow)"/>
  <text x="372" y="378" text-anchor="middle" font-family="system-ui,sans-serif" font-size="12" font-weight="600" fill="#1e40af">Token</text>
  <text x="372" y="393" text-anchor="middle" font-family="system-ui,sans-serif" font-size="8" fill="#3b82f6">Tokenization</text>
  <path d="M 420 377 L 465 377" stroke="#3b82f6" stroke-width="2" marker-end="url(#arr-blue)"/>
  <rect x="470" y="355" width="100" height="45" rx="6" fill="#eff6ff" stroke="#3b82f6" stroke-width="1.5" filter="url(#shadow)"/>
  <text x="520" y="378" text-anchor="middle" font-family="system-ui,sans-serif" font-size="12" font-weight="600" fill="#1e40af">Embedding</text>
  <text x="520" y="393" text-anchor="middle" font-family="system-ui,sans-serif" font-size="8" fill="#3b82f6">+ Positional</text>
  <path d="M 520 355 L 520 305" stroke="#3b82f6" stroke-width="2" marker-end="url(#arr-blue)"/>
  <rect x="640" y="80" width="220" height="380" rx="12" fill="#faf5ff" stroke="#e9d5ff" stroke-width="2"/>
  <text x="660" y="108" font-family="system-ui,sans-serif" font-size="15" font-weight="700" fill="#7c3aed">Agent 系统</text>
  <text x="660" y="126" font-family="system-ui,sans-serif" font-size="10" fill="#6b21a8">内部关系</text>
  <path d="M 550 175 L 660 175" stroke="#a855f7" stroke-width="2" stroke-dasharray="5,3" fill="none" marker-end="url(#arr-purple)"/>
  <rect x="585" y="158" width="60" height="20" rx="5" fill="#faf5ff" stroke="#c084fc" stroke-width="1"/>
  <text x="615" y="172" text-anchor="middle" font-family="system-ui,sans-serif" font-size="10" fill="#7c3aed">推理引擎</text>
  <rect x="660" y="140" width="180" height="50" rx="8" fill="#ffffff" stroke="#c084fc" stroke-width="1.5" filter="url(#shadow)"/>
  <text x="750" y="163" text-anchor="middle" font-family="system-ui,sans-serif" font-size="13" font-weight="600" fill="#7c3aed">Prompt</text>
  <text x="750" y="180" text-anchor="middle" font-family="system-ui,sans-serif" font-size="9" fill="#6b21a8">用户输入 + 上下文</text>
  <path d="M 750 190 L 750 215" stroke="#a855f7" stroke-width="2" marker-end="url(#arr-purple)"/>
  <rect x="660" y="220" width="180" height="55" rx="8" fill="#ffffff" stroke="#c084fc" stroke-width="1.5" filter="url(#shadow)"/>
  <text x="750" y="245" text-anchor="middle" font-family="system-ui,sans-serif" font-size="13" font-weight="600" fill="#7c3aed">CoT / ReAct</text>
  <text x="750" y="262" text-anchor="middle" font-family="system-ui,sans-serif" font-size="9" fill="#6b21a8">Thought → Action → Observation</text>
  <path d="M 750 275 L 750 300" stroke="#a855f7" stroke-width="2" marker-end="url(#arr-purple)"/>
  <rect x="660" y="305" width="180" height="55" rx="8" fill="#ffffff" stroke="#c084fc" stroke-width="1.5" filter="url(#shadow)"/>
  <text x="750" y="330" text-anchor="middle" font-family="system-ui,sans-serif" font-size="13" font-weight="600" fill="#7c3aed">Tool / Function</text>
  <text x="750" y="347" text-anchor="middle" font-family="system-ui,sans-serif" font-size="9" fill="#6b21a8">MCP / API / Code</text>
  <path d="M 750 360 L 750 385" stroke="#a855f7" stroke-width="2" marker-end="url(#arr-purple)"/>
  <rect x="660" y="390" width="180" height="50" rx="8" fill="#f3e8ff" stroke="#a855f7" stroke-width="2" filter="url(#shadow)"/>
  <text x="750" y="420" text-anchor="middle" font-family="system-ui,sans-serif" font-size="17" font-weight="700" fill="#6b21a8">Agent</text>
  <path d="M 700 390 Q 700 360 730 360 Q 760 360 760 300" stroke="#a855f7" stroke-width="2.5" stroke-dasharray="6,3" fill="none" marker-end="url(#arr-purple)"/>
  <rect x="715" y="340" width="50" height="20" rx="5" fill="#faf5ff" stroke="#c084fc" stroke-width="1.5"/>
  <text x="740" y="354" text-anchor="middle" font-family="system-ui,sans-serif" font-size="10" font-weight="600" fill="#7c3aed">ReAct 循环</text>
  <rect x="40" y="490" width="480" height="130" rx="12" fill="#ecfeff" stroke="#a5f3fc" stroke-width="2"/>
  <text x="60" y="520" font-family="system-ui,sans-serif" font-size="14" font-weight="700" fill="#0891b2">记忆系统</text>
  <text x="60" y="538" font-family="system-ui,sans-serif" font-size="10" fill="#0e7490">协作: 为 LLM 和 Agent 提供记忆能力</text>
  <rect x="60" y="555" width="100" height="50" rx="8" fill="#ffffff" stroke="#22d3ee" stroke-width="2" filter="url(#shadow)"/>
  <text x="110" y="580" text-anchor="middle" font-family="system-ui,sans-serif" font-size="12" font-weight="600" fill="#0e7490">Context</text>
  <text x="110" y="596" text-anchor="middle" font-family="system-ui,sans-serif" font-size="9" fill="#0891b2">工作记忆</text>
  <path d="M 165 580 L 200 580" stroke="#06b6d4" stroke-width="2" marker-end="url(#arr-cyan)"/>
  <rect x="205" y="555" width="85" height="50" rx="8" fill="#ffffff" stroke="#22d3ee" stroke-width="2" filter="url(#shadow)"/>
  <text x="247" y="580" text-anchor="middle" font-family="system-ui,sans-serif" font-size="12" font-weight="600" fill="#0e7490">Memory</text>
  <text x="247" y="596" text-anchor="middle" font-family="system-ui,sans-serif" font-size="9" fill="#0891b2">信息组织</text>
  <path d="M 295 580 L 330 580" stroke="#06b6d4" stroke-width="2" marker-end="url(#arr-cyan)"/>
  <rect x="335" y="555" width="90" height="50" rx="8" fill="#ffffff" stroke="#22d3ee" stroke-width="2" filter="url(#shadow)"/>
  <text x="380" y="580" text-anchor="middle" font-family="system-ui,sans-serif" font-size="12" font-weight="600" fill="#0e7490">Vector DB</text>
  <text x="380" y="596" text-anchor="middle" font-family="system-ui,sans-serif" font-size="9" fill="#0891b2">长期记忆</text>
  <path d="M 430 580 L 455 580" stroke="#14b8a6" stroke-width="2" marker-end="url(#arr-cyan)"/>
  <rect x="460" y="555" width="50" height="50" rx="8" fill="#ffffff" stroke="#14b8a6" stroke-width="2" filter="url(#shadow)"/>
  <text x="485" y="580" text-anchor="middle" font-family="system-ui,sans-serif" font-size="12" font-weight="600" fill="#0f766e">RAG</text>
  <path d="M 110 555 Q 110 450 350 250" stroke="#06b6d4" stroke-width="1.5" stroke-dasharray="4,3" fill="none" marker-end="url(#arr-cyan)"/>
  <rect x="180" y="400" width="70" height="20" rx="5" fill="#ecfeff" stroke="#22d3ee" stroke-width="1"/>
  <text x="215" y="414" text-anchor="middle" font-family="system-ui,sans-serif" font-size="10" fill="#0891b2">上下文注入</text>
  <path d="M 247 555 Q 400 500 660 175" stroke="#06b6d4" stroke-width="1.5" stroke-dasharray="4,3" fill="none" marker-end="url(#arr-cyan)"/>
  <rect x="480" y="350" width="70" height="20" rx="5" fill="#ecfeff" stroke="#22d3ee" stroke-width="1"/>
  <text x="515" y="364" text-anchor="middle" font-family="system-ui,sans-serif" font-size="10" fill="#0891b2">上下文增强</text>
  <path d="M 485 555 Q 485 400 380 250" stroke="#14b8a6" stroke-width="1.5" stroke-dasharray="4,3" fill="none" marker-end="url(#arr-cyan)"/>
  <rect x="410" y="380" width="70" height="20" rx="5" fill="#f0fdfa" stroke="#14b8a6" stroke-width="1"/>
  <text x="445" y="394" text-anchor="middle" font-family="system-ui,sans-serif" font-size="10" fill="#0f766e">外部知识</text>
  <rect x="550" y="490" width="160" height="130" rx="10" fill="#ffffff" stroke="#e5e7eb" stroke-width="1"/>
  <text x="570" y="515" font-family="system-ui,sans-serif" font-size="13" font-weight="700" fill="#374151">图例</text>
  <line x1="570" y1="535" x2="600" y2="535" stroke="#f97316" stroke-width="2" stroke-dasharray="5,3"/>
  <text x="610" y="539" font-family="system-ui,sans-serif" font-size="10" fill="#6b7280">训练系统内部</text>
  <line x1="570" y1="555" x2="600" y2="555" stroke="#a855f7" stroke-width="2" stroke-dasharray="5,3"/>
  <text x="610" y="559" font-family="system-ui,sans-serif" font-size="10" fill="#6b7280">Agent 系统内部</text>
  <line x1="570" y1="575" x2="600" y2="575" stroke="#3b82f6" stroke-width="2"/>
  <text x="610" y="579" font-family="system-ui,sans-serif" font-size="10" fill="#6b7280">数据流</text>
  <line x1="570" y1="595" x2="600" y2="595" stroke="#22c55e" stroke-width="2"/>
  <text x="610" y="599" font-family="system-ui,sans-serif" font-size="10" fill="#6b7280">架构核心</text>
  <line x1="570" y1="615" x2="600" y2="615" stroke="#06b6d4" stroke-width="1.5" stroke-dasharray="4,3"/>
  <text x="610" y="619" font-family="system-ui,sans-serif" font-size="10" fill="#6b7280">记忆/协作</text>
  <rect x="740" y="490" width="420" height="130" rx="10" fill="#fff1f2" stroke="#fecdd3" stroke-width="1.5"/>
  <text x="760" y="515" font-family="system-ui,sans-serif" font-size="14" font-weight="700" fill="#be123c">系统间协作关系</text>
  <path d="M 780 545 L 780 570" stroke="#f97316" stroke-width="2" marker-end="url(#arr-orange)"/>
  <text x="790" y="558" font-family="system-ui,sans-serif" font-size="10" fill="#c2410c">训练→LLM</text>
  <path d="M 870 545 L 870 570" stroke="#a855f7" stroke-width="2" marker-end="url(#arr-purple)"/>
  <text x="880" y="558" font-family="system-ui,sans-serif" font-size="10" fill="#7c3aed">LLM→Agent</text>
  <path d="M 960 545 L 960 570" stroke="#06b6d4" stroke-width="2" marker-end="url(#arr-cyan)"/>
  <text x="970" y="558" font-family="system-ui,sans-serif" font-size="10" fill="#0891b2">Memory→LLM</text>
  <path d="M 1070 545 L 1070 570" stroke="#14b8a6" stroke-width="2" marker-end="url(#arr-cyan)"/>
  <text x="1080" y="558" font-family="system-ui,sans-serif" font-size="10" fill="#0f766e">RAG→LLM</text>
  <text x="760" y="595" font-family="system-ui,sans-serif" font-size="11" fill="#9f1239">训练系统塑造 LLM 能力 → LLM 驱动 Agent 推理</text>
  <text x="760" y="612" font-family="system-ui,sans-serif" font-size="11" fill="#9f1239">记忆系统提供上下文 → RAG 注入外部知识 → LLM</text>
</svg>