<svg xmlns="http://www.w3.org/2000/svg" viewBox="0 0 1200 720">
  <defs>
    <marker id="arr-orange" markerWidth="8" markerHeight="6" refX="7" refY="3" orient="auto">
      <polygon points="0 0, 8 3, 0 6" fill="#f97316"/>
    </marker>
    <marker id="arr-green" markerWidth="8" markerHeight="6" refX="7" refY="3" orient="auto">
      <polygon points="0 0, 8 3, 0 6" fill="#22c55e"/>
    </marker>
    <marker id="arr-purple" markerWidth="8" markerHeight="6" refX="7" refY="3" orient="auto">
      <polygon points="0 0, 8 3, 0 6" fill="#a855f7"/>
    </marker>
    <marker id="arr-cyan" markerWidth="8" markerHeight="6" refX="7" refY="3" orient="auto">
      <polygon points="0 0, 8 3, 0 6" fill="#06b6d4"/>
    </marker>
    <marker id="arr-blue" markerWidth="8" markerHeight="6" refX="7" refY="3" orient="auto">
      <polygon points="0 0, 8 3, 0 6" fill="#3b82f6"/>
    </marker>
    <filter id="shadow" x="-10%" y="-10%" width="120%" height="120%">
      <feDropShadow dx="1" dy="2" stdDeviation="2" flood-opacity="0.1"/>
    </filter>
  </defs>
  <rect width="1200" height="720" fill="#fafafa"/>
  <text x="600" y="30" text-anchor="middle" font-family="system-ui,sans-serif" font-size="22" font-weight="700" fill="#1e293b">AI 核心概念关系图 v4</text>
  <text x="600" y="50" text-anchor="middle" font-family="system-ui,sans-serif" font-size="11" fill="#64748b">系统内部关系 + 系统间协作 · 双重视角</text>
  <rect x="30" y="70" width="220" height="400" rx="12" fill="#fff7ed" stroke="#fed7aa" stroke-width="2"/>
  <text x="50" y="95" font-family="system-ui,sans-serif" font-size="14" font-weight="700" fill="#c2410c">训练系统</text>
  <text x="50" y="110" font-family="system-ui,sans-serif" font-size="9" fill="#9a3412">内部关系: Scaling → Pretrain → Finetune</text>
  <rect x="50" y="125" width="180" height="55" rx="8" fill="#ffffff" stroke="#fb923c" stroke-width="1.5" filter="url(#shadow)"/>
  <text x="140" y="148" text-anchor="middle" font-family="system-ui,sans-serif" font-size="13" font-weight="600" fill="#c2410c">Scaling Laws</text>
  <text x="140" y="165" text-anchor="middle" font-family="system-ui,sans-serif" font-size="9" fill="#9a3412">指导预训练的算力/参数分配</text>
  <path d="M 140 180 L 140 210" stroke="#f97316" stroke-width="2" marker-end="url(#arr-orange)"/>
  <rect x="50" y="215" width="180" height="55" rx="8" fill="#ffffff" stroke="#fb923c" stroke-width="1.5" filter="url(#shadow)"/>
  <text x="140" y="238" text-anchor="middle" font-family="system-ui,sans-serif" font-size="13" font-weight="600" fill="#c2410c">Pre-training</text>
  <text x="140" y="255" text-anchor="middle" font-family="system-ui,sans-serif" font-size="9" fill="#9a3412">Next Token Prediction</text>
  <path d="M 140 270 L 140 300" stroke="#f97316" stroke-width="2" marker-end="url(#arr-orange)"/>
  <rect x="50" y="305" width="180" height="55" rx="8" fill="#ffffff" stroke="#fb923c" stroke-width="1.5" filter="url(#shadow)"/>
  <text x="140" y="328" text-anchor="middle" font-family="system-ui,sans-serif" font-size="13" font-weight="600" fill="#c2410c">Fine-tuning</text>
  <text x="140" y="345" text-anchor="middle" font-family="system-ui,sans-serif" font-size="9" fill="#9a3412">SFT / LoRA / PEFT</text>
  <path d="M 140 360 L 140 390" stroke="#f97316" stroke-width="2" marker-end="url(#arr-orange)"/>
  <rect x="50" y="395" width="180" height="55" rx="8" fill="#ffffff" stroke="#f97316" stroke-width="1.5" filter="url(#shadow)"/>
  <text x="140" y="418" text-anchor="middle" font-family="system-ui,sans-serif" font-size="13" font-weight="600" fill="#c2410c">Alignment</text>
  <text x="140" y="435" text-anchor="middle" font-family="system-ui,sans-serif" font-size="9" fill="#9a3412">RLHF / DPO</text>
  <rect x="300" y="70" width="280" height="400" rx="12" fill="#fef3c7" stroke="#fde68a" stroke-width="2"/>
  <text x="320" y="95" font-family="system-ui,sans-serif" font-size="14" font-weight="700" fill="#92400e">LLM 核心</text>
  <text x="320" y="110" font-family="system-ui,sans-serif" font-size="9" fill="#b45309">内部关系: Token → Embedding → Transformer</text>
  <ellipse cx="440" cy="160" rx="100" ry="50" fill="#fef3c7" stroke="#f59e0b" stroke-width="2.5"/>
  <text x="440" y="155" text-anchor="middle" font-family="system-ui,sans-serif" font-size="20" font-weight="700" fill="#92400e">LLM</text>
  <text x="440" y="175" text-anchor="middle" font-family="system-ui,sans-serif" font-size="10" fill="#b45309">Next Token Prediction</text>
  <path d="M 250 420 Q 280 300 360 200" stroke="#f97316" stroke-width="2" stroke-dasharray="5,3" fill="none" marker-end="url(#arr-orange)"/>
  <rect x="255" y="310" width="60" height="18" rx="4" fill="#fff7ed" stroke="#fb923c" stroke-width="1"/>
  <text x="285" y="323" text-anchor="middle" font-family="system-ui,sans-serif" font-size="9" fill="#c2410c">行为对齐</text>
  <rect x="350" y="230" width="180" height="55" rx="10" fill="#dcfce7" stroke="#22c55e" stroke-width="2"/>
  <text x="440" y="253" text-anchor="middle" font-family="system-ui,sans-serif" font-size="14" font-weight="700" fill="#166534">Transformer</text>
  <text x="440" y="270" text-anchor="middle" font-family="system-ui,sans-serif" font-size="10" fill="#15803d">Self-Attention + FFN</text>
  <path d="M 440 205 L 440 230" stroke="#22c55e" stroke-width="2" marker-end="url(#arr-green)"/>
  <text x="320" y="320" font-family="system-ui,sans-serif" font-size="11" font-weight="600" fill="#64748b">输入管道</text>
  <rect x="320" y="335" width="80" height="40" rx="6" fill="#eff6ff" stroke="#3b82f6" stroke-width="1.5" filter="url(#shadow)"/>
  <text x="360" y="360" text-anchor="middle" font-family="system-ui,sans-serif" font-size="12" font-weight="600" fill="#1e40af">Token</text>
  <path d="M 405 355 L 450 355" stroke="#3b82f6" stroke-width="1.5" marker-end="url(#arr-blue)"/>
  <rect x="455" y="335" width="100" height="40" rx="6" fill="#eff6ff" stroke="#3b82f6" stroke-width="1.5" filter="url(#shadow)"/>
  <text x="505" y="360" text-anchor="middle" font-family="system-ui,sans-serif" font-size="12" font-weight="600" fill="#1e40af">Embedding</text>
  <path d="M 505 375 L 505 285" stroke="#3b82f6" stroke-width="1.5" marker-end="url(#arr-blue)"/>
  <rect x="320" y="385" width="80" height="20" rx="4" fill="#eff6ff" stroke="#93c5fd" stroke-width="1"/>
  <text x="360" y="399" text-anchor="middle" font-family="system-ui,sans-serif" font-size="9" fill="#3b82f6">Tokenization</text>
  <rect x="455" y="385" width="100" height="20" rx="4" fill="#eff6ff" stroke="#93c5fd" stroke-width="1"/>
  <text x="505" y="399" text-anchor="middle" font-family="system-ui,sans-serif" font-size="9" fill="#3b82f6">+ Positional Encoding</text>
  <rect x="630" y="70" width="220" height="400" rx="12" fill="#faf5ff" stroke="#e9d5ff" stroke-width="2"/>
  <text x="650" y="95" font-family="system-ui,sans-serif" font-size="14" font-weight="700" fill="#7c3aed">Agent 系统</text>
  <text x="650" y="110" font-family="system-ui,sans-serif" font-size="9" fill="#6b21a8">内部关系: Prompt → CoT/ReAct → Tool</text>
  <path d="M 540 160 L 650 160" stroke="#a855f7" stroke-width="2" stroke-dasharray="5,3" fill="none" marker-end="url(#arr-purple)"/>
  <rect x="575" y="145" width="60" height="18" rx="4" fill="#faf5ff" stroke="#c084fc" stroke-width="1"/>
  <text x="605" y="158" text-anchor="middle" font-family="system-ui,sans-serif" font-size="9" fill="#7c3aed">推理引擎</text>
  <rect x="650" y="125" width="180" height="50" rx="8" fill="#ffffff" stroke="#c084fc" stroke-width="1.5" filter="url(#shadow)"/>
  <text x="740" y="150" text-anchor="middle" font-family="system-ui,sans-serif" font-size="13" font-weight="600" fill="#7c3aed">Prompt</text>
  <text x="740" y="165" text-anchor="middle" font-family="system-ui,sans-serif" font-size="9" fill="#6b21a8">用户输入 + 上下文</text>
  <path d="M 740 175 L 740 205" stroke="#a855f7" stroke-width="2" marker-end="url(#arr-purple)"/>
  <rect x="650" y="210" width="180" height="55" rx="8" fill="#ffffff" stroke="#c084fc" stroke-width="1.5" filter="url(#shadow)"/>
  <text x="740" y="233" text-anchor="middle" font-family="system-ui,sans-serif" font-size="13" font-weight="600" fill="#7c3aed">CoT / ReAct</text>
  <text x="740" y="250" text-anchor="middle" font-family="system-ui,sans-serif" font-size="9" fill="#6b21a8">Thought → Action → Observation</text>
  <path d="M 740 265 L 740 295" stroke="#a855f7" stroke-width="2" marker-end="url(#arr-purple)"/>
  <rect x="650" y="300" width="180" height="55" rx="8" fill="#ffffff" stroke="#c084fc" stroke-width="1.5" filter="url(#shadow)"/>
  <text x="740" y="323" text-anchor="middle" font-family="system-ui,sans-serif" font-size="13" font-weight="600" fill="#7c3aed">Tool / Function</text>
  <text x="740" y="340" text-anchor="middle" font-family="system-ui,sans-serif" font-size="9" fill="#6b21a8">MCP / API / Code</text>
  <path d="M 740 355 L 740 385" stroke="#a855f7" stroke-width="2" marker-end="url(#arr-purple)"/>
  <rect x="650" y="390" width="180" height="50" rx="8" fill="#f3e8ff" stroke="#a855f7" stroke-width="2" filter="url(#shadow)"/>
  <text x="740" y="420" text-anchor="middle" font-family="system-ui,sans-serif" font-size="16" font-weight="700" fill="#6b21a8">Agent</text>
  <rect x="30" y="490" width="420" height="100" rx="10" fill="#ecfeff" stroke="#a5f3fc" stroke-width="1.5"/>
  <text x="50" y="515" font-family="system-ui,sans-serif" font-size="13" font-weight="700" fill="#0891b2">记忆系统</text>
  <text x="50" y="530" font-family="system-ui,sans-serif" font-size="9" fill="#0e7490">协作: 为 LLM 和 Agent 提供记忆能力</text>
  <rect x="50" y="545" width="90" height="35" rx="6" fill="#ffffff" stroke="#22d3ee" stroke-width="1.5" filter="url(#shadow)"/>
  <text x="95" y="567" text-anchor="middle" font-family="system-ui,sans-serif" font-size="11" font-weight="600" fill="#0e7490">Context</text>
  <text x="95" y="580" text-anchor="middle" font-family="system-ui,sans-serif" font-size="8" fill="#0891b2">工作记忆</text>
  <path d="M 145 562 L 160 562" stroke="#06b6d4" stroke-width="1.5" marker-end="url(#arr-cyan)"/>
  <rect x="165" y="545" width="70" height="35" rx="6" fill="#ffffff" stroke="#22d3ee" stroke-width="1.5" filter="url(#shadow)"/>
  <text x="200" y="567" text-anchor="middle" font-family="system-ui,sans-serif" font-size="11" font-weight="600" fill="#0e7490">Memory</text>
  <path d="M 240 562 L 255 562" stroke="#06b6d4" stroke-width="1.5" marker-end="url(#arr-cyan)"/>
  <rect x="260" y="545" width="85" height="35" rx="6" fill="#ffffff" stroke="#22d3ee" stroke-width="1.5" filter="url(#shadow)"/>
  <text x="302" y="567" text-anchor="middle" font-family="system-ui,sans-serif" font-size="11" font-weight="600" fill="#0e7490">Vector DB</text>
  <path d="M 350 562 L 365 562" stroke="#14b8a6" stroke-width="1.5" marker-end="url(#arr-cyan)"/>
  <rect x="370" y="545" width="65" height="35" rx="6" fill="#ffffff" stroke="#14b8a6" stroke-width="1.5" filter="url(#shadow)"/>
  <text x="402" y="567" text-anchor="middle" font-family="system-ui,sans-serif" font-size="11" font-weight="600" fill="#0f766e">RAG</text>
  <rect x="470" y="490" width="200" height="100" rx="10" fill="#f0fdfa" stroke="#99f6e4" stroke-width="1.5"/>
  <text x="490" y="515" font-family="system-ui,sans-serif" font-size="12" font-weight="700" fill="#0f766e">RAG 流程</text>
  <text x="490" y="530" font-family="system-ui,sans-serif" font-size="9" fill="#115e59">协作: 为 LLM 注入外部知识</text>
  <text x="490" y="550" font-family="system-ui,sans-serif" font-size="9" fill="#0f766e">Query → Embed → VectorDB → Retrieve</text>
  <text x="490" y="565" font-family="system-ui,sans-serif" font-size="9" fill="#0f766e">       ↓</text>
  <text x="490" y="580" font-family="system-ui,sans-serif" font-size="9" fill="#0f766e">LLM ← Context Injection</text>
  <path d="M 570 540 Q 600 500 620 300" stroke="#14b8a6" stroke-width="1.5" stroke-dasharray="4,3" fill="none" marker-end="url(#arr-cyan)"/>
  <rect x="700" y="490" width="150" height="100" rx="10" fill="#ffffff" stroke="#e5e7eb" stroke-width="1"/>
  <text x="720" y="515" font-family="system-ui,sans-serif" font-size="12" font-weight="700" fill="#374151">图例</text>
  <line x1="720" y1="535" x2="750" y2="535" stroke="#f97316" stroke-width="2" stroke-dasharray="5,3"/>
  <text x="760" y="539" font-family="system-ui,sans-serif" font-size="9" fill="#6b7280">训练系统内部</text>
  <line x1="720" y1="555" x2="750" y2="555" stroke="#a855f7" stroke-width="2" stroke-dasharray="5,3"/>
  <text x="760" y="559" font-family="system-ui,sans-serif" font-size="9" fill="#6b7280">Agent 系统内部</text>
  <line x1="720" y1="575" x2="750" y2="575" stroke="#3b82f6" stroke-width="2"/>
  <text x="760" y="579" font-family="system-ui,sans-serif" font-size="9" fill="#6b7280">数据流</text>
  <line x1="720" y1="595" x2="750" y2="595" stroke="#22c55e" stroke-width="2"/>
  <text x="760" y="599" font-family="system-ui,sans-serif" font-size="9" fill="#6b7280">架构核心</text>
  <rect x="880" y="490" width="290" height="100" rx="10" fill="#fff1f2" stroke="#fecdd3" stroke-width="1.5"/>
  <text x="900" y="515" font-family="system-ui,sans-serif" font-size="12" font-weight="700" fill="#be123c">系统间协作</text>
  <path d="M 900 540 L 900 560" stroke="#f97316" stroke-width="1.5" marker-end="url(#arr-orange)"/>
  <text x="910" y="550" font-family="system-ui,sans-serif" font-size="8" fill="#c2410c">训练→LLM</text>
  <path d="M 960 540 L 960 560" stroke="#a855f7" stroke-width="1.5" marker-end="url(#arr-purple)"/>
  <text x="970" y="550" font-family="system-ui,sans-serif" font-size="8" fill="#7c3aed">LLM→Agent</text>
  <path d="M 1020 540 L 1020 560" stroke="#06b6d4" stroke-width="1.5" marker-end="url(#arr-cyan)"/>
  <text x="1030" y="550" font-family="system-ui,sans-serif" font-size="8" fill="#0891b2">Memory→LLM</text>
  <path d="M 1080 540 L 1080 560" stroke="#14b8a6" stroke-width="1.5" marker-end="url(#arr-cyan)"/>
  <text x="1090" y="550" font-family="system-ui,sans-serif" font-size="8" fill="#0f766e">RAG→LLM</text>
  <text x="900" y="575" font-family="system-ui,sans-serif" font-size="9" fill="#9f1239">训练系统塑造 LLM 能力，LLM 驱动 Agent 推理，</text>
  <text x="900" y="590" font-family="system-ui,sans-serif" font-size="9" fill="#9f1239">记忆系统提供上下文与知识，RAG 注入外部信息。</text>
  <path d="M 740 440 Q 780 470 820 440" stroke="#a855f7" stroke-width="1.5" stroke-dasharray="4,3" fill="none" marker-end="url(#arr-purple)"/>
  <rect x="755" y="448" width="50" height="16" rx="4" fill="#faf5ff" stroke="#e9d5ff" stroke-width="1"/>
  <text x="780" y="460" text-anchor="middle" font-family="system-ui,sans-serif" font-size="8" fill="#7c3aed">ReAct 循环</text>
</svg>