<svg xmlns="http://www.w3.org/2000/svg" viewBox="0 0 1300 780">
  <style>
    text { font-family: "Helvetica Neue", Helvetica, Arial, "PingFang SC", "Microsoft YaHei", sans-serif; }
  </style>
  <defs>
    <marker id="a-b" markerWidth="10" markerHeight="7" refX="9" refY="3.5" orient="auto"><polygon points="0 0,10 3.5,0 7" fill="#3b82f6"/></marker>
    <marker id="a-o" markerWidth="10" markerHeight="7" refX="9" refY="3.5" orient="auto"><polygon points="0 0,10 3.5,0 7" fill="#f97316"/></marker>
    <marker id="a-g" markerWidth="10" markerHeight="7" refX="9" refY="3.5" orient="auto"><polygon points="0 0,10 3.5,0 7" fill="#22c55e"/></marker>
    <marker id="a-p" markerWidth="10" markerHeight="7" refX="9" refY="3.5" orient="auto"><polygon points="0 0,10 3.5,0 7" fill="#a855f7"/></marker>
    <marker id="a-c" markerWidth="10" markerHeight="7" refX="9" refY="3.5" orient="auto"><polygon points="0 0,10 3.5,0 7" fill="#06b6d4"/></marker>
    <marker id="a-y" markerWidth="10" markerHeight="7" refX="9" refY="3.5" orient="auto"><polygon points="0 0,10 3.5,0 7" fill="#92400e"/></marker>
    <marker id="a-r" markerWidth="10" markerHeight="7" refX="9" refY="3.5" orient="auto"><polygon points="0 0,10 3.5,0 7" fill="#6b7280"/></marker>
    <filter id="sh" x="-5%" y="-5%" width="110%" height="115%"><feDropShadow dx="1" dy="2" stdDeviation="3" flood-opacity="0.08"/></filter>
  </defs>

  <rect width="1300" height="780" fill="#ffffff"/>
  <text x="650" y="30" text-anchor="middle" font-size="22" font-weight="700" fill="#1e293b">AI 核心概念关系架构图</text>
  <text x="650" y="50" text-anchor="middle" font-size="12" fill="#64748b">LLM 架构 · Agent 架构 · 概念关系</text>

  <!-- ═══════════════════════════════════════ -->
  <!-- LEFT DOMAIN: LLM 架构                    -->
  <!-- ═══════════════════════════════════════ -->
  <rect x="20" y="68" width="585" height="465" rx="14" fill="#f8fafc" stroke="#cbd5e1" stroke-width="1.5"/>
  <rect x="20" y="68" width="585" height="36" rx="14" fill="#1e3a8a"/>
  <rect x="20" y="90" width="585" height="14" fill="#1e3a8a"/>
  <text x="312" y="92" text-anchor="middle" font-size="15" font-weight="700" fill="#ffffff">LLM 架构</text>

  <!-- Training Pipeline -->
  <rect x="38" y="118" width="549" height="88" rx="8" fill="#fff7ed" fill-opacity="0.5" stroke="#fdba74" stroke-width="1" stroke-dasharray="5,3"/>
  <text x="56" y="136" font-size="10" font-weight="600" fill="#c2410c">训练管道</text>

  <rect x="56" y="146" width="135" height="46" rx="7" fill="#fff" stroke="#fb923c" stroke-width="1.5" filter="url(#sh)"/>
  <text x="123" y="166" text-anchor="middle" font-size="12" font-weight="600" fill="#c2410c">Scaling Laws</text>
  <text x="123" y="182" text-anchor="middle" font-size="8" fill="#9a3412">算力 · 参数 · 数据</text>

  <rect x="216" y="146" width="135" height="46" rx="7" fill="#fff" stroke="#fb923c" stroke-width="1.5" filter="url(#sh)"/>
  <text x="283" y="166" text-anchor="middle" font-size="12" font-weight="600" fill="#c2410c">Fine-tuning</text>
  <text x="283" y="182" text-anchor="middle" font-size="8" fill="#9a3412">SFT</text>

  <rect x="376" y="146" width="135" height="46" rx="7" fill="#fff" stroke="#f97316" stroke-width="1.5" filter="url(#sh)"/>
  <text x="443" y="166" text-anchor="middle" font-size="12" font-weight="600" fill="#c2410c">Alignment</text>
  <text x="443" y="182" text-anchor="middle" font-size="8" fill="#9a3412">RLHF / DPO</text>

  <line x1="191" y1="169" x2="216" y2="169" stroke="#f97316" stroke-width="1.5" marker-end="url(#a-o)"/>
  <line x1="351" y1="169" x2="376" y2="169" stroke="#f97316" stroke-width="1.5" marker-end="url(#a-o)"/>

  <!-- Training → LLM -->
  <path d="M 443,192 L 443,218 L 380,218 L 380,248" stroke="#f97316" stroke-width="1.5" stroke-dasharray="5,3" fill="none" marker-end="url(#a-o)"/>
  <rect x="389" y="206" width="72" height="16" rx="4" fill="#1c1917"/>
  <text x="425" y="218" text-anchor="middle" font-size="9" font-weight="600" fill="#fff">产出模型</text>

  <!-- Model Architecture -->
  <rect x="38" y="220" width="549" height="175" rx="8" fill="#eff6ff" fill-opacity="0.4" stroke="#bfdbfe" stroke-width="1" stroke-dasharray="5,3"/>
  <text x="56" y="238" font-size="10" font-weight="600" fill="#3b82f6">模型架构</text>

  <rect x="56" y="250" width="100" height="46" rx="7" fill="#fff" stroke="#93c5fd" stroke-width="1.5" filter="url(#sh)"/>
  <text x="106" y="270" text-anchor="middle" font-size="12" font-weight="600" fill="#1e40af">Token</text>
  <text x="106" y="286" text-anchor="middle" font-size="8" fill="#3b82f6">文本 → ID</text>

  <rect x="182" y="250" width="115" height="46" rx="7" fill="#fff" stroke="#93c5fd" stroke-width="1.5" filter="url(#sh)"/>
  <text x="239" y="270" text-anchor="middle" font-size="12" font-weight="600" fill="#1e40af">Embedding</text>
  <text x="239" y="286" text-anchor="middle" font-size="8" fill="#3b82f6">ID → 向量</text>

  <rect x="323" y="250" width="145" height="46" rx="7" fill="#fff" stroke="#86efac" stroke-width="1.5" filter="url(#sh)"/>
  <text x="395" y="270" text-anchor="middle" font-size="12" font-weight="600" fill="#166534">Transformer</text>
  <text x="395" y="286" text-anchor="middle" font-size="8" fill="#15803d">Self-Attention + FFN</text>

  <line x1="156" y1="273" x2="182" y2="273" stroke="#3b82f6" stroke-width="1.5" marker-end="url(#a-b)"/>
  <line x1="297" y1="273" x2="323" y2="273" stroke="#3b82f6" stroke-width="1.5" marker-end="url(#a-b)"/>

  <!-- Attention Mechanism sub-label -->
  <rect x="345" y="300" width="103" height="18" rx="4" fill="#f0fdf4" stroke="#86efac" stroke-width="0.8"/>
  <text x="396" y="313" text-anchor="middle" font-size="8" fill="#15803d">Attention Mechanism</text>
  <text x="380" y="300" font-size="7" fill="#15803d">包含</text>

  <!-- Transformer → LLM -->
  <line x1="395" y1="296" x2="395" y2="318" stroke="#3b82f6" stroke-width="1.5"/>
  <path d="M 395,318 L 340,318 L 340,338" stroke="#3b82f6" stroke-width="1.5" fill="none" marker-end="url(#a-b)"/>

  <!-- LLM Core -->
  <rect x="220" y="338" width="220" height="68" rx="12" fill="#dbeafe" stroke="#3b82f6" stroke-width="3" filter="url(#sh)"/>
  <rect x="224" y="342" width="212" height="60" rx="10" fill="none" stroke="#93c5fd" stroke-width="0.8" opacity="0.4"/>
  <text x="330" y="370" text-anchor="middle" font-size="22" font-weight="700" fill="#1e3a8a">LLM</text>
  <text x="330" y="392" text-anchor="middle" font-size="10" fill="#2563eb">Next Token Prediction</text>

  <!-- Context Window -->
  <rect x="38" y="425" width="549" height="72" rx="8" fill="#f0fdfa" fill-opacity="0.4" stroke="#99f6e4" stroke-width="1" stroke-dasharray="5,3"/>
  <text x="56" y="443" font-size="10" font-weight="600" fill="#0891b2">约束</text>
  <rect x="140" y="440" width="310" height="44" rx="8" fill="#fff" stroke="#22d3ee" stroke-width="1.5" filter="url(#sh)"/>
  <text x="295" y="460" text-anchor="middle" font-size="13" font-weight="600" fill="#0e7490">Context Window</text>
  <text x="295" y="476" text-anchor="middle" font-size="9" fill="#0891b2">模型输入 Token 上限</text>

  <!-- LLM → Context Window -->
  <path d="M 330,406 L 330,418 L 295,418 L 295,440" stroke="#06b6d4" stroke-width="1.2" stroke-dasharray="4,3" fill="none" marker-end="url(#a-c)"/>

  <!-- ═══════════════════════════════════════ -->
  <!-- RIGHT DOMAIN: Agent 架构                 -->
  <!-- ═══════════════════════════════════════ -->
  <rect x="650" y="68" width="630" height="465" rx="14" fill="#f0fdf4" fill-opacity="0.3" stroke="#86efac" stroke-width="1.5"/>
  <rect x="650" y="68" width="630" height="36" rx="14" fill="#166534"/>
  <rect x="650" y="90" width="630" height="14" fill="#166534"/>
  <text x="965" y="92" text-anchor="middle" font-size="15" font-weight="700" fill="#ffffff">Agent 架构</text>

  <!-- Reasoning & Planning -->
  <rect x="668" y="118" width="614" height="78" rx="8" fill="#dbeafe" fill-opacity="0.3" stroke="#93c5fd" stroke-width="1" stroke-dasharray="5,3"/>
  <text x="686" y="136" font-size="10" font-weight="600" fill="#1e40af">推理与规划</text>

  <rect x="686" y="144" width="150" height="40" rx="7" fill="#dbeafe" stroke="#3b82f6" stroke-width="2" filter="url(#sh)"/>
  <text x="761" y="165" text-anchor="middle" font-size="14" font-weight="700" fill="#1e3a8a">LLM</text>
  <text x="761" y="179" text-anchor="middle" font-size="8" fill="#2563eb">推理引擎</text>

  <rect x="864" y="144" width="130" height="40" rx="7" fill="#fff" stroke="#4ade80" stroke-width="1.5" filter="url(#sh)"/>
  <text x="929" y="163" text-anchor="middle" font-size="12" font-weight="600" fill="#166534">CoT / ReAct</text>
  <text x="929" y="177" text-anchor="middle" font-size="8" fill="#15803d">推理 + 行动</text>

  <rect x="1022" y="144" width="120" height="40" rx="7" fill="#f0fdf4" stroke="#16a34a" stroke-width="2" filter="url(#sh)"/>
  <text x="1082" y="163" text-anchor="middle" font-size="13" font-weight="700" fill="#166534">Agent</text>
  <text x="1082" y="177" text-anchor="middle" font-size="8" fill="#15803d">自主系统</text>

  <line x1="836" y1="164" x2="864" y2="164" stroke="#22c55e" stroke-width="1.5" marker-end="url(#a-g)"/>
  <line x1="994" y1="164" x2="1022" y2="164" stroke="#22c55e" stroke-width="1.5" marker-end="url(#a-g)"/>

  <!-- ReAct Loop -->
  <rect x="668" y="210" width="614" height="120" rx="8" fill="#f0fdf4" fill-opacity="0.4" stroke="#86efac" stroke-width="1" stroke-dasharray="5,3"/>
  <text x="686" y="228" font-size="10" font-weight="600" fill="#166534">ReAct 循环 · Agent 核心</text>

  <rect x="690" y="240" width="130" height="44" rx="7" fill="#fff" stroke="#4ade80" stroke-width="1.5" filter="url(#sh)"/>
  <text x="755" y="259" text-anchor="middle" font-size="12" font-weight="600" fill="#166534">Thought</text>
  <text x="755" y="275" text-anchor="middle" font-size="8" fill="#15803d">LLM 推理</text>

  <rect x="860" y="240" width="140" height="44" rx="7" fill="#fff" stroke="#a855f7" stroke-width="1.5" filter="url(#sh)"/>
  <text x="930" y="259" text-anchor="middle" font-size="12" font-weight="600" fill="#7c3aed">Action</text>
  <text x="930" y="275" text-anchor="middle" font-size="8" fill="#6b21a8">Function Calling</text>

  <rect x="1038" y="240" width="130" height="44" rx="7" fill="#fff" stroke="#6b7280" stroke-width="1.5" filter="url(#sh)"/>
  <text x="1103" y="259" text-anchor="middle" font-size="12" font-weight="600" fill="#374151">Observation</text>
  <text x="1103" y="275" text-anchor="middle" font-size="8" fill="#6b7280">执行结果</text>

  <line x1="820" y1="262" x2="860" y2="262" stroke="#22c55e" stroke-width="1.5" marker-end="url(#a-g)"/>
  <line x1="1000" y1="262" x2="1038" y2="262" stroke="#a855f7" stroke-width="1.5" marker-end="url(#a-p)"/>

  <!-- ReAct Loop: Observation → Thought -->
  <path d="M 1103,284 L 1103,308 L 755,308 L 755,284" stroke="#6b7280" stroke-width="1.5" stroke-dasharray="5,3" fill="none" marker-end="url(#a-r)"/>
  <rect x="880" y="298" width="96" height="16" rx="4" fill="#374151"/>
  <text x="928" y="310" text-anchor="middle" font-size="9" font-weight="600" fill="#fff">循环反馈</text>

  <!-- Agent operates via ReAct Loop (implied by vertical layout) -->

  <!-- Action → Function Calling (down) -->
  <path d="M 930,284 L 930,330 L 1057,330 L 1057,378" stroke="#a855f7" stroke-width="1.2" stroke-dasharray="5,3" fill="none" marker-end="url(#a-p)"/>
  <text x="948" y="326" font-size="8" fill="#7c3aed">调用工具</text>

  <!-- Memory -->
  <rect x="668" y="348" width="290" height="120" rx="8" fill="#f0fdfa" fill-opacity="0.4" stroke="#99f6e4" stroke-width="1" stroke-dasharray="5,3"/>
  <text x="686" y="366" font-size="10" font-weight="600" fill="#0891b2">记忆</text>

  <rect x="686" y="376" width="120" height="38" rx="6" fill="#fff" stroke="#22d3ee" stroke-width="1.2" filter="url(#sh)"/>
  <text x="746" y="395" text-anchor="middle" font-size="11" font-weight="600" fill="#0e7490">Memory</text>
  <text x="746" y="408" text-anchor="middle" font-size="8" fill="#0891b2">短期 + 长期管理</text>

  <rect x="686" y="424" width="120" height="38" rx="6" fill="#fff" stroke="#22d3ee" stroke-width="1.2" filter="url(#sh)"/>
  <text x="746" y="443" text-anchor="middle" font-size="11" font-weight="600" fill="#0e7490">Vector DB</text>
  <text x="746" y="456" text-anchor="middle" font-size="8" fill="#0891b2">长期存储</text>

  <rect x="822" y="400" width="118" height="38" rx="6" fill="#fff" stroke="#14b8a6" stroke-width="1.5" filter="url(#sh)"/>
  <text x="881" y="419" text-anchor="middle" font-size="11" font-weight="600" fill="#0f766e">RAG</text>
  <text x="881" y="432" text-anchor="middle" font-size="8" fill="#0d9488">检索增强生成</text>

  <line x1="746" y1="414" x2="746" y2="424" stroke="#06b6d4" stroke-width="1.2" marker-end="url(#a-c)"/>
  <path d="M 806,443 L 822,443 L 822,419" stroke="#06b6d4" stroke-width="1.2" fill="none" marker-end="url(#a-c)"/>

  <!-- Tools -->
  <rect x="975" y="348" width="307" height="120" rx="8" fill="#faf5ff" fill-opacity="0.5" stroke="#e9d5ff" stroke-width="1" stroke-dasharray="5,3"/>
  <text x="993" y="366" font-size="10" font-weight="600" fill="#7c3aed">工具</text>

  <rect x="993" y="378" width="128" height="38" rx="6" fill="#fff" stroke="#c084fc" stroke-width="1.2" filter="url(#sh)"/>
  <text x="1057" y="397" text-anchor="middle" font-size="11" font-weight="600" fill="#7c3aed">Function Calling</text>
  <text x="1057" y="410" text-anchor="middle" font-size="8" fill="#6b21a8">结构化调用</text>

  <rect x="993" y="426" width="100" height="38" rx="6" fill="#fff" stroke="#c084fc" stroke-width="1.2" filter="url(#sh)"/>
  <text x="1043" y="445" text-anchor="middle" font-size="11" font-weight="600" fill="#7c3aed">Tool</text>
  <text x="1043" y="458" text-anchor="middle" font-size="8" fill="#6b21a8">外部能力</text>

  <rect x="1113" y="426" width="90" height="38" rx="6" fill="#fff" stroke="#a855f7" stroke-width="1.2" filter="url(#sh)"/>
  <text x="1158" y="445" text-anchor="middle" font-size="11" font-weight="600" fill="#7c3aed">MCP</text>
  <text x="1158" y="458" text-anchor="middle" font-size="8" fill="#6b21a8">标准化协议</text>

  <path d="M 1057,416 L 1043,426" stroke="#a855f7" stroke-width="1.2" marker-end="url(#a-p)"/>
  <line x1="1093" y1="445" x2="1113" y2="445" stroke="#a855f7" stroke-width="1.2" marker-end="url(#a-p)"/>

  <!-- ═══════════════════════════════════════ -->
  <!-- CONTEXT WINDOW COMPOSITION               -->
  <!-- ═══════════════════════════════════════ -->
  <rect x="20" y="555" width="1260" height="85" rx="10" fill="#fffbeb" fill-opacity="0.5" stroke="#fbbf24" stroke-width="1.5" stroke-dasharray="6,3"/>
  <text x="40" y="575" font-size="11" font-weight="700" fill="#92400e">Context Window 组成</text>
  <text x="40" y="590" font-size="9" fill="#a16207">Agent 如何填充 LLM 的 Context Window</text>

  <rect x="230" y="570" width="100" height="36" rx="6" fill="#fff" stroke="#93c5fd" stroke-width="1.2"/>
  <text x="280" y="588" text-anchor="middle" font-size="10" font-weight="600" fill="#1e40af">Prompt</text>
  <text x="280" y="600" text-anchor="middle" font-size="7" fill="#3b82f6">用户指令</text>

  <rect x="352" y="570" width="110" height="36" rx="6" fill="#fff" stroke="#c084fc" stroke-width="1.2"/>
  <text x="407" y="588" text-anchor="middle" font-size="10" font-weight="600" fill="#7c3aed">Tool Schema</text>
  <text x="407" y="600" text-anchor="middle" font-size="7" fill="#6b21a8">函数定义</text>

  <rect x="484" y="570" width="110" height="36" rx="6" fill="#fff" stroke="#22d3ee" stroke-width="1.2"/>
  <text x="539" y="588" text-anchor="middle" font-size="10" font-weight="600" fill="#0e7490">Memory</text>
  <text x="539" y="600" text-anchor="middle" font-size="7" fill="#0891b2">记忆注入</text>

  <rect x="616" y="570" width="110" height="36" rx="6" fill="#fff" stroke="#14b8a6" stroke-width="1.2"/>
  <text x="671" y="588" text-anchor="middle" font-size="10" font-weight="600" fill="#0f766e">RAG</text>
  <text x="671" y="600" text-anchor="middle" font-size="7" fill="#0d9488">检索结果注入</text>

  <text x="770" y="592" font-size="18" fill="#92400e">→</text>
  <text x="795" y="592" font-size="10" font-weight="600" fill="#92400e">共同填充</text>

  <rect x="890" y="570" width="200" height="36" rx="8" fill="#f0fdfa" stroke="#22d3ee" stroke-width="2" filter="url(#sh)"/>
  <text x="990" y="589" text-anchor="middle" font-size="12" font-weight="700" fill="#0e7490">Context Window</text>
  <text x="990" y="601" text-anchor="middle" font-size="8" fill="#0891b2">LLM 输入 Token 上限</text>

  <line x1="845" y1="588" x2="890" y2="588" stroke="#92400e" stroke-width="1.5" marker-end="url(#a-y)"/>

  <!-- ═══════════════════════════════════════ -->
  <!-- BRIDGES                                  -->
  <!-- ═══════════════════════════════════════ -->

  <!-- Bridge 1: LLM (left) → LLM reasoning engine (right) -->
  <path d="M 440,372 C 560,372 580,164 686,164" stroke="#f97316" stroke-width="2.5" stroke-dasharray="8,4" fill="none" marker-end="url(#a-o)"/>
  <rect x="545" y="250" width="90" height="22" rx="5" fill="#1e1b4b" stroke="#f97316" stroke-width="1"/>
  <text x="590" y="265" text-anchor="middle" font-size="10" font-weight="700" fill="#fff">推理引擎</text>

  <!-- Bridge 2: Context Window (left) → Context Window (composition) -->
  <path d="M 295,484 L 295,540 L 990,540 L 990,570" stroke="#06b6d4" stroke-width="1.2" stroke-dasharray="4,3" fill="none" marker-end="url(#a-c)"/>
  <text x="580" y="536" font-size="8" fill="#0891b2">即 LLM 的输入容器</text>

  <!-- Annotation: Memory short-term = Context Window -->
  <text x="812" y="395" font-size="7" fill="#0891b2" font-style="italic">短期记忆 = Context Window</text>

  <!-- Annotation: Embedding → Vector DB -->
  <text x="195" y="310" font-size="7" fill="#7c3aed" font-style="italic">向量化存储 → Vector DB</text>

  <!-- ═══════════════════════════════════════ -->
  <!-- LEGEND                                   -->
  <!-- ═══════════════════════════════════════ -->
  <rect x="120" y="660" width="1060" height="40" rx="8" fill="#f9fafb" stroke="#e5e7eb" stroke-width="1"/>
  <line x1="140" y1="680" x2="170" y2="680" stroke="#3b82f6" stroke-width="1.5" marker-end="url(#a-b)"/>
  <text x="176" y="684" font-size="11" fill="#6b7280">数据流</text>
  <line x1="265" y1="680" x2="295" y2="680" stroke="#f97316" stroke-width="1.5" marker-end="url(#a-o)"/>
  <text x="301" y="684" font-size="11" fill="#6b7280">训练/桥接</text>
  <line x1="415" y1="680" x2="445" y2="680" stroke="#22c55e" stroke-width="1.5" marker-end="url(#a-g)"/>
  <text x="451" y="684" font-size="11" fill="#6b7280">Agent 流</text>
  <line x1="555" y1="680" x2="585" y2="680" stroke="#a855f7" stroke-width="1.5" marker-end="url(#a-p)"/>
  <text x="591" y="684" font-size="11" fill="#6b7280">协议/工具</text>
  <line x1="715" y1="680" x2="745" y2="680" stroke="#06b6d4" stroke-width="1.5" marker-end="url(#a-c)"/>
  <text x="751" y="684" font-size="11" fill="#6b7280">记忆/检索</text>
  <line x1="875" y1="680" x2="905" y2="680" stroke="#6b7280" stroke-width="1.5" stroke-dasharray="4,3" marker-end="url(#a-r)"/>
  <text x="911" y="684" font-size="11" fill="#6b7280">反馈/循环</text>

  <text x="1260" y="760" text-anchor="end" font-size="10" fill="#94a3b8">V11</text>
</svg>