<svg id="kity_svg_6" xmlns="http://www.w3.org/2000/svg" xmlns:xlink="http://www.w3.org/1999/xlink" version="1.1" width="581" height="692" style="background: rgb(251, 251, 251); visibility: visible;" viewBox="0 0 581 692"><defs id="kity_defs_7"><linearGradient id="kity_linearGradient_17" x1="0" y1="0" x2="0" y2="1"><stop id="kity_stop_18" offset="0" stop-color="rgb(255, 255, 255)"></stop><stop id="kity_stop_19" offset="1" stop-color="rgb(204, 204, 204)"></stop></linearGradient><marker id="kity_marker_2" orient="auto" refX="6" refY="0" viewBox="-7 -7 14 14" markerWidth="7" markerHeight="7" markerUnits="userSpaceOnUse"><path id="kity_path_3" fill="rgb(123, 115, 191)" stroke="none" d="M6,0A6,6,0,1,1,-6,0A6,6,0,1,1,6,0"></path></marker></defs><g id="kity_g_8"><g id="minder1" text-rendering="optimize-speed"><g id="minder_connect_group1"><path id="kity_path_238" fill="none" stroke="rgb(123, 115, 191)" stroke-width="1" d="M103.5000187382102,373.500010676682A99,285,0,0,1,202.5000187382102,88.500010676682"></path><path id="kity_path_248" fill="none" stroke="rgb(123, 115, 191)" stroke-width="1" d="M103.5000187382102,373.500010676682A99,133,0,0,1,202.5000187382102,240.500010676682"></path><path id="kity_path_258" fill="none" stroke="rgb(123, 115, 191)" stroke-width="1" d="M103.5000187382102,373.500010676682A99,1,0,0,0,202.5000187382102,374.500010676682"></path><path id="kity_path_272" fill="none" stroke="rgb(123, 115, 191)" stroke-width="1" d="M103.5000187382102,373.500010676682A99,117,0,0,0,202.5000187382102,490.500010676682"></path><path id="kity_path_286" fill="none" stroke="rgb(123, 115, 191)" stroke-width="1" d="M103.5000187382102,373.500010676682A99,197,0,0,0,202.5000187382102,570.500010676682"></path><path id="kity_path_290" fill="none" stroke="rgb(123, 115, 191)" stroke-width="1" d="M103.5000187382102,373.500010676682A99,241,0,0,0,202.5000187382102,614.500010676682"></path><path id="kity_path_294" fill="none" stroke="rgb(123, 115, 191)" stroke-width="1" d="M103.5000187382102,373.500010676682A99,285,0,0,0,202.5000187382102,658.500010676682"></path><path id="kity_path_540" fill="none" stroke="rgb(123, 115, 191)" stroke-width="1" d="M272.5000187382102,88.500010676682C280.5000187382102,88.500010676682,280.5000187382102,34.500010676681995,288.5000187382102,34.500010676681995"></path><path id="kity_path_541" fill="none" stroke="rgb(123, 115, 191)" stroke-width="1" d="M272.5000187382102,88.500010676682C280.5000187382102,88.500010676682,280.5000187382102,70.500010676682,288.5000187382102,70.500010676682"></path><path id="kity_path_542" fill="none" stroke="rgb(123, 115, 191)" stroke-width="1" d="M272.5000187382102,88.500010676682C280.5000187382102,88.500010676682,280.5000187382102,106.500010676682,288.5000187382102,106.500010676682"></path><path id="kity_path_543" fill="none" stroke="rgb(123, 115, 191)" stroke-width="1" d="M272.5000187382102,88.500010676682C280.5000187382102,88.500010676682,280.5000187382102,142.500010676682,288.5000187382102,142.500010676682"></path><path id="kity_path_544" fill="none" stroke="rgb(123, 115, 191)" stroke-width="1" d="M302.5000187382102,240.500010676682C310.5000187382102,240.500010676682,310.5000187382102,186.500010676682,318.5000187382102,186.500010676682"></path><path id="kity_path_545" fill="none" stroke="rgb(123, 115, 191)" stroke-width="1" d="M302.5000187382102,240.500010676682C310.5000187382102,240.500010676682,310.5000187382102,222.500010676682,318.5000187382102,222.500010676682"></path><path id="kity_path_546" fill="none" stroke="rgb(123, 115, 191)" stroke-width="1" d="M302.5000187382102,240.500010676682C310.5000187382102,240.500010676682,310.5000187382102,258.500010676682,318.5000187382102,258.500010676682"></path><path id="kity_path_547" fill="none" stroke="rgb(123, 115, 191)" stroke-width="1" d="M302.5000187382102,240.500010676682C310.5000187382102,240.500010676682,310.5000187382102,294.500010676682,318.5000187382102,294.500010676682"></path><path id="kity_path_548" fill="none" stroke="rgb(123, 115, 191)" stroke-width="1" d="M335.5000187382102,338.500010676682C343.5000187382102,338.500010676682,343.5000187382102,338.500010676682,351.5000187382102,338.500010676682"></path><path id="kity_path_549" fill="none" stroke="rgb(123, 115, 191)" stroke-width="1" d="M272.5000187382102,374.500010676682C280.5000187382102,374.500010676682,280.5000187382102,338.500010676682,288.5000187382102,338.500010676682"></path><path id="kity_path_550" fill="none" stroke="rgb(123, 115, 191)" stroke-width="1" d="M347.5000187382102,374.500010676682C355.5000187382102,374.500010676682,355.5000187382102,374.500010676682,363.5000187382102,374.500010676682"></path><path id="kity_path_551" fill="none" stroke="rgb(123, 115, 191)" stroke-width="1" d="M272.5000187382102,374.500010676682C280.5000187382102,374.500010676682,280.5000187382102,374.500010676682,288.5000187382102,374.500010676682"></path><path id="kity_path_552" fill="none" stroke="rgb(123, 115, 191)" stroke-width="1" d="M334.5000187382102,410.500010676682C342.5000187382102,410.500010676682,342.5000187382102,410.500010676682,350.5000187382102,410.500010676682"></path><path id="kity_path_553" fill="none" stroke="rgb(123, 115, 191)" stroke-width="1" d="M272.5000187382102,374.500010676682C280.5000187382102,374.500010676682,280.5000187382102,410.500010676682,288.5000187382102,410.500010676682"></path><path id="kity_path_554" fill="none" stroke="rgb(123, 115, 191)" stroke-width="1" d="M384.5000187382102,454.500010676682C392.5000187382102,454.500010676682,392.5000187382102,454.500010676682,400.5000187382102,454.500010676682"></path><path id="kity_path_555" fill="none" stroke="rgb(123, 115, 191)" stroke-width="1" d="M296.5000187382102,490.500010676682C304.5000187382102,490.500010676682,304.5000187382102,454.500010676682,312.5000187382102,454.500010676682"></path><path id="kity_path_556" fill="none" stroke="rgb(123, 115, 191)" stroke-width="1" d="M348.5000187382102,490.500010676682C356.5000187382102,490.500010676682,356.5000187382102,490.500010676682,364.5000187382102,490.500010676682"></path><path id="kity_path_557" fill="none" stroke="rgb(123, 115, 191)" stroke-width="1" d="M296.5000187382102,490.500010676682C304.5000187382102,490.500010676682,304.5000187382102,490.500010676682,312.5000187382102,490.500010676682"></path><path id="kity_path_558" fill="none" stroke="rgb(123, 115, 191)" stroke-width="1" d="M348.5000187382102,526.500010676682C356.5000187382102,526.500010676682,356.5000187382102,526.500010676682,364.5000187382102,526.500010676682"></path><path id="kity_path_559" fill="none" stroke="rgb(123, 115, 191)" stroke-width="1" d="M296.5000187382102,490.500010676682C304.5000187382102,490.500010676682,304.5000187382102,526.500010676682,312.5000187382102,526.500010676682"></path><path id="kity_path_560" fill="none" stroke="rgb(123, 115, 191)" stroke-width="1" d="M302.5000187382102,570.500010676682C310.5000187382102,570.500010676682,310.5000187382102,570.500010676682,318.5000187382102,570.500010676682"></path><path id="kity_path_561" fill="none" stroke="rgb(123, 115, 191)" stroke-width="1" d="M273.5000187382102,614.500010676682C281.5000187382102,614.500010676682,281.5000187382102,614.500010676682,289.5000187382102,614.500010676682"></path><path id="kity_path_562" fill="none" stroke="rgb(123, 115, 191)" stroke-width="1" d="M314.5000187382102,658.500010676682C322.5000187382102,658.500010676682,322.5000187382102,658.500010676682,330.5000187382102,658.500010676682"></path></g><g id="minder_node1"><path id="node_outline1" fill="rgb(123, 115, 191)" stroke="rgb(123, 115, 191)" d="M25.5000187382102,356.500010676682h156a5,5,0,0,1,5,5v24a5,5,0,0,1,-5,5h-156a5,5,0,0,1,-5,-5v-24a5,5,0,0,1,5,-5z" stroke-width="3"></path><g id="node_text1" fill="white"><text id="kity_text_22" text-rendering="inherit" font-size="16" dy=".8em" y="363.1000106409192" x="32.5000187382102">基类Geometry</text></g><a id="kity_a_537" xlink:href="http://www.yanhuangxueyuan.com/threejs/docs/index.html#api/zh/core/Geometry" target="_blank" xlink:title="http://www.yanhuangxueyuan.com/threejs/docs/index.html#api/zh/core/Geometry" style="cursor: pointer;"><path id="kity_path_539" fill="rgba(255, 255, 255, 0)" stroke="none" d="M154.50002052634954,362.5000106021762h16a4,4,0,0,1,4,4v14a4,4,0,0,1,-4,4h-16a4,4,0,0,1,-4,-4v-14a4,4,0,0,1,4,-4z"></path><path id="kity_path_538" fill="#666" stroke="none" d="M169.11402052634955,378.7240106021762h-1.278c-1.668,0,-3.07,-1.07,-3.599,-2.556h4.877c0.707,0,1.278,-0.571,1.278,-1.278V372.3340106021762c0,-0.707,-0.571,-1.278,-1.278,-1.278h-4.877C164.76602052634954,369.5710106021762,166.16802052634955,368.5000106021762,167.83602052634956,368.5000106021762h1.278c2.116,0,3.834,1.716,3.834,3.834V374.8900106021762C172.94802052634955,377.00801060217617,171.23002052634953,378.7240106021762,169.11402052634955,378.7240106021762zM157.61202052634954,373.6120106021762c0,-0.707,0.573,-1.278,1.278,-1.278h7.668c0.707,0,1.278,0.571,1.278,1.278S167.26502052634953,374.8900106021762,166.55802052634954,374.8900106021762H158.89002052634953C158.18502052634955,374.8900106021762,157.61202052634954,374.3190106021762,157.61202052634954,373.6120106021762zM155.05602052634956,372.3340106021762V374.8900106021762c0,0.707,0.573,1.278,1.278,1.278h4.877c-0.528,1.486,-1.932,2.556,-3.599,2.556H156.33402052634955C154.21602052634955,378.7240106021762,152.50002052634954,377.00801060217617,152.50002052634954,374.8900106021762V372.3340106021762C152.50002052634954,370.2160106021762,154.21602052634955,368.5000106021762,156.33402052634955,368.5000106021762h1.278c1.667,0,3.071,1.071,3.599,2.556H156.33402052634955C155.62902052634954,371.0560106021762,155.05602052634956,371.6270106021762,155.05602052634956,372.3340106021762z"></path></a></g><g id="kity_g_14" display="none"><path id="kity_path_15" fill="none" stroke="none" d="M32.5000187382102,373.500010676682h0v0h0z"></path><path id="kity_path_16" fill="none" stroke="none"></path></g><g id="minder_node26" opacity="1"><g id="node_expander29" style="cursor: pointer;"><path id="kity_path_460" fill="white" stroke="gray" d="M203.5000211969018,88.50000642985106A6,6,0,1,1,191.5000211969018,88.50000642985106A6,6,0,1,1,203.5000211969018,88.50000642985106"></path><path id="kity_path_461" fill="none" stroke="gray" d="M193.0000211969018,88.50000642985106L202.0000211969018,88.50000642985106"></path></g><path id="node_outline30" fill="rgb(239, 238, 246)" stroke="rgb(123, 115, 191)" d="M207.50002159923315,75.50000642985106h62a3,3,0,0,1,3,3v20a3,3,0,0,1,-3,3h-62a3,3,0,0,1,-3,-3v-20a3,3,0,0,1,3,-3z" stroke-width="1"></path><g id="node_text30" fill="black"><text id="kity_text_315" text-rendering="inherit" font-size="14" dy=".8em" y="79.40000639855862" x="224.50002159923315">常见</text></g></g><g id="minder_node31" opacity="1"><g id="node_expander34" style="cursor: pointer;"><path id="kity_path_475" fill="white" stroke="gray" d="M203.5000211969018,240.50000869482756A6,6,0,1,1,191.5000211969018,240.50000869482756A6,6,0,1,1,203.5000211969018,240.50000869482756"></path><path id="kity_path_476" fill="none" stroke="gray" d="M193.0000211969018,240.50000869482756L202.0000211969018,240.50000869482756"></path></g><path id="node_outline35" fill="rgb(239, 238, 246)" stroke="rgb(123, 115, 191)" d="M207.50002159923315,227.50000869482756h92a3,3,0,0,1,3,3v20a3,3,0,0,1,-3,3h-92a3,3,0,0,1,-3,-3v-20a3,3,0,0,1,3,-3z" stroke-width="1"></path><g id="node_text35" fill="black"><text id="kity_text_325" text-rendering="inherit" font-size="14" dy=".8em" y="231.40000866353512" x="224.50002159923315">正多面体</text></g></g><g id="minder_node36" opacity="1"><g id="node_expander41" style="cursor: pointer;"><path id="kity_path_496" fill="white" stroke="gray" d="M203.5000211969018,374.50001069158316A6,6,0,1,1,191.5000211969018,374.50001069158316A6,6,0,1,1,203.5000211969018,374.50001069158316"></path><path id="kity_path_497" fill="none" stroke="gray" d="M193.0000211969018,374.50001069158316L202.0000211969018,374.50001069158316"></path></g><path id="node_outline42" fill="rgb(239, 238, 246)" stroke="rgb(123, 115, 191)" d="M207.50002159923315,361.50001069158316h62a3,3,0,0,1,3,3v20a3,3,0,0,1,-3,3h-62a3,3,0,0,1,-3,-3v-20a3,3,0,0,1,3,-3z" stroke-width="1"></path><g id="node_text42" fill="black"><text id="kity_text_339" text-rendering="inherit" font-size="14" dy=".8em" y="365.4000106602907" x="224.50002159923315">平面</text></g></g><g id="minder_node43" opacity="1"><g id="node_expander48" style="cursor: pointer;"><path id="kity_path_517" fill="white" stroke="gray" d="M203.5000211969018,490.50001242011786A6,6,0,1,1,191.5000211969018,490.50001242011786A6,6,0,1,1,203.5000211969018,490.50001242011786"></path><path id="kity_path_518" fill="none" stroke="gray" d="M193.0000211969018,490.50001242011786L202.0000211969018,490.50001242011786"></path></g><path id="node_outline49" fill="rgb(239, 238, 246)" stroke="rgb(123, 115, 191)" d="M207.50002159923315,477.50001242011786h86a3,3,0,0,1,3,3v20a3,3,0,0,1,-3,3h-86a3,3,0,0,1,-3,-3v-20a3,3,0,0,1,3,-3z" stroke-width="1"></path><g id="node_text49" fill="black"><text id="kity_text_353" text-rendering="inherit" font-size="14" dy=".8em" y="481.4000123888254" x="224.50002159923315">2D转3D</text></g></g><g id="minder_node50" opacity="1"><g id="node_expander50" style="cursor: pointer;"><path id="kity_path_523" fill="white" stroke="gray" d="M203.5000211969018,570.5000136122108A6,6,0,1,1,191.5000211969018,570.5000136122108A6,6,0,1,1,203.5000211969018,570.5000136122108"></path><path id="kity_path_524" fill="none" stroke="gray" d="M193.0000211969018,570.5000136122108L202.0000211969018,570.5000136122108"></path></g><path id="node_outline51" fill="rgb(239, 238, 246)" stroke="rgb(123, 115, 191)" d="M207.50002159923315,557.5000136122108h92a3,3,0,0,1,3,3v20a3,3,0,0,1,-3,3h-92a3,3,0,0,1,-3,-3v-20a3,3,0,0,1,3,-3z" stroke-width="1"></path><g id="node_text51" fill="black"><text id="kity_text_357" text-rendering="inherit" font-size="14" dy=".8em" y="561.4000135809183" x="224.50002159923315">轮廓填充</text></g></g><g id="minder_node52" opacity="1"><g id="node_expander52" style="cursor: pointer;"><path id="kity_path_529" fill="white" stroke="gray" d="M203.5000211969018,614.5000142678618A6,6,0,1,1,191.5000211969018,614.5000142678618A6,6,0,1,1,203.5000211969018,614.5000142678618"></path><path id="kity_path_530" fill="none" stroke="gray" d="M193.0000211969018,614.5000142678618L202.0000211969018,614.5000142678618"></path></g><path id="node_outline53" fill="rgb(239, 238, 246)" stroke="rgb(123, 115, 191)" d="M207.50002159923315,601.5000142678618h63a3,3,0,0,1,3,3v20a3,3,0,0,1,-3,3h-63a3,3,0,0,1,-3,-3v-20a3,3,0,0,1,3,-3z" stroke-width="1"></path><g id="node_text53" fill="black"><text id="kity_text_361" text-rendering="inherit" font-size="14" dy=".8em" y="605.4000142365694" x="224.50002159923315">文字</text></g></g><g id="minder_node54" opacity="1"><g id="node_expander54" style="cursor: pointer;"><path id="kity_path_535" fill="white" stroke="gray" d="M203.5000211969018,658.5000149235129A6,6,0,1,1,191.5000211969018,658.5000149235129A6,6,0,1,1,203.5000211969018,658.5000149235129"></path><path id="kity_path_536" fill="none" stroke="gray" d="M193.0000211969018,658.5000149235129L202.0000211969018,658.5000149235129"></path></g><path id="node_outline55" fill="rgb(239, 238, 246)" stroke="rgb(123, 115, 191)" d="M207.50002159923315,645.5000149235129h104a3,3,0,0,1,3,3v20a3,3,0,0,1,-3,3h-104a3,3,0,0,1,-3,-3v-20a3,3,0,0,1,3,-3z" stroke-width="1"></path><g id="node_text55" fill="black"><text id="kity_text_365" text-rendering="inherit" font-size="14" dy=".8em" y="649.4000148922205" x="224.50002159923315">参数化曲面</text></g></g><g id="minder_node27"><g id="node_expander25" style="cursor: pointer;" display="none"><path id="kity_path_448" fill="white" stroke="gray" d="M288.5000224635005,34.50000562518835A6,6,0,1,1,276.5000224635005,34.50000562518835A6,6,0,1,1,288.5000224635005,34.50000562518835"></path><path id="kity_path_449" fill="none" stroke="gray"></path></g><path id="node_outline26" fill="none" stroke="none" d="M293.5000226274133,20.50000562518835h144a5,5,0,0,1,5,5v18a5,5,0,0,1,-5,5h-144a5,5,0,0,1,-5,-5v-18a5,5,0,0,1,5,-5z"></path><g id="node_text26" fill="black"><text id="kity_text_307" text-rendering="inherit" font-size="12" dy=".8em" y="26.70000559836626" x="293.5000226274133">长方体BoxGeometry</text></g><a id="kity_a_366" xlink:href="http://www.yanhuangxueyuan.com/threejs/docs/index.html#api/zh/geometries/BoxGeometry" target="_blank" xlink:title="http://www.yanhuangxueyuan.com/threejs/docs/index.html#api/zh/geometries/BoxGeometry" style="cursor: pointer;"><path id="kity_path_368" fill="rgba(255, 255, 255, 0)" stroke="none" d="M417.50002444535494,23.500005550682545h16a4,4,0,0,1,4,4v14a4,4,0,0,1,-4,4h-16a4,4,0,0,1,-4,-4v-14a4,4,0,0,1,4,-4z"></path><path id="kity_path_367" fill="#666" stroke="none" d="M432.1140244453549,39.72400555068255h-1.278c-1.668,0,-3.07,-1.07,-3.599,-2.556h4.877c0.707,0,1.278,-0.571,1.278,-1.278V33.33400555068255c0,-0.707,-0.571,-1.278,-1.278,-1.278h-4.877C427.76602444535496,30.571005550682546,429.16802444535494,29.500005550682545,430.83602444535495,29.500005550682545h1.278c2.116,0,3.834,1.716,3.834,3.834V35.890005550682545C435.9480244453549,38.00800555068254,434.23002444535496,39.72400555068255,432.1140244453549,39.72400555068255zM420.61202444535496,34.61200555068255c0,-0.707,0.573,-1.278,1.278,-1.278h7.668c0.707,0,1.278,0.571,1.278,1.278S430.2650244453549,35.890005550682545,429.55802444535493,35.890005550682545H421.8900244453549C421.18502444535494,35.890005550682545,420.61202444535496,35.31900555068255,420.61202444535496,34.61200555068255zM418.0560244453549,33.33400555068255V35.890005550682545c0,0.707,0.573,1.278,1.278,1.278h4.877c-0.528,1.486,-1.932,2.556,-3.599,2.556H419.33402444535494C417.21602444535495,39.72400555068255,415.50002444535494,38.00800555068254,415.50002444535494,35.890005550682545V33.33400555068255C415.50002444535494,31.216005550682546,417.21602444535495,29.500005550682545,419.33402444535494,29.500005550682545h1.278c1.667,0,3.071,1.071,3.599,2.556H419.33402444535494C418.62902444535496,32.05600555068254,418.0560244453549,32.62700555068255,418.0560244453549,33.33400555068255z"></path></a></g><g id="minder_node28"><g id="node_expander26" style="cursor: pointer;" display="none"><path id="kity_path_451" fill="white" stroke="gray" d="M288.5000224635005,70.50000616163015A6,6,0,1,1,276.5000224635005,70.50000616163015A6,6,0,1,1,288.5000224635005,70.50000616163015"></path><path id="kity_path_452" fill="none" stroke="gray"></path></g><path id="node_outline27" fill="none" stroke="none" d="M293.5000226274133,56.500006161630154h170a5,5,0,0,1,5,5v18a5,5,0,0,1,-5,5h-170a5,5,0,0,1,-5,-5v-18a5,5,0,0,1,5,-5z"></path><g id="node_text27" fill="black"><text id="kity_text_309" text-rendering="inherit" font-size="12" dy=".8em" y="62.70000613480806" x="293.5000226274133">圆柱体CylinderGeometry</text></g><a id="kity_a_369" xlink:href="http://www.yanhuangxueyuan.com/threejs/docs/index.html#api/zh/geometries/CylinderGeometry" target="_blank" xlink:title="http://www.yanhuangxueyuan.com/threejs/docs/index.html#api/zh/geometries/CylinderGeometry" style="cursor: pointer;"><path id="kity_path_371" fill="rgba(255, 255, 255, 0)" stroke="none" d="M443.50002483278513,59.50000608712435h16a4,4,0,0,1,4,4v14a4,4,0,0,1,-4,4h-16a4,4,0,0,1,-4,-4v-14a4,4,0,0,1,4,-4z"></path><path id="kity_path_370" fill="#666" stroke="none" d="M458.1140248327851,75.72400608712435h-1.278c-1.668,0,-3.07,-1.07,-3.599,-2.556h4.877c0.707,0,1.278,-0.571,1.278,-1.278V69.33400608712435c0,-0.707,-0.571,-1.278,-1.278,-1.278h-4.877C453.76602483278515,66.57100608712435,455.16802483278514,65.50000608712435,456.83602483278514,65.50000608712435h1.278c2.116,0,3.834,1.716,3.834,3.834V71.89000608712435C461.9480248327851,74.00800608712434,460.23002483278515,75.72400608712435,458.1140248327851,75.72400608712435zM446.61202483278515,70.61200608712434c0,-0.707,0.573,-1.278,1.278,-1.278h7.668c0.707,0,1.278,0.571,1.278,1.278S456.2650248327851,71.89000608712435,455.5580248327851,71.89000608712435H447.8900248327851C447.18502483278513,71.89000608712435,446.61202483278515,71.31900608712435,446.61202483278515,70.61200608712434zM444.0560248327851,69.33400608712435V71.89000608712435c0,0.707,0.573,1.278,1.278,1.278h4.877c-0.528,1.486,-1.932,2.556,-3.599,2.556H445.33402483278513C443.21602483278514,75.72400608712435,441.50002483278513,74.00800608712434,441.50002483278513,71.89000608712435V69.33400608712435C441.50002483278513,67.21600608712434,443.21602483278514,65.50000608712435,445.33402483278513,65.50000608712435h1.278c1.667,0,3.071,1.071,3.599,2.556H445.33402483278513C444.62902483278515,68.05600608712435,444.0560248327851,68.62700608712434,444.0560248327851,69.33400608712435z"></path></a></g><g id="minder_node29"><g id="node_expander27" style="cursor: pointer;" display="none"><path id="kity_path_454" fill="white" stroke="gray" d="M288.5000224635005,106.50000669807196A6,6,0,1,1,276.5000224635005,106.50000669807196A6,6,0,1,1,288.5000224635005,106.50000669807196"></path><path id="kity_path_455" fill="none" stroke="gray"></path></g><path id="node_outline28" fill="none" stroke="none" d="M293.5000226274133,92.50000669807196h152a5,5,0,0,1,5,5v18a5,5,0,0,1,-5,5h-152a5,5,0,0,1,-5,-5v-18a5,5,0,0,1,5,-5z"></path><g id="node_text28" fill="black"><text id="kity_text_311" text-rendering="inherit" font-size="12" dy=".8em" y="98.70000667124987" x="293.5000226274133">球体SphereGeometry</text></g><a id="kity_a_372" xlink:href="http://www.yanhuangxueyuan.com/threejs/docs/index.html#api/zh/geometries/SphereGeometry" target="_blank" xlink:title="http://www.yanhuangxueyuan.com/threejs/docs/index.html#api/zh/geometries/SphereGeometry" style="cursor: pointer;"><path id="kity_path_374" fill="rgba(255, 255, 255, 0)" stroke="none" d="M425.5000245645642,95.50000662356615h16a4,4,0,0,1,4,4v14a4,4,0,0,1,-4,4h-16a4,4,0,0,1,-4,-4v-14a4,4,0,0,1,4,-4z"></path><path id="kity_path_373" fill="#666" stroke="none" d="M440.1140245645642,111.72400662356615h-1.278c-1.668,0,-3.07,-1.07,-3.599,-2.556h4.877c0.707,0,1.278,-0.571,1.278,-1.278V105.33400662356615c0,-0.707,-0.571,-1.278,-1.278,-1.278h-4.877C435.76602456456425,102.57100662356615,437.16802456456423,101.50000662356615,438.83602456456424,101.50000662356615h1.278c2.116,0,3.834,1.716,3.834,3.834V107.89000662356615C443.9480245645642,110.00800662356615,442.23002456456425,111.72400662356615,440.1140245645642,111.72400662356615zM428.61202456456425,106.61200662356615c0,-0.707,0.573,-1.278,1.278,-1.278h7.668c0.707,0,1.278,0.571,1.278,1.278S438.2650245645642,107.89000662356615,437.5580245645642,107.89000662356615H429.8900245645642C429.18502456456423,107.89000662356615,428.61202456456425,107.31900662356615,428.61202456456425,106.61200662356615zM426.0560245645642,105.33400662356615V107.89000662356615c0,0.707,0.573,1.278,1.278,1.278h4.877c-0.528,1.486,-1.932,2.556,-3.599,2.556H427.33402456456423C425.21602456456424,111.72400662356615,423.5000245645642,110.00800662356615,423.5000245645642,107.89000662356615V105.33400662356615C423.5000245645642,103.21600662356614,425.21602456456424,101.50000662356615,427.33402456456423,101.50000662356615h1.278c1.667,0,3.071,1.071,3.599,2.556H427.33402456456423C426.62902456456425,104.05600662356615,426.0560245645642,104.62700662356615,426.0560245645642,105.33400662356615z"></path></a></g><g id="minder_node30"><g id="node_expander28" style="cursor: pointer;" display="none"><path id="kity_path_457" fill="white" stroke="gray" d="M288.5000224635005,142.50000723451376A6,6,0,1,1,276.5000224635005,142.50000723451376A6,6,0,1,1,288.5000224635005,142.50000723451376"></path><path id="kity_path_458" fill="none" stroke="gray"></path></g><path id="node_outline29" fill="none" stroke="none" d="M293.5000226274133,128.50000723451376h177a5,5,0,0,1,5,5v18a5,5,0,0,1,-5,5h-177a5,5,0,0,1,-5,-5v-18a5,5,0,0,1,5,-5z"></path><g id="node_text29" fill="black"><text id="kity_text_313" text-rendering="inherit" font-size="12" dy=".8em" y="134.70000720769167" x="293.5000226274133">圆锥、棱锥ConeGeometry</text></g><a id="kity_a_375" xlink:href="http://www.yanhuangxueyuan.com/threejs/docs/index.html#api/zh/geometries/ConeGeometry" target="_blank" xlink:title="http://www.yanhuangxueyuan.com/threejs/docs/index.html#api/zh/geometries/ConeGeometry" style="cursor: pointer;"><path id="kity_path_377" fill="rgba(255, 255, 255, 0)" stroke="none" d="M450.50002493709326,131.50000716000795h16a4,4,0,0,1,4,4v14a4,4,0,0,1,-4,4h-16a4,4,0,0,1,-4,-4v-14a4,4,0,0,1,4,-4z"></path><path id="kity_path_376" fill="#666" stroke="none" d="M465.11402493709323,147.72400716000794h-1.278c-1.668,0,-3.07,-1.07,-3.599,-2.556h4.877c0.707,0,1.278,-0.571,1.278,-1.278V141.33400716000796c0,-0.707,-0.571,-1.278,-1.278,-1.278h-4.877C460.7660249370933,138.57100716000795,462.16802493709326,137.50000716000795,463.83602493709327,137.50000716000795h1.278c2.116,0,3.834,1.716,3.834,3.834V143.89000716000794C468.94802493709324,146.00800716000796,467.2300249370933,147.72400716000794,465.11402493709323,147.72400716000794zM453.6120249370933,142.61200716000795c0,-0.707,0.573,-1.278,1.278,-1.278h7.668c0.707,0,1.278,0.571,1.278,1.278S463.26502493709324,143.89000716000794,462.55802493709325,143.89000716000794H454.89002493709324C454.18502493709326,143.89000716000794,453.6120249370933,143.31900716000794,453.6120249370933,142.61200716000795zM451.05602493709324,141.33400716000796V143.89000716000794c0,0.707,0.573,1.278,1.278,1.278h4.877c-0.528,1.486,-1.932,2.556,-3.599,2.556H452.33402493709326C450.21602493709327,147.72400716000794,448.50002493709326,146.00800716000796,448.50002493709326,143.89000716000794V141.33400716000796C448.50002493709326,139.21600716000796,450.21602493709327,137.50000716000795,452.33402493709326,137.50000716000795h1.278c1.667,0,3.071,1.071,3.599,2.556H452.33402493709326C451.6290249370933,140.05600716000797,451.05602493709324,140.62700716000796,451.05602493709324,141.33400716000796z"></path></a></g><g id="minder_node32"><g id="node_expander30" style="cursor: pointer;" display="none"><path id="kity_path_463" fill="white" stroke="gray" d="M318.50002291053534,186.50000789016485A6,6,0,1,1,306.50002291053534,186.50000789016485A6,6,0,1,1,318.50002291053534,186.50000789016485"></path><path id="kity_path_464" fill="none" stroke="gray"></path></g><path id="node_outline31" fill="none" stroke="none" d="M323.5000230744481,172.50000789016485h206a5,5,0,0,1,5,5v18a5,5,0,0,1,-5,5h-206a5,5,0,0,1,-5,-5v-18a5,5,0,0,1,5,-5z"></path><g id="node_text31" fill="black"><text id="kity_text_317" text-rendering="inherit" font-size="12" dy=".8em" y="178.70000786334276" x="323.5000230744481">正四面体TetrahedronGeometry</text></g><a id="kity_a_378" xlink:href="http://www.yanhuangxueyuan.com/threejs/docs/index.html#api/zh/geometries/TetrahedronGeometry" target="_blank" xlink:title="http://www.yanhuangxueyuan.com/threejs/docs/index.html#api/zh/geometries/TetrahedronGeometry" style="cursor: pointer;"><path id="kity_path_380" fill="rgba(255, 255, 255, 0)" stroke="none" d="M509.50002581626177,175.50000781565905h16a4,4,0,0,1,4,4v14a4,4,0,0,1,-4,4h-16a4,4,0,0,1,-4,-4v-14a4,4,0,0,1,4,-4z"></path><path id="kity_path_379" fill="#666" stroke="none" d="M524.1140258162618,191.72400781565904h-1.278c-1.668,0,-3.07,-1.07,-3.599,-2.556h4.877c0.707,0,1.278,-0.571,1.278,-1.278V185.33400781565905c0,-0.707,-0.571,-1.278,-1.278,-1.278h-4.877C519.7660258162617,182.57100781565904,521.1680258162618,181.50000781565905,522.8360258162618,181.50000781565905h1.278c2.116,0,3.834,1.716,3.834,3.834V187.89000781565903C527.9480258162617,190.00800781565906,526.2300258162618,191.72400781565904,524.1140258162618,191.72400781565904zM512.6120258162617,186.61200781565904c0,-0.707,0.573,-1.278,1.278,-1.278h7.668c0.707,0,1.278,0.571,1.278,1.278S522.2650258162618,187.89000781565903,521.5580258162618,187.89000781565903H513.8900258162618C513.1850258162617,187.89000781565903,512.6120258162617,187.31900781565903,512.6120258162617,186.61200781565904zM510.05602581626175,185.33400781565905V187.89000781565903c0,0.707,0.573,1.278,1.278,1.278h4.877c-0.528,1.486,-1.932,2.556,-3.599,2.556H511.33402581626177C509.2160258162618,191.72400781565904,507.50002581626177,190.00800781565906,507.50002581626177,187.89000781565903V185.33400781565905C507.50002581626177,183.21600781565905,509.2160258162618,181.50000781565905,511.33402581626177,181.50000781565905h1.278c1.667,0,3.071,1.071,3.599,2.556H511.33402581626177C510.6290258162618,184.05600781565906,510.05602581626175,184.62700781565906,510.05602581626175,185.33400781565905z"></path></a></g><g id="minder_node33"><g id="node_expander31" style="cursor: pointer;" display="none"><path id="kity_path_466" fill="white" stroke="gray" d="M318.50002291053534,222.50000842660666A6,6,0,1,1,306.50002291053534,222.50000842660666A6,6,0,1,1,318.50002291053534,222.50000842660666"></path><path id="kity_path_467" fill="none" stroke="gray"></path></g><path id="node_outline32" fill="none" stroke="none" d="M323.5000230744481,208.50000842660666h204a5,5,0,0,1,5,5v18a5,5,0,0,1,-5,5h-204a5,5,0,0,1,-5,-5v-18a5,5,0,0,1,5,-5z"></path><g id="node_text32" fill="black"><text id="kity_text_319" text-rendering="inherit" font-size="12" dy=".8em" y="214.70000839978456" x="323.5000230744481">正八面体OctahedronGeometry</text></g><a id="kity_a_381" xlink:href="http://www.yanhuangxueyuan.com/threejs/docs/index.html#api/zh/geometries/OctahedronGeometry" target="_blank" xlink:title="http://www.yanhuangxueyuan.com/threejs/docs/index.html#api/zh/geometries/OctahedronGeometry" style="cursor: pointer;"><path id="kity_path_383" fill="rgba(255, 255, 255, 0)" stroke="none" d="M507.50002578645945,211.50000835210085h16a4,4,0,0,1,4,4v14a4,4,0,0,1,-4,4h-16a4,4,0,0,1,-4,-4v-14a4,4,0,0,1,4,-4z"></path><path id="kity_path_382" fill="#666" stroke="none" d="M522.1140257864595,227.72400835210084h-1.278c-1.668,0,-3.07,-1.07,-3.599,-2.556h4.877c0.707,0,1.278,-0.571,1.278,-1.278V221.33400835210085c0,-0.707,-0.571,-1.278,-1.278,-1.278h-4.877C517.7660257864594,218.57100835210085,519.1680257864595,217.50000835210085,520.8360257864595,217.50000835210085h1.278c2.116,0,3.834,1.716,3.834,3.834V223.89000835210084C525.9480257864594,226.00800835210086,524.2300257864595,227.72400835210084,522.1140257864595,227.72400835210084zM510.61202578645947,222.61200835210084c0,-0.707,0.573,-1.278,1.278,-1.278h7.668c0.707,0,1.278,0.571,1.278,1.278S520.2650257864594,223.89000835210084,519.5580257864594,223.89000835210084H511.89002578645943C511.18502578645945,223.89000835210084,510.61202578645947,223.31900835210084,510.61202578645947,222.61200835210084zM508.05602578645943,221.33400835210085V223.89000835210084c0,0.707,0.573,1.278,1.278,1.278h4.877c-0.528,1.486,-1.932,2.556,-3.599,2.556H509.33402578645945C507.21602578645945,227.72400835210084,505.50002578645945,226.00800835210086,505.50002578645945,223.89000835210084V221.33400835210085C505.50002578645945,219.21600835210086,507.21602578645945,217.50000835210085,509.33402578645945,217.50000835210085h1.278c1.667,0,3.071,1.071,3.599,2.556H509.33402578645945C508.62902578645947,220.05600835210086,508.05602578645943,220.62700835210086,508.05602578645943,221.33400835210085z"></path></a></g><g id="minder_node34"><g id="node_expander32" style="cursor: pointer;" display="none"><path id="kity_path_469" fill="white" stroke="gray" d="M318.50002291053534,258.50000896304846A6,6,0,1,1,306.50002291053534,258.50000896304846A6,6,0,1,1,318.50002291053534,258.50000896304846"></path><path id="kity_path_470" fill="none" stroke="gray"></path></g><path id="node_outline33" fill="none" stroke="none" d="M323.5000230744481,244.50000896304846h233a5,5,0,0,1,5,5v18a5,5,0,0,1,-5,5h-233a5,5,0,0,1,-5,-5v-18a5,5,0,0,1,5,-5z"></path><g id="node_text33" fill="black"><text id="kity_text_321" text-rendering="inherit" font-size="12" dy=".8em" y="250.70000893622637" x="323.5000230744481">正十二面体DodecahedronGeometry</text></g><a id="kity_a_384" xlink:href="http://www.yanhuangxueyuan.com/threejs/docs/index.html#api/zh/geometries/DodecahedronGeometry" target="_blank" xlink:title="http://www.yanhuangxueyuan.com/threejs/docs/index.html#api/zh/geometries/DodecahedronGeometry" style="cursor: pointer;"><path id="kity_path_386" fill="rgba(255, 255, 255, 0)" stroke="none" d="M536.5000262185931,247.50000888854265h16a4,4,0,0,1,4,4v14a4,4,0,0,1,-4,4h-16a4,4,0,0,1,-4,-4v-14a4,4,0,0,1,4,-4z"></path><path id="kity_path_385" fill="#666" stroke="none" d="M551.1140262185932,263.72400888854264h-1.278c-1.668,0,-3.07,-1.07,-3.599,-2.556h4.877c0.707,0,1.278,-0.571,1.278,-1.278V257.33400888854266c0,-0.707,-0.571,-1.278,-1.278,-1.278h-4.877C546.7660262185931,254.57100888854265,548.1680262185931,253.50000888854265,549.8360262185931,253.50000888854265h1.278c2.116,0,3.834,1.716,3.834,3.834V259.89000888854264C554.9480262185931,262.00800888854263,553.2300262185931,263.72400888854264,551.1140262185932,263.72400888854264zM539.6120262185931,258.6120088885427c0,-0.707,0.573,-1.278,1.278,-1.278h7.668c0.707,0,1.278,0.571,1.278,1.278S549.2650262185931,259.89000888854264,548.5580262185931,259.89000888854264H540.8900262185931C540.1850262185931,259.89000888854264,539.6120262185931,259.31900888854267,539.6120262185931,258.6120088885427zM537.0560262185932,257.33400888854266V259.89000888854264c0,0.707,0.573,1.278,1.278,1.278h4.877c-0.528,1.486,-1.932,2.556,-3.599,2.556H538.3340262185931C536.2160262185931,263.72400888854264,534.5000262185931,262.00800888854263,534.5000262185931,259.89000888854264V257.33400888854266C534.5000262185931,255.21600888854266,536.2160262185931,253.50000888854265,538.3340262185931,253.50000888854265h1.278c1.667,0,3.071,1.071,3.599,2.556H538.3340262185931C537.6290262185931,256.05600888854264,537.0560262185932,256.62700888854266,537.0560262185932,257.33400888854266z"></path></a></g><g id="minder_node35"><g id="node_expander33" style="cursor: pointer;" display="none"><path id="kity_path_472" fill="white" stroke="gray" d="M318.50002291053534,294.50000949949026A6,6,0,1,1,306.50002291053534,294.50000949949026A6,6,0,1,1,318.50002291053534,294.50000949949026"></path><path id="kity_path_473" fill="none" stroke="gray"></path></g><path id="node_outline34" fill="none" stroke="none" d="M323.5000230744481,280.50000949949026h218a5,5,0,0,1,5,5v18a5,5,0,0,1,-5,5h-218a5,5,0,0,1,-5,-5v-18a5,5,0,0,1,5,-5z"></path><g id="node_text34" fill="black"><text id="kity_text_323" text-rendering="inherit" font-size="12" dy=".8em" y="286.70000947266817" x="323.5000230744481">正二十面体IcosahedronGeometry</text></g><a id="kity_a_387" xlink:href="http://www.yanhuangxueyuan.com/threejs/docs/index.html#api/zh/geometries/IcosahedronGeometry" target="_blank" xlink:title="http://www.yanhuangxueyuan.com/threejs/docs/index.html#api/zh/geometries/IcosahedronGeometry" style="cursor: pointer;"><path id="kity_path_389" fill="rgba(255, 255, 255, 0)" stroke="none" d="M521.5000259950757,283.50000942498446h16a4,4,0,0,1,4,4v14a4,4,0,0,1,-4,4h-16a4,4,0,0,1,-4,-4v-14a4,4,0,0,1,4,-4z"></path><path id="kity_path_388" fill="#666" stroke="none" d="M536.1140259950757,299.72400942498444h-1.278c-1.668,0,-3.07,-1.07,-3.599,-2.556h4.877c0.707,0,1.278,-0.571,1.278,-1.278V293.33400942498446c0,-0.707,-0.571,-1.278,-1.278,-1.278h-4.877C531.7660259950757,290.5710094249845,533.1680259950757,289.50000942498446,534.8360259950757,289.50000942498446h1.278c2.116,0,3.834,1.716,3.834,3.834V295.89000942498444C539.9480259950757,298.00800942498444,538.2300259950757,299.72400942498444,536.1140259950757,299.72400942498444zM524.6120259950757,294.6120094249845c0,-0.707,0.573,-1.278,1.278,-1.278h7.668c0.707,0,1.278,0.571,1.278,1.278S534.2650259950757,295.89000942498444,533.5580259950757,295.89000942498444H525.8900259950757C525.1850259950756,295.89000942498444,524.6120259950757,295.3190094249845,524.6120259950757,294.6120094249845zM522.0560259950757,293.33400942498446V295.89000942498444c0,0.707,0.573,1.278,1.278,1.278h4.877c-0.528,1.486,-1.932,2.556,-3.599,2.556H523.3340259950756C521.2160259950757,299.72400942498444,519.5000259950757,298.00800942498444,519.5000259950757,295.89000942498444V293.33400942498446C519.5000259950757,291.21600942498446,521.2160259950757,289.50000942498446,523.3340259950756,289.50000942498446h1.278c1.667,0,3.071,1.071,3.599,2.556H523.3340259950756C522.6290259950757,292.05600942498444,522.0560259950757,292.62700942498446,522.0560259950757,293.33400942498446z"></path></a></g><g id="minder_node38"><g id="node_expander35" style="cursor: pointer;" display="none"><path id="kity_path_478" fill="white" stroke="gray" d="M351.50002340227365,338.50001015514135A6,6,0,1,1,339.50002340227365,338.50001015514135A6,6,0,1,1,351.50002340227365,338.50001015514135"></path><path id="kity_path_479" fill="none" stroke="gray"></path></g><path id="node_outline36" fill="none" stroke="none" d="M356.5000235661864,324.50001015514135h113a5,5,0,0,1,5,5v18a5,5,0,0,1,-5,5h-113a5,5,0,0,1,-5,-5v-18a5,5,0,0,1,5,-5z"></path><g id="node_text36" fill="black"><text id="kity_text_327" text-rendering="inherit" font-size="12" dy=".8em" y="330.70001012831926" x="356.5000235661864">RingGeometry</text></g><a id="kity_a_390" xlink:href="http://www.yanhuangxueyuan.com/threejs/docs/index.html#api/zh/geometries/RingGeometry" target="_blank" xlink:title="http://www.yanhuangxueyuan.com/threejs/docs/index.html#api/zh/geometries/RingGeometry" style="cursor: pointer;"><path id="kity_path_392" fill="rgba(255, 255, 255, 0)" stroke="none" d="M449.5000249221921,327.50001008063555h16a4,4,0,0,1,4,4v14a4,4,0,0,1,-4,4h-16a4,4,0,0,1,-4,-4v-14a4,4,0,0,1,4,-4z"></path><path id="kity_path_391" fill="#666" stroke="none" d="M464.1140249221921,343.72401008063554h-1.278c-1.668,0,-3.07,-1.07,-3.599,-2.556h4.877c0.707,0,1.278,-0.571,1.278,-1.278V337.33401008063555c0,-0.707,-0.571,-1.278,-1.278,-1.278h-4.877C459.7660249221921,334.5710100806356,461.1680249221921,333.50001008063555,462.8360249221921,333.50001008063555h1.278c2.116,0,3.834,1.716,3.834,3.834V339.89001008063553C467.9480249221921,342.00801008063553,466.2300249221921,343.72401008063554,464.1140249221921,343.72401008063554zM452.6120249221921,338.61201008063557c0,-0.707,0.573,-1.278,1.278,-1.278h7.668c0.707,0,1.278,0.571,1.278,1.278S462.2650249221921,339.89001008063553,461.5580249221921,339.89001008063553H453.8900249221921C453.1850249221921,339.89001008063553,452.6120249221921,339.31901008063556,452.6120249221921,338.61201008063557zM450.0560249221921,337.33401008063555V339.89001008063553c0,0.707,0.573,1.278,1.278,1.278h4.877c-0.528,1.486,-1.932,2.556,-3.599,2.556H451.3340249221921C449.2160249221921,343.72401008063554,447.5000249221921,342.00801008063553,447.5000249221921,339.89001008063553V337.33401008063555C447.5000249221921,335.21601008063556,449.2160249221921,333.50001008063555,451.3340249221921,333.50001008063555h1.278c1.667,0,3.071,1.071,3.599,2.556H451.3340249221921C450.6290249221921,336.05601008063553,450.0560249221921,336.62701008063556,450.0560249221921,337.33401008063555z"></path></a></g><g id="minder_node37"><g id="node_expander36" style="cursor: pointer;"><path id="kity_path_481" fill="white" stroke="gray" d="M288.5000224635005,338.50001015514135A6,6,0,1,1,276.5000224635005,338.50001015514135A6,6,0,1,1,288.5000224635005,338.50001015514135"></path><path id="kity_path_482" fill="none" stroke="gray" d="M278.0000224635005,338.50001015514135L287.0000224635005,338.50001015514135"></path></g><path id="node_outline37" fill="none" stroke="none" d="M293.5000226274133,329.50001015514135h37a5,5,0,0,1,5,5v8a5,5,0,0,1,-5,5h-37a5,5,0,0,1,-5,-5v-8a5,5,0,0,1,5,-5z"></path><g id="node_text37" fill="black"><text id="kity_text_329" text-rendering="inherit" font-size="12" dy=".8em" y="330.70001012831926" x="293.5000226274133">环平面</text></g></g><g id="minder_node40"><g id="node_expander37" style="cursor: pointer;" display="none"><path id="kity_path_484" fill="white" stroke="gray" d="M363.5000235810876,374.50001069158316A6,6,0,1,1,351.5000235810876,374.50001069158316A6,6,0,1,1,363.5000235810876,374.50001069158316"></path><path id="kity_path_485" fill="none" stroke="gray"></path></g><path id="node_outline38" fill="none" stroke="none" d="M368.50002374500036,360.50001069158316h118a5,5,0,0,1,5,5v18a5,5,0,0,1,-5,5h-118a5,5,0,0,1,-5,-5v-18a5,5,0,0,1,5,-5z"></path><g id="node_text38" fill="black"><text id="kity_text_331" text-rendering="inherit" font-size="12" dy=".8em" y="366.70001066476107" x="368.50002374500036">PlaneGeometry</text></g><a id="kity_a_393" xlink:href="http://www.yanhuangxueyuan.com/threejs/docs/index.html#api/zh/geometries/PlaneGeometry" target="_blank" xlink:title="http://www.yanhuangxueyuan.com/threejs/docs/index.html#api/zh/geometries/PlaneGeometry" style="cursor: pointer;"><path id="kity_path_395" fill="rgba(255, 255, 255, 0)" stroke="none" d="M466.50002517551184,363.50001061707735h16a4,4,0,0,1,4,4v14a4,4,0,0,1,-4,4h-16a4,4,0,0,1,-4,-4v-14a4,4,0,0,1,4,-4z"></path><path id="kity_path_394" fill="#666" stroke="none" d="M481.1140251755118,379.72401061707734h-1.278c-1.668,0,-3.07,-1.07,-3.599,-2.556h4.877c0.707,0,1.278,-0.571,1.278,-1.278V373.33401061707735c0,-0.707,-0.571,-1.278,-1.278,-1.278h-4.877C476.76602517551186,370.5710106170774,478.16802517551184,369.50001061707735,479.83602517551185,369.50001061707735h1.278c2.116,0,3.834,1.716,3.834,3.834V375.89001061707734C484.9480251755118,378.00801061707733,483.23002517551186,379.72401061707734,481.1140251755118,379.72401061707734zM469.61202517551186,374.6120106170774c0,-0.707,0.573,-1.278,1.278,-1.278h7.668c0.707,0,1.278,0.571,1.278,1.278S479.2650251755118,375.89001061707734,478.55802517551183,375.89001061707734H470.8900251755118C470.18502517551184,375.89001061707734,469.61202517551186,375.31901061707737,469.61202517551186,374.6120106170774zM467.0560251755118,373.33401061707735V375.89001061707734c0,0.707,0.573,1.278,1.278,1.278h4.877c-0.528,1.486,-1.932,2.556,-3.599,2.556H468.33402517551184C466.21602517551185,379.72401061707734,464.50002517551184,378.00801061707733,464.50002517551184,375.89001061707734V373.33401061707735C464.50002517551184,371.21601061707736,466.21602517551185,369.50001061707735,468.33402517551184,369.50001061707735h1.278c1.667,0,3.071,1.071,3.599,2.556H468.33402517551184C467.62902517551186,372.05601061707733,467.0560251755118,372.62701061707736,467.0560251755118,373.33401061707735z"></path></a></g><g id="minder_node39"><g id="node_expander38" style="cursor: pointer;"><path id="kity_path_487" fill="white" stroke="gray" d="M288.5000224635005,374.50001069158316A6,6,0,1,1,276.5000224635005,374.50001069158316A6,6,0,1,1,288.5000224635005,374.50001069158316"></path><path id="kity_path_488" fill="none" stroke="gray" d="M278.0000224635005,374.50001069158316L287.0000224635005,374.50001069158316"></path></g><path id="node_outline39" fill="none" stroke="none" d="M293.5000226274133,365.50001069158316h49a5,5,0,0,1,5,5v8a5,5,0,0,1,-5,5h-49a5,5,0,0,1,-5,-5v-8a5,5,0,0,1,5,-5z"></path><g id="node_text39" fill="black"><text id="kity_text_333" text-rendering="inherit" font-size="12" dy=".8em" y="366.70001066476107" x="293.5000226274133">矩形平面</text></g></g><g id="minder_node42"><g id="node_expander39" style="cursor: pointer;" display="none"><path id="kity_path_490" fill="white" stroke="gray" d="M350.5000233873725,410.50001122802496A6,6,0,1,1,338.5000233873725,410.50001122802496A6,6,0,1,1,350.5000233873725,410.50001122802496"></path><path id="kity_path_491" fill="none" stroke="gray"></path></g><path id="node_outline40" fill="none" stroke="none" d="M355.50002355128527,396.50001122802496h119a5,5,0,0,1,5,5v18a5,5,0,0,1,-5,5h-119a5,5,0,0,1,-5,-5v-18a5,5,0,0,1,5,-5z"></path><g id="node_text40" fill="black"><text id="kity_text_335" text-rendering="inherit" font-size="12" dy=".8em" y="402.70001120120287" x="355.50002355128527">CircleGeometry</text></g><a id="kity_a_396" xlink:href="http://www.yanhuangxueyuan.com/threejs/docs/index.html#api/zh/geometries/CircleGeometry" target="_blank" xlink:title="http://www.yanhuangxueyuan.com/threejs/docs/index.html#api/zh/geometries/CircleGeometry" style="cursor: pointer;"><path id="kity_path_398" fill="rgba(255, 255, 255, 0)" stroke="none" d="M454.5000249966979,399.50001115351915h16a4,4,0,0,1,4,4v14a4,4,0,0,1,-4,4h-16a4,4,0,0,1,-4,-4v-14a4,4,0,0,1,4,-4z"></path><path id="kity_path_397" fill="#666" stroke="none" d="M469.1140249966979,415.72401115351914h-1.278c-1.668,0,-3.07,-1.07,-3.599,-2.556h4.877c0.707,0,1.278,-0.571,1.278,-1.278V409.33401115351916c0,-0.707,-0.571,-1.278,-1.278,-1.278h-4.877C464.7660249966979,406.5710111535192,466.1680249966979,405.50001115351915,467.8360249966979,405.50001115351915h1.278c2.116,0,3.834,1.716,3.834,3.834V411.89001115351914C472.9480249966979,414.00801115351913,471.2300249966979,415.72401115351914,469.1140249966979,415.72401115351914zM457.6120249966979,410.6120111535192c0,-0.707,0.573,-1.278,1.278,-1.278h7.668c0.707,0,1.278,0.571,1.278,1.278S467.2650249966979,411.89001115351914,466.5580249966979,411.89001115351914H458.8900249966979C458.1850249966979,411.89001115351914,457.6120249966979,411.31901115351917,457.6120249966979,410.6120111535192zM455.0560249966979,409.33401115351916V411.89001115351914c0,0.707,0.573,1.278,1.278,1.278h4.877c-0.528,1.486,-1.932,2.556,-3.599,2.556H456.3340249966979C454.2160249966979,415.72401115351914,452.5000249966979,414.00801115351913,452.5000249966979,411.89001115351914V409.33401115351916C452.5000249966979,407.21601115351916,454.2160249966979,405.50001115351915,456.3340249966979,405.50001115351915h1.278c1.667,0,3.071,1.071,3.599,2.556H456.3340249966979C455.6290249966979,408.05601115351914,455.0560249966979,408.62701115351916,455.0560249966979,409.33401115351916z"></path></a></g><g id="minder_node41"><g id="node_expander40" style="cursor: pointer;"><path id="kity_path_493" fill="white" stroke="gray" d="M288.5000224635005,410.50001122802496A6,6,0,1,1,276.5000224635005,410.50001122802496A6,6,0,1,1,288.5000224635005,410.50001122802496"></path><path id="kity_path_494" fill="none" stroke="gray" d="M278.0000224635005,410.50001122802496L287.0000224635005,410.50001122802496"></path></g><path id="node_outline41" fill="none" stroke="none" d="M293.5000226274133,401.50001122802496h36a5,5,0,0,1,5,5v8a5,5,0,0,1,-5,5h-36a5,5,0,0,1,-5,-5v-8a5,5,0,0,1,5,-5z"></path><g id="node_text41" fill="black"><text id="kity_text_337" text-rendering="inherit" font-size="12" dy=".8em" y="402.70001120120287" x="293.5000226274133">圆平面</text></g></g><g id="kity_g_12" display="none"><path id="kity_path_13" fill="none" stroke="rgb(66, 94, 112)" d="M13.500018738210201,350.500010676682h180a5,5,0,0,1,5,5v36a5,5,0,0,1,-5,5h-180a5,5,0,0,1,-5,-5v-36a5,5,0,0,1,5,-5z" stroke-width="5"></path></g><g id="minder_node45"><g id="node_expander42" style="cursor: pointer;" display="none"><path id="kity_path_499" fill="white" stroke="gray" d="M400.50002413243055,454.50001188367605A6,6,0,1,1,388.50002413243055,454.50001188367605A6,6,0,1,1,400.50002413243055,454.50001188367605"></path><path id="kity_path_500" fill="none" stroke="gray"></path></g><path id="node_outline43" fill="none" stroke="none" d="M405.5000242963433,440.50001188367605h130a5,5,0,0,1,5,5v18a5,5,0,0,1,-5,5h-130a5,5,0,0,1,-5,-5v-18a5,5,0,0,1,5,-5z"></path><g id="node_text43" fill="black"><text id="kity_text_341" text-rendering="inherit" font-size="12" dy=".8em" y="446.70001185685396" x="405.5000242963433">ExtrudeGeometry</text></g><a id="kity_a_399" xlink:href="http://www.yanhuangxueyuan.com/threejs/docs/index.html#api/zh/geometries/ExtrudeGeometry" target="_blank" xlink:title="http://www.yanhuangxueyuan.com/threejs/docs/index.html#api/zh/geometries/ExtrudeGeometry" style="cursor: pointer;"><path id="kity_path_401" fill="rgba(255, 255, 255, 0)" stroke="none" d="M515.5000259056687,443.50001180917025h16a4,4,0,0,1,4,4v14a4,4,0,0,1,-4,4h-16a4,4,0,0,1,-4,-4v-14a4,4,0,0,1,4,-4z"></path><path id="kity_path_400" fill="#666" stroke="none" d="M530.1140259056688,459.72401180917024h-1.278c-1.668,0,-3.07,-1.07,-3.599,-2.556h4.877c0.707,0,1.278,-0.571,1.278,-1.278V453.33401180917025c0,-0.707,-0.571,-1.278,-1.278,-1.278h-4.877C525.7660259056687,450.5710118091703,527.1680259056687,449.50001180917025,528.8360259056687,449.50001180917025h1.278c2.116,0,3.834,1.716,3.834,3.834V455.89001180917023C533.9480259056687,458.0080118091702,532.2300259056688,459.72401180917024,530.1140259056688,459.72401180917024zM518.6120259056687,454.61201180917027c0,-0.707,0.573,-1.278,1.278,-1.278h7.668c0.707,0,1.278,0.571,1.278,1.278S528.2650259056687,455.89001180917023,527.5580259056687,455.89001180917023H519.8900259056687C519.1850259056687,455.89001180917023,518.6120259056687,455.31901180917026,518.6120259056687,454.61201180917027zM516.0560259056688,453.33401180917025V455.89001180917023c0,0.707,0.573,1.278,1.278,1.278h4.877c-0.528,1.486,-1.932,2.556,-3.599,2.556H517.3340259056687C515.2160259056687,459.72401180917024,513.5000259056687,458.0080118091702,513.5000259056687,455.89001180917023V453.33401180917025C513.5000259056687,451.21601180917025,515.2160259056687,449.50001180917025,517.3340259056687,449.50001180917025h1.278c1.667,0,3.071,1.071,3.599,2.556H517.3340259056687C516.6290259056688,452.05601180917023,516.0560259056688,452.62701180917026,516.0560259056688,453.33401180917025z"></path></a></g><g id="minder_node44"><g id="node_expander43" style="cursor: pointer;"><path id="kity_path_502" fill="white" stroke="gray" d="M312.50002282112837,454.50001188367605A6,6,0,1,1,300.50002282112837,454.50001188367605A6,6,0,1,1,312.50002282112837,454.50001188367605"></path><path id="kity_path_503" fill="none" stroke="gray" d="M302.00002282112837,454.50001188367605L311.00002282112837,454.50001188367605"></path></g><path id="node_outline44" fill="none" stroke="none" d="M317.50002298504114,445.50001188367605h62a5,5,0,0,1,5,5v8a5,5,0,0,1,-5,5h-62a5,5,0,0,1,-5,-5v-8a5,5,0,0,1,5,-5z"></path><g id="node_text44" fill="black"><text id="kity_text_343" text-rendering="inherit" font-size="12" dy=".8em" y="446.70001185685396" x="317.50002298504114">拉伸、扫描</text></g></g><g id="minder_node47"><g id="node_expander44" style="cursor: pointer;" display="none"><path id="kity_path_505" fill="white" stroke="gray" d="M364.50002359598875,490.50001242011786A6,6,0,1,1,352.50002359598875,490.50001242011786A6,6,0,1,1,364.50002359598875,490.50001242011786"></path><path id="kity_path_506" fill="none" stroke="gray"></path></g><path id="node_outline45" fill="none" stroke="none" d="M369.5000237599015,476.50001242011786h118a5,5,0,0,1,5,5v18a5,5,0,0,1,-5,5h-118a5,5,0,0,1,-5,-5v-18a5,5,0,0,1,5,-5z"></path><g id="node_text45" fill="black"><text id="kity_text_345" text-rendering="inherit" font-size="12" dy=".8em" y="482.70001239329576" x="369.5000237599015">LatheGeometry</text></g><a id="kity_a_402" xlink:href="http://www.yanhuangxueyuan.com/threejs/docs/index.html#api/zh/geometries/LatheGeometry" target="_blank" xlink:title="http://www.yanhuangxueyuan.com/threejs/docs/index.html#api/zh/geometries/LatheGeometry" style="cursor: pointer;"><path id="kity_path_404" fill="rgba(255, 255, 255, 0)" stroke="none" d="M467.500025190413,479.50001234561205h16a4,4,0,0,1,4,4v14a4,4,0,0,1,-4,4h-16a4,4,0,0,1,-4,-4v-14a4,4,0,0,1,4,-4z"></path><path id="kity_path_403" fill="#666" stroke="none" d="M482.114025190413,495.72401234561204h-1.278c-1.668,0,-3.07,-1.07,-3.599,-2.556h4.877c0.707,0,1.278,-0.571,1.278,-1.278V489.33401234561205c0,-0.707,-0.571,-1.278,-1.278,-1.278h-4.877C477.766025190413,486.5710123456121,479.168025190413,485.50001234561205,480.836025190413,485.50001234561205h1.278c2.116,0,3.834,1.716,3.834,3.834V491.89001234561204C485.948025190413,494.00801234561203,484.230025190413,495.72401234561204,482.114025190413,495.72401234561204zM470.612025190413,490.6120123456121c0,-0.707,0.573,-1.278,1.278,-1.278h7.668c0.707,0,1.278,0.571,1.278,1.278S480.265025190413,491.89001234561204,479.558025190413,491.89001234561204H471.890025190413C471.185025190413,491.89001234561204,470.612025190413,491.31901234561207,470.612025190413,490.6120123456121zM468.056025190413,489.33401234561205V491.89001234561204c0,0.707,0.573,1.278,1.278,1.278h4.877c-0.528,1.486,-1.932,2.556,-3.599,2.556H469.334025190413C467.216025190413,495.72401234561204,465.500025190413,494.00801234561203,465.500025190413,491.89001234561204V489.33401234561205C465.500025190413,487.21601234561206,467.216025190413,485.50001234561205,469.334025190413,485.50001234561205h1.278c1.667,0,3.071,1.071,3.599,2.556H469.334025190413C468.629025190413,488.05601234561203,468.056025190413,488.62701234561206,468.056025190413,489.33401234561205z"></path></a></g><g id="minder_node46"><g id="node_expander45" style="cursor: pointer;"><path id="kity_path_508" fill="white" stroke="gray" d="M312.50002282112837,490.50001242011786A6,6,0,1,1,300.50002282112837,490.50001242011786A6,6,0,1,1,312.50002282112837,490.50001242011786"></path><path id="kity_path_509" fill="none" stroke="gray" d="M302.00002282112837,490.50001242011786L311.00002282112837,490.50001242011786"></path></g><path id="node_outline46" fill="none" stroke="none" d="M317.50002298504114,481.50001242011786h26a5,5,0,0,1,5,5v8a5,5,0,0,1,-5,5h-26a5,5,0,0,1,-5,-5v-8a5,5,0,0,1,5,-5z"></path><g id="node_text46" fill="black"><text id="kity_text_347" text-rendering="inherit" font-size="12" dy=".8em" y="482.70001239329576" x="317.50002298504114">旋转</text></g></g><g id="minder_node49"><g id="node_expander46" style="cursor: pointer;" display="none"><path id="kity_path_511" fill="white" stroke="gray" d="M364.50002359598875,526.5000129565597A6,6,0,1,1,352.50002359598875,526.5000129565597A6,6,0,1,1,364.50002359598875,526.5000129565597"></path><path id="kity_path_512" fill="none" stroke="gray"></path></g><path id="node_outline47" fill="none" stroke="none" d="M369.5000237599015,512.5000129565597h115a5,5,0,0,1,5,5v18a5,5,0,0,1,-5,5h-115a5,5,0,0,1,-5,-5v-18a5,5,0,0,1,5,-5z"></path><g id="node_text47" fill="black"><text id="kity_text_349" text-rendering="inherit" font-size="12" dy=".8em" y="518.7000129297376" x="369.5000237599015">TubeGeometry</text></g><a id="kity_a_405" xlink:href="http://www.yanhuangxueyuan.com/threejs/docs/index.html#api/zh/geometries/TubeGeometry" target="_blank" xlink:title="http://www.yanhuangxueyuan.com/threejs/docs/index.html#api/zh/geometries/TubeGeometry" style="cursor: pointer;"><path id="kity_path_407" fill="rgba(255, 255, 255, 0)" stroke="none" d="M464.5000251457095,515.5000128820539h16a4,4,0,0,1,4,4v14a4,4,0,0,1,-4,4h-16a4,4,0,0,1,-4,-4v-14a4,4,0,0,1,4,-4z"></path><path id="kity_path_406" fill="#666" stroke="none" d="M479.1140251457095,531.7240128820539h-1.278c-1.668,0,-3.07,-1.07,-3.599,-2.556h4.877c0.707,0,1.278,-0.571,1.278,-1.278V525.3340128820538c0,-0.707,-0.571,-1.278,-1.278,-1.278h-4.877C474.76602514570953,522.5710128820539,476.1680251457095,521.5000128820539,477.8360251457095,521.5000128820539h1.278c2.116,0,3.834,1.716,3.834,3.834V527.8900128820538C482.9480251457095,530.0080128820539,481.23002514570953,531.7240128820539,479.1140251457095,531.7240128820539zM467.61202514570954,526.6120128820538c0,-0.707,0.573,-1.278,1.278,-1.278h7.668c0.707,0,1.278,0.571,1.278,1.278S477.2650251457095,527.8900128820538,476.5580251457095,527.8900128820538H468.8900251457095C468.1850251457095,527.8900128820538,467.61202514570954,527.3190128820538,467.61202514570954,526.6120128820538zM465.0560251457095,525.3340128820538V527.8900128820538c0,0.707,0.573,1.278,1.278,1.278h4.877c-0.528,1.486,-1.932,2.556,-3.599,2.556H466.3340251457095C464.2160251457095,531.7240128820539,462.5000251457095,530.0080128820539,462.5000251457095,527.8900128820538V525.3340128820538C462.5000251457095,523.2160128820539,464.2160251457095,521.5000128820539,466.3340251457095,521.5000128820539h1.278c1.667,0,3.071,1.071,3.599,2.556H466.3340251457095C465.62902514570953,524.0560128820539,465.0560251457095,524.6270128820538,465.0560251457095,525.3340128820538z"></path></a></g><g id="minder_node48"><g id="node_expander47" style="cursor: pointer;"><path id="kity_path_514" fill="white" stroke="gray" d="M312.50002282112837,526.5000129565597A6,6,0,1,1,300.50002282112837,526.5000129565597A6,6,0,1,1,312.50002282112837,526.5000129565597"></path><path id="kity_path_515" fill="none" stroke="gray" d="M302.00002282112837,526.5000129565597L311.00002282112837,526.5000129565597"></path></g><path id="node_outline48" fill="none" stroke="none" d="M317.50002298504114,517.5000129565597h26a5,5,0,0,1,5,5v8a5,5,0,0,1,-5,5h-26a5,5,0,0,1,-5,-5v-8a5,5,0,0,1,5,-5z"></path><g id="node_text48" fill="black"><text id="kity_text_351" text-rendering="inherit" font-size="12" dy=".8em" y="518.7000129297376" x="317.50002298504114">管道</text></g></g><g id="minder_node51"><g id="node_expander49" style="cursor: pointer;" display="none"><path id="kity_path_520" fill="white" stroke="gray" d="M318.50002291053534,570.5000136122108A6,6,0,1,1,306.50002291053534,570.5000136122108A6,6,0,1,1,318.50002291053534,570.5000136122108"></path><path id="kity_path_521" fill="none" stroke="gray"></path></g><path id="node_outline50" fill="none" stroke="none" d="M323.5000230744481,556.5000136122108h122a5,5,0,0,1,5,5v18a5,5,0,0,1,-5,5h-122a5,5,0,0,1,-5,-5v-18a5,5,0,0,1,5,-5z"></path><g id="node_text50" fill="black"><text id="kity_text_355" text-rendering="inherit" font-size="12" dy=".8em" y="562.7000135853887" x="323.5000230744481">ShapeGeometry</text></g><a id="kity_a_408" xlink:href="http://www.yanhuangxueyuan.com/threejs/docs/index.html#api/zh/geometries/ShapeGeometry" target="_blank" xlink:title="http://www.yanhuangxueyuan.com/threejs/docs/index.html#api/zh/geometries/ShapeGeometry" style="cursor: pointer;"><path id="kity_path_410" fill="rgba(255, 255, 255, 0)" stroke="none" d="M425.5000245645642,559.500013537705h16a4,4,0,0,1,4,4v14a4,4,0,0,1,-4,4h-16a4,4,0,0,1,-4,-4v-14a4,4,0,0,1,4,-4z"></path><path id="kity_path_409" fill="#666" stroke="none" d="M440.1140245645642,575.724013537705h-1.278c-1.668,0,-3.07,-1.07,-3.599,-2.556h4.877c0.707,0,1.278,-0.571,1.278,-1.278V569.3340135377049c0,-0.707,-0.571,-1.278,-1.278,-1.278h-4.877C435.76602456456425,566.571013537705,437.16802456456423,565.500013537705,438.83602456456424,565.500013537705h1.278c2.116,0,3.834,1.716,3.834,3.834V571.8900135377049C443.9480245645642,574.008013537705,442.23002456456425,575.724013537705,440.1140245645642,575.724013537705zM428.61202456456425,570.6120135377049c0,-0.707,0.573,-1.278,1.278,-1.278h7.668c0.707,0,1.278,0.571,1.278,1.278S438.2650245645642,571.8900135377049,437.5580245645642,571.8900135377049H429.8900245645642C429.18502456456423,571.8900135377049,428.61202456456425,571.3190135377049,428.61202456456425,570.6120135377049zM426.0560245645642,569.3340135377049V571.8900135377049c0,0.707,0.573,1.278,1.278,1.278h4.877c-0.528,1.486,-1.932,2.556,-3.599,2.556H427.33402456456423C425.21602456456424,575.724013537705,423.5000245645642,574.008013537705,423.5000245645642,571.8900135377049V569.3340135377049C423.5000245645642,567.216013537705,425.21602456456424,565.500013537705,427.33402456456423,565.500013537705h1.278c1.667,0,3.071,1.071,3.599,2.556H427.33402456456423C426.62902456456425,568.056013537705,426.0560245645642,568.6270135377049,426.0560245645642,569.3340135377049z"></path></a></g><g id="minder_node53"><g id="node_expander51" style="cursor: pointer;" display="none"><path id="kity_path_526" fill="white" stroke="gray" d="M289.50002247840166,614.5000142678618A6,6,0,1,1,277.50002247840166,614.5000142678618A6,6,0,1,1,289.50002247840166,614.5000142678618"></path><path id="kity_path_527" fill="none" stroke="gray"></path></g><path id="node_outline52" fill="none" stroke="none" d="M294.50002264231443,600.5000142678618h111a5,5,0,0,1,5,5v18a5,5,0,0,1,-5,5h-111a5,5,0,0,1,-5,-5v-18a5,5,0,0,1,5,-5z"></path><g id="node_text52" fill="black"><text id="kity_text_359" text-rendering="inherit" font-size="12" dy=".8em" y="606.7000142410398" x="294.50002264231443">TextGeometry</text></g><a id="kity_a_411" xlink:href="http://www.yanhuangxueyuan.com/threejs/docs/index.html#api/zh/geometries/TextGeometry" target="_blank" xlink:title="http://www.yanhuangxueyuan.com/threejs/docs/index.html#api/zh/geometries/TextGeometry" style="cursor: pointer;"><path id="kity_path_413" fill="rgba(255, 255, 255, 0)" stroke="none" d="M385.5000239685178,603.500014193356h16a4,4,0,0,1,4,4v14a4,4,0,0,1,-4,4h-16a4,4,0,0,1,-4,-4v-14a4,4,0,0,1,4,-4z"></path><path id="kity_path_412" fill="#666" stroke="none" d="M400.11402396851776,619.7240141933561h-1.278c-1.668,0,-3.07,-1.07,-3.599,-2.556h4.877c0.707,0,1.278,-0.571,1.278,-1.278V613.334014193356c0,-0.707,-0.571,-1.278,-1.278,-1.278h-4.877C395.7660239685178,610.5710141933561,397.1680239685178,609.500014193356,398.8360239685178,609.500014193356h1.278c2.116,0,3.834,1.716,3.834,3.834V615.890014193356C403.94802396851776,618.0080141933561,402.2300239685178,619.7240141933561,400.11402396851776,619.7240141933561zM388.6120239685178,614.612014193356c0,-0.707,0.573,-1.278,1.278,-1.278h7.668c0.707,0,1.278,0.571,1.278,1.278S398.26502396851777,615.890014193356,397.5580239685178,615.890014193356H389.89002396851777C389.1850239685178,615.890014193356,388.6120239685178,615.319014193356,388.6120239685178,614.612014193356zM386.05602396851776,613.334014193356V615.890014193356c0,0.707,0.573,1.278,1.278,1.278h4.877c-0.528,1.486,-1.932,2.556,-3.599,2.556H387.3340239685178C385.2160239685178,619.7240141933561,383.5000239685178,618.0080141933561,383.5000239685178,615.890014193356V613.334014193356C383.5000239685178,611.216014193356,385.2160239685178,609.500014193356,387.3340239685178,609.500014193356h1.278c1.667,0,3.071,1.071,3.599,2.556H387.3340239685178C386.6290239685178,612.0560141933561,386.05602396851776,612.627014193356,386.05602396851776,613.334014193356z"></path></a></g><g id="minder_node55"><g id="node_expander53" style="cursor: pointer;" display="none"><path id="kity_path_532" fill="white" stroke="gray" d="M330.50002308934927,658.5000149235129A6,6,0,1,1,318.50002308934927,658.5000149235129A6,6,0,1,1,330.50002308934927,658.5000149235129"></path><path id="kity_path_533" fill="none" stroke="gray"></path></g><path id="node_outline54" fill="none" stroke="none" d="M335.50002325326204,644.5000149235129h148a5,5,0,0,1,5,5v18a5,5,0,0,1,-5,5h-148a5,5,0,0,1,-5,-5v-18a5,5,0,0,1,5,-5z"></path><g id="node_text54" fill="black"><text id="kity_text_363" text-rendering="inherit" font-size="12" dy=".8em" y="650.7000148966908" x="335.50002325326204">ParametricGeometry</text></g><a id="kity_a_414" xlink:href="http://www.yanhuangxueyuan.com/threejs/docs/index.html#api/zh/geometries/ParametricGeometry" target="_blank" xlink:title="http://www.yanhuangxueyuan.com/threejs/docs/index.html#api/zh/geometries/ParametricGeometry" style="cursor: pointer;"><path id="kity_path_416" fill="rgba(255, 255, 255, 0)" stroke="none" d="M463.50002513080835,647.5000148490071h16a4,4,0,0,1,4,4v14a4,4,0,0,1,-4,4h-16a4,4,0,0,1,-4,-4v-14a4,4,0,0,1,4,-4z"></path><path id="kity_path_415" fill="#666" stroke="none" d="M478.11402513080833,663.7240148490072h-1.278c-1.668,0,-3.07,-1.07,-3.599,-2.556h4.877c0.707,0,1.278,-0.571,1.278,-1.278V657.3340148490071c0,-0.707,-0.571,-1.278,-1.278,-1.278h-4.877C473.7660251308084,654.5710148490072,475.16802513080836,653.5000148490071,476.83602513080837,653.5000148490071h1.278c2.116,0,3.834,1.716,3.834,3.834V659.8900148490071C481.94802513080833,662.0080148490072,480.2300251308084,663.7240148490072,478.11402513080833,663.7240148490072zM466.6120251308084,658.6120148490071c0,-0.707,0.573,-1.278,1.278,-1.278h7.668c0.707,0,1.278,0.571,1.278,1.278S476.26502513080834,659.8900148490071,475.55802513080835,659.8900148490071H467.89002513080834C467.18502513080836,659.8900148490071,466.6120251308084,659.3190148490071,466.6120251308084,658.6120148490071zM464.05602513080834,657.3340148490071V659.8900148490071c0,0.707,0.573,1.278,1.278,1.278h4.877c-0.528,1.486,-1.932,2.556,-3.599,2.556H465.33402513080836C463.21602513080836,663.7240148490072,461.50002513080835,662.0080148490072,461.50002513080835,659.8900148490071V657.3340148490071C461.50002513080835,655.2160148490071,463.21602513080836,653.5000148490071,465.33402513080836,653.5000148490071h1.278c1.667,0,3.071,1.071,3.599,2.556H465.33402513080836C464.6290251308084,656.0560148490072,464.05602513080834,656.6270148490071,464.05602513080834,657.3340148490071z"></path></a></g></g></g></svg>