<svg id="kity_svg_6" xmlns="http://www.w3.org/2000/svg" xmlns:xlink="http://www.w3.org/1999/xlink" version="1.1" width="690" height="688" style="background: rgb(251, 251, 251); visibility: visible;" viewBox="0 0 690 688"><defs id="kity_defs_7"><linearGradient id="kity_linearGradient_17" x1="0" y1="0" x2="0" y2="1"><stop id="kity_stop_18" offset="0" stop-color="rgb(255, 255, 255)"></stop><stop id="kity_stop_19" offset="1" stop-color="rgb(204, 204, 204)"></stop></linearGradient><marker id="kity_marker_2" orient="auto" refX="6" refY="0" viewBox="-7 -7 14 14" markerWidth="7" markerHeight="7" markerUnits="userSpaceOnUse"><path id="kity_path_3" fill="rgb(123, 115, 191)" stroke="none" d="M6,0A6,6,0,1,1,-6,0A6,6,0,1,1,6,0"></path></marker></defs><g id="kity_g_8"><g id="minder1" text-rendering="optimize-speed"><g id="minder_connect_group1"><path id="kity_path_566" fill="none" stroke="rgb(123, 115, 191)" stroke-width="1" d="M49.0000060275197,285.50000547617674A44.5,155,0,0,1,93.5000060275197,130.50000547617674"></path><path id="kity_path_592" fill="none" stroke="rgb(123, 115, 191)" stroke-width="1" d="M49.0000060275197,285.50000547617674A44.5,155,0,0,0,93.5000060275197,440.50000547617674"></path><path id="kity_path_943" fill="none" stroke="rgb(123, 115, 191)" stroke-width="1" d="M220.5000060275197,130.50000547617674C228.5000060275197,130.50000547617674,228.5000060275197,34.50000547617674,236.5000060275197,34.50000547617674"></path><path id="kity_path_944" fill="none" stroke="rgb(123, 115, 191)" stroke-width="1" d="M220.5000060275197,130.50000547617674C228.5000060275197,130.50000547617674,228.5000060275197,70.50000547617674,236.5000060275197,70.50000547617674"></path><path id="kity_path_945" fill="none" stroke="rgb(123, 115, 191)" stroke-width="1" d="M220.5000060275197,130.50000547617674C228.5000060275197,130.50000547617674,228.5000060275197,106.50000547617674,236.5000060275197,106.50000547617674"></path><path id="kity_path_946" fill="none" stroke="rgb(123, 115, 191)" stroke-width="1" d="M311.5000060275197,142.50000547617674C319.5000060275197,142.50000547617674,319.5000060275197,142.50000547617674,327.5000060275197,142.50000547617674"></path><path id="kity_path_947" fill="none" stroke="rgb(123, 115, 191)" stroke-width="1" d="M220.5000060275197,130.50000547617674C228.5000060275197,130.50000547617674,228.5000060275197,142.50000547617674,236.5000060275197,142.50000547617674"></path><path id="kity_path_948" fill="none" stroke="rgb(123, 115, 191)" stroke-width="1" d="M220.5000060275197,130.50000547617674C228.5000060275197,130.50000547617674,228.5000060275197,178.50000547617674,236.5000060275197,178.50000547617674"></path><path id="kity_path_949" fill="none" stroke="rgb(123, 115, 191)" stroke-width="1" d="M579.5000060275197,214.50000547617674C587.5000060275197,214.50000547617674,587.5000060275197,214.50000547617674,595.5000060275197,214.50000547617674"></path><path id="kity_path_950" fill="none" stroke="rgb(123, 115, 191)" stroke-width="1" d="M498.5000060275197,232.50000547617674C506.5000060275197,232.50000547617674,506.5000060275197,214.50000547617674,514.5000060275197,214.50000547617674"></path><path id="kity_path_951" fill="none" stroke="rgb(123, 115, 191)" stroke-width="1" d="M498.5000060275197,232.50000547617674C506.5000060275197,232.50000547617674,506.5000060275197,250.50000547617674,514.5000060275197,250.50000547617674"></path><path id="kity_path_952" fill="none" stroke="rgb(123, 115, 191)" stroke-width="1" d="M384.5000060275197,232.50000547617674C392.5000060275197,232.50000547617674,392.5000060275197,232.50000547617674,400.5000060275197,232.50000547617674"></path><path id="kity_path_953" fill="none" stroke="rgb(123, 115, 191)" stroke-width="1" d="M295.5000060275197,232.50000547617674C303.5000060275197,232.50000547617674,303.5000060275197,232.50000547617674,311.5000060275197,232.50000547617674"></path><path id="kity_path_954" fill="none" stroke="rgb(123, 115, 191)" stroke-width="1" d="M220.5000060275197,130.50000547617674C228.5000060275197,130.50000547617674,228.5000060275197,232.50000547617674,236.5000060275197,232.50000547617674"></path><path id="kity_path_955" fill="none" stroke="rgb(123, 115, 191)" stroke-width="1" d="M234.5000060275197,440.50000547617674C242.5000060275197,440.50000547617674,242.5000060275197,294.50000547617674,250.5000060275197,294.50000547617674"></path><path id="kity_path_956" fill="none" stroke="rgb(123, 115, 191)" stroke-width="1" d="M328.5000060275197,330.50000547617674C336.5000060275197,330.50000547617674,336.5000060275197,330.50000547617674,344.5000060275197,330.50000547617674"></path><path id="kity_path_957" fill="none" stroke="rgb(123, 115, 191)" stroke-width="1" d="M276.5000060275197,411.50000547617674C284.5000060275197,411.50000547617674,284.5000060275197,330.50000547617674,292.5000060275197,330.50000547617674"></path><path id="kity_path_958" fill="none" stroke="rgb(123, 115, 191)" stroke-width="1" d="M327.5000060275197,366.50000547617674C335.5000060275197,366.50000547617674,335.5000060275197,366.50000547617674,343.5000060275197,366.50000547617674"></path><path id="kity_path_959" fill="none" stroke="rgb(123, 115, 191)" stroke-width="1" d="M276.5000060275197,411.50000547617674C284.5000060275197,411.50000547617674,284.5000060275197,366.50000547617674,292.5000060275197,366.50000547617674"></path><path id="kity_path_960" fill="none" stroke="rgb(123, 115, 191)" stroke-width="1" d="M327.5000060275197,402.50000547617674C335.5000060275197,402.50000547617674,335.5000060275197,402.50000547617674,343.5000060275197,402.50000547617674"></path><path id="kity_path_961" fill="none" stroke="rgb(123, 115, 191)" stroke-width="1" d="M276.5000060275197,411.50000547617674C284.5000060275197,411.50000547617674,284.5000060275197,402.50000547617674,292.5000060275197,402.50000547617674"></path><path id="kity_path_962" fill="none" stroke="rgb(123, 115, 191)" stroke-width="1" d="M352.5000060275197,438.50000547617674C360.5000060275197,438.50000547617674,360.5000060275197,438.50000547617674,368.5000060275197,438.50000547617674"></path><path id="kity_path_963" fill="none" stroke="rgb(123, 115, 191)" stroke-width="1" d="M276.5000060275197,411.50000547617674C284.5000060275197,411.50000547617674,284.5000060275197,438.50000547617674,292.5000060275197,438.50000547617674"></path><path id="kity_path_964" fill="none" stroke="rgb(123, 115, 191)" stroke-width="1" d="M438.5000060275197,474.50000547617674C446.5000060275197,474.50000547617674,446.5000060275197,474.50000547617674,454.5000060275197,474.50000547617674"></path><path id="kity_path_965" fill="none" stroke="rgb(123, 115, 191)" stroke-width="1" d="M387.5000060275197,492.50000547617674C395.5000060275197,492.50000547617674,395.5000060275197,474.50000547617674,403.5000060275197,474.50000547617674"></path><path id="kity_path_966" fill="none" stroke="rgb(123, 115, 191)" stroke-width="1" d="M438.5000060275197,510.50000547617674C446.5000060275197,510.50000547617674,446.5000060275197,510.50000547617674,454.5000060275197,510.50000547617674"></path><path id="kity_path_967" fill="none" stroke="rgb(123, 115, 191)" stroke-width="1" d="M387.5000060275197,492.50000547617674C395.5000060275197,492.50000547617674,395.5000060275197,510.50000547617674,403.5000060275197,510.50000547617674"></path><path id="kity_path_968" fill="none" stroke="rgb(123, 115, 191)" stroke-width="1" d="M276.5000060275197,411.50000547617674C284.5000060275197,411.50000547617674,284.5000060275197,492.50000547617674,292.5000060275197,492.50000547617674"></path><path id="kity_path_969" fill="none" stroke="rgb(123, 115, 191)" stroke-width="1" d="M234.5000060275197,440.50000547617674C242.5000060275197,440.50000547617674,242.5000060275197,411.50000547617674,250.5000060275197,411.50000547617674"></path><path id="kity_path_970" fill="none" stroke="rgb(123, 115, 191)" stroke-width="1" d="M328.5000060275197,546.5000054761767C336.5000060275197,546.5000054761767,336.5000060275197,546.5000054761767,344.5000060275197,546.5000054761767"></path><path id="kity_path_971" fill="none" stroke="rgb(123, 115, 191)" stroke-width="1" d="M276.5000060275197,591.5000054761767C284.5000060275197,591.5000054761767,284.5000060275197,546.5000054761767,292.5000060275197,546.5000054761767"></path><path id="kity_path_972" fill="none" stroke="rgb(123, 115, 191)" stroke-width="1" d="M375.5000060275197,582.5000054761767C383.5000060275197,582.5000054761767,383.5000060275197,582.5000054761767,391.5000060275197,582.5000054761767"></path><path id="kity_path_973" fill="none" stroke="rgb(123, 115, 191)" stroke-width="1" d="M276.5000060275197,591.5000054761767C284.5000060275197,591.5000054761767,284.5000060275197,582.5000054761767,292.5000060275197,582.5000054761767"></path><path id="kity_path_974" fill="none" stroke="rgb(123, 115, 191)" stroke-width="1" d="M438.5000060275197,618.5000054761767C446.5000060275197,618.5000054761767,446.5000060275197,618.5000054761767,454.5000060275197,618.5000054761767"></path><path id="kity_path_975" fill="none" stroke="rgb(123, 115, 191)" stroke-width="1" d="M387.5000060275197,636.5000054761767C395.5000060275197,636.5000054761767,395.5000060275197,618.5000054761767,403.5000060275197,618.5000054761767"></path><path id="kity_path_976" fill="none" stroke="rgb(123, 115, 191)" stroke-width="1" d="M438.5000060275197,654.5000054761767C446.5000060275197,654.5000054761767,446.5000060275197,654.5000054761767,454.5000060275197,654.5000054761767"></path><path id="kity_path_977" fill="none" stroke="rgb(123, 115, 191)" stroke-width="1" d="M387.5000060275197,636.5000054761767C395.5000060275197,636.5000054761767,395.5000060275197,654.5000054761767,403.5000060275197,654.5000054761767"></path><path id="kity_path_978" fill="none" stroke="rgb(123, 115, 191)" stroke-width="1" d="M276.5000060275197,591.5000054761767C284.5000060275197,591.5000054761767,284.5000060275197,636.5000054761767,292.5000060275197,636.5000054761767"></path><path id="kity_path_979" fill="none" stroke="rgb(123, 115, 191)" stroke-width="1" d="M234.5000060275197,440.50000547617674C242.5000060275197,440.50000547617674,242.5000060275197,591.5000054761767,250.5000060275197,591.5000054761767"></path></g><g id="minder_node1"><path id="node_outline1" fill="rgb(123, 115, 191)" stroke="rgb(61, 57, 96)" d="M25.500006027519703,271.50000547617674h47a5,5,0,0,1,5,5v18a5,5,0,0,1,-5,5h-47a5,5,0,0,1,-5,-5v-18a5,5,0,0,1,5,-5z" stroke-width="3"></path><g id="node_text1" fill="white"><text id="kity_text_22" text-rendering="inherit" font-size="16" dy=".8em" y="275.10000544041395" x="32.5000060275197">曲线</text></g><a id="kity_a_537" xlink:href="http://www.yanhuangxueyuan.com/threejs/docs/index.html#api/zh/core/Geometry" target="_blank" xlink:title="http://www.yanhuangxueyuan.com/threejs/docs/index.html#api/zh/core/Geometry" style="cursor: pointer;" display="none"><path id="kity_path_539" fill="rgba(255, 255, 255, 0)" stroke="none" d="M34.5000060275197,279.50000547617674h16a4,4,0,0,1,4,4v14a4,4,0,0,1,-4,4h-16a4,4,0,0,1,-4,-4v-14a4,4,0,0,1,4,-4z"></path><path id="kity_path_538" fill="#666" stroke="none" d="M49.11400602751971,295.7240054761767h-1.278c-1.668,0,-3.07,-1.07,-3.599,-2.556h4.877c0.707,0,1.278,-0.571,1.278,-1.278V289.33400547617674c0,-0.707,-0.571,-1.278,-1.278,-1.278h-4.877C44.7660060275197,286.57100547617677,46.1680060275197,285.50000547617674,47.8360060275197,285.50000547617674h1.278c2.116,0,3.834,1.716,3.834,3.834V291.8900054761767C52.9480060275197,294.0080054761767,51.23000602751971,295.7240054761767,49.11400602751971,295.7240054761767zM37.612006027519705,290.61200547617676c0,-0.707,0.573,-1.278,1.278,-1.278h7.668c0.707,0,1.278,0.571,1.278,1.278S47.2650060275197,291.8900054761767,46.5580060275197,291.8900054761767H38.8900060275197C38.185006027519705,291.8900054761767,37.612006027519705,291.31900547617676,37.612006027519705,290.61200547617676zM35.0560060275197,289.33400547617674V291.8900054761767c0,0.707,0.573,1.278,1.278,1.278h4.877c-0.528,1.486,-1.932,2.556,-3.599,2.556H36.334006027519706C34.216006027519704,295.7240054761767,32.5000060275197,294.0080054761767,32.5000060275197,291.8900054761767V289.33400547617674C32.5000060275197,287.21600547617675,34.216006027519704,285.50000547617674,36.334006027519706,285.50000547617674h1.278c1.667,0,3.071,1.071,3.599,2.556H36.334006027519706C35.6290060275197,288.0560054761767,35.0560060275197,288.62700547617675,35.0560060275197,289.33400547617674z"></path></a></g><g id="kity_g_14" display="none"><path id="kity_path_15" fill="none" stroke="none" d="M32.5000060275197,285.50000547617674h0v0h0z"></path><path id="kity_path_16" fill="none" stroke="none"></path></g><g id="minder_node57" opacity="1"><g id="node_expander68" style="cursor: pointer;"><path id="kity_path_863" fill="white" stroke="gray" d="M94.50000686198473,130.50000316649675A6,6,0,1,1,82.50000686198473,130.50000316649675A6,6,0,1,1,94.50000686198473,130.50000316649675"></path><path id="kity_path_864" fill="none" stroke="gray" d="M84.00000686198473,130.50000316649675L93.00000686198473,130.50000316649675"></path></g><path id="node_outline69" fill="rgb(239, 238, 246)" stroke="rgb(123, 115, 191)" d="M98.50000726431608,117.50000316649675h119a3,3,0,0,1,3,3v20a3,3,0,0,1,-3,3h-119a3,3,0,0,1,-3,-3v-20a3,3,0,0,1,3,-3z" stroke-width="1"></path><g id="node_text69" fill="black"><text id="kity_text_674" text-rendering="inherit" font-size="14" dy=".8em" y="121.40000313520432" x="115.50000726431608">Extras / Core</text></g></g><g id="minder_node70" opacity="1"><g id="node_expander94" style="cursor: pointer;"><path id="kity_path_941" fill="white" stroke="gray" d="M94.50000686198473,440.5000077858567A6,6,0,1,1,82.50000686198473,440.5000077858567A6,6,0,1,1,94.50000686198473,440.5000077858567"></path><path id="kity_path_942" fill="none" stroke="gray" d="M84.00000686198473,440.5000077858567L93.00000686198473,440.5000077858567"></path></g><path id="node_outline95" fill="rgb(239, 238, 246)" stroke="rgb(123, 115, 191)" d="M98.50000726431608,427.5000077858567h133a3,3,0,0,1,3,3v20a3,3,0,0,1,-3,3h-133a3,3,0,0,1,-3,-3v-20a3,3,0,0,1,3,-3z" stroke-width="1"></path><g id="node_text95" fill="black"><text id="kity_text_726" text-rendering="inherit" font-size="14" dy=".8em" y="431.4000077545643" x="115.50000726431608">Extras / Curves</text></g></g><g id="kity_g_12" display="none"><path id="kity_path_13" fill="none" stroke="rgb(71, 66, 112)" d="M25.500006027519703,271.50000547617674h47a5,5,0,0,1,5,5v18a5,5,0,0,1,-5,5h-47a5,5,0,0,1,-5,-5v-18a5,5,0,0,1,5,-5z" stroke-width="5"></path></g><g id="minder_node58"><g id="node_expander56" style="cursor: pointer;" display="none"><path id="kity_path_827" fill="white" stroke="gray" d="M236.50000897794962,34.50000173598528A6,6,0,1,1,224.50000897794962,34.50000173598528A6,6,0,1,1,236.50000897794962,34.50000173598528"></path><path id="kity_path_828" fill="none" stroke="gray"></path></g><path id="node_outline57" fill="none" stroke="none" d="M241.5000091418624,20.50000173598528h63a5,5,0,0,1,5,5v18a5,5,0,0,1,-5,5h-63a5,5,0,0,1,-5,-5v-18a5,5,0,0,1,5,-5z" stroke-width="3"></path><g id="node_text57" fill="black"><text id="kity_text_650" text-rendering="inherit" font-size="12" dy=".8em" y="26.70000170916319" x="241.5000091418624">Curve</text></g><a id="kity_a_727" xlink:href="http://www.yanhuangxueyuan.com/threejs/docs/index.html#api/zh/extras/core/Curve" target="_blank" xlink:title="http://www.yanhuangxueyuan.com/threejs/docs/index.html#api/zh/extras/core/Curve" style="cursor: pointer;"><path id="kity_path_729" fill="rgba(255, 255, 255, 0)" stroke="none" d="M284.50000975281,23.500001661479473h16a4,4,0,0,1,4,4v14a4,4,0,0,1,-4,4h-16a4,4,0,0,1,-4,-4v-14a4,4,0,0,1,4,-4z"></path><path id="kity_path_728" fill="#666" stroke="none" d="M299.11400975281,39.72400166147948h-1.278c-1.668,0,-3.07,-1.07,-3.599,-2.556h4.877c0.707,0,1.278,-0.571,1.278,-1.278V33.334001661479476c0,-0.707,-0.571,-1.278,-1.278,-1.278h-4.877C294.76600975281,30.571001661479475,296.16800975281,29.500001661479473,297.83600975281,29.500001661479473h1.278c2.116,0,3.834,1.716,3.834,3.834V35.890001661479474C302.94800975281,38.00800166147947,301.23000975281,39.72400166147948,299.11400975281,39.72400166147948zM287.61200975281,34.612001661479475c0,-0.707,0.573,-1.278,1.278,-1.278h7.668c0.707,0,1.278,0.571,1.278,1.278S297.26500975281,35.890001661479474,296.55800975281,35.890001661479474H288.89000975281C288.18500975281,35.890001661479474,287.61200975281,35.319001661479476,287.61200975281,34.612001661479475zM285.05600975281,33.334001661479476V35.890001661479474c0,0.707,0.573,1.278,1.278,1.278h4.877c-0.528,1.486,-1.932,2.556,-3.599,2.556H286.33400975281C284.21600975281,39.72400166147948,282.50000975281,38.00800166147947,282.50000975281,35.890001661479474V33.334001661479476C282.50000975281,31.216001661479474,284.21600975281,29.500001661479473,286.33400975281,29.500001661479473h1.278c1.667,0,3.071,1.071,3.599,2.556H286.33400975281C285.62900975281,32.05600166147947,285.05600975281,32.627001661479476,285.05600975281,33.334001661479476z"></path></a></g><g id="minder_node59"><g id="node_expander57" style="cursor: pointer;" display="none"><path id="kity_path_830" fill="white" stroke="gray" d="M236.50000897794962,70.50000227242708A6,6,0,1,1,224.50000897794962,70.50000227242708A6,6,0,1,1,236.50000897794962,70.50000227242708"></path><path id="kity_path_831" fill="none" stroke="gray"></path></g><path id="node_outline58" fill="none" stroke="none" d="M241.5000091418624,56.50000227242708h88a5,5,0,0,1,5,5v18a5,5,0,0,1,-5,5h-88a5,5,0,0,1,-5,-5v-18a5,5,0,0,1,5,-5z" stroke-width="3"></path><g id="node_text58" fill="black"><text id="kity_text_652" text-rendering="inherit" font-size="12" dy=".8em" y="62.70000224560499" x="241.5000091418624">CurvePath</text></g><a id="kity_a_730" xlink:href="http://www.yanhuangxueyuan.com/threejs/docs/index.html#api/zh/extras/core/CurvePath" target="_blank" xlink:title="http://www.yanhuangxueyuan.com/threejs/docs/index.html#api/zh/extras/core/CurvePath" style="cursor: pointer;"><path id="kity_path_732" fill="rgba(255, 255, 255, 0)" stroke="none" d="M309.50001012533903,59.500002197921276h16a4,4,0,0,1,4,4v14a4,4,0,0,1,-4,4h-16a4,4,0,0,1,-4,-4v-14a4,4,0,0,1,4,-4z"></path><path id="kity_path_731" fill="#666" stroke="none" d="M324.114010125339,75.72400219792128h-1.278c-1.668,0,-3.07,-1.07,-3.599,-2.556h4.877c0.707,0,1.278,-0.571,1.278,-1.278V69.33400219792128c0,-0.707,-0.571,-1.278,-1.278,-1.278h-4.877C319.76601012533905,66.57100219792127,321.16801012533904,65.50000219792128,322.83601012533904,65.50000219792128h1.278c2.116,0,3.834,1.716,3.834,3.834V71.89000219792128C327.948010125339,74.00800219792127,326.23001012533905,75.72400219792128,324.114010125339,75.72400219792128zM312.61201012533905,70.61200219792127c0,-0.707,0.573,-1.278,1.278,-1.278h7.668c0.707,0,1.278,0.571,1.278,1.278S322.265010125339,71.89000219792128,321.558010125339,71.89000219792128H313.890010125339C313.18501012533903,71.89000219792128,312.61201012533905,71.31900219792128,312.61201012533905,70.61200219792127zM310.056010125339,69.33400219792128V71.89000219792128c0,0.707,0.573,1.278,1.278,1.278h4.877c-0.528,1.486,-1.932,2.556,-3.599,2.556H311.33401012533903C309.21601012533904,75.72400219792128,307.50001012533903,74.00800219792127,307.50001012533903,71.89000219792128V69.33400219792128C307.50001012533903,67.21600219792127,309.21601012533904,65.50000219792128,311.33401012533903,65.50000219792128h1.278c1.667,0,3.071,1.071,3.599,2.556H311.33401012533903C310.62901012533905,68.05600219792127,310.056010125339,68.62700219792127,310.056010125339,69.33400219792128z"></path></a></g><g id="minder_node60"><g id="node_expander58" style="cursor: pointer;" display="none"><path id="kity_path_833" fill="white" stroke="gray" d="M236.50000897794962,106.50000280886889A6,6,0,1,1,224.50000897794962,106.50000280886889A6,6,0,1,1,236.50000897794962,106.50000280886889"></path><path id="kity_path_834" fill="none" stroke="gray"></path></g><path id="node_outline59" fill="none" stroke="none" d="M241.5000091418624,92.50000280886889h55a5,5,0,0,1,5,5v18a5,5,0,0,1,-5,5h-55a5,5,0,0,1,-5,-5v-18a5,5,0,0,1,5,-5z" stroke-width="3"></path><g id="node_text59" fill="black"><text id="kity_text_654" text-rendering="inherit" font-size="12" dy=".8em" y="98.7000027820468" x="241.5000091418624">Path</text></g><a id="kity_a_733" xlink:href="http://www.yanhuangxueyuan.com/threejs/docs/index.html#api/zh/extras/core/Path" target="_blank" xlink:title="http://www.yanhuangxueyuan.com/threejs/docs/index.html#api/zh/extras/core/Path" style="cursor: pointer;"><path id="kity_path_735" fill="rgba(255, 255, 255, 0)" stroke="none" d="M276.5000096336007,95.50000273436308h16a4,4,0,0,1,4,4v14a4,4,0,0,1,-4,4h-16a4,4,0,0,1,-4,-4v-14a4,4,0,0,1,4,-4z"></path><path id="kity_path_734" fill="#666" stroke="none" d="M291.1140096336007,111.72400273436308h-1.278c-1.668,0,-3.07,-1.07,-3.599,-2.556h4.877c0.707,0,1.278,-0.571,1.278,-1.278V105.33400273436308c0,-0.707,-0.571,-1.278,-1.278,-1.278h-4.877C286.76600963360073,102.57100273436308,288.1680096336007,101.50000273436308,289.8360096336007,101.50000273436308h1.278c2.116,0,3.834,1.716,3.834,3.834V107.89000273436308C294.9480096336007,110.00800273436307,293.23000963360073,111.72400273436308,291.1140096336007,111.72400273436308zM279.61200963360074,106.61200273436307c0,-0.707,0.573,-1.278,1.278,-1.278h7.668c0.707,0,1.278,0.571,1.278,1.278S289.2650096336007,107.89000273436308,288.5580096336007,107.89000273436308H280.8900096336007C280.1850096336007,107.89000273436308,279.61200963360074,107.31900273436308,279.61200963360074,106.61200273436307zM277.0560096336007,105.33400273436308V107.89000273436308c0,0.707,0.573,1.278,1.278,1.278h4.877c-0.528,1.486,-1.932,2.556,-3.599,2.556H278.3340096336007C276.2160096336007,111.72400273436308,274.5000096336007,110.00800273436307,274.5000096336007,107.89000273436308V105.33400273436308C274.5000096336007,103.21600273436307,276.2160096336007,101.50000273436308,278.3340096336007,101.50000273436308h1.278c1.667,0,3.071,1.071,3.599,2.556H278.3340096336007C277.62900963360073,104.05600273436308,277.0560096336007,104.62700273436307,277.0560096336007,105.33400273436308z"></path></a></g><g id="minder_node62"><g id="node_expander59" style="cursor: pointer;" display="none"><path id="kity_path_836" fill="white" stroke="gray" d="M327.5000103339553,142.5000033453107A6,6,0,1,1,315.5000103339553,142.5000033453107A6,6,0,1,1,327.5000103339553,142.5000033453107"></path><path id="kity_path_837" fill="none" stroke="gray"></path></g><path id="node_outline60" fill="none" stroke="none" d="M332.50001049786806,133.5000033453107h73a5,5,0,0,1,5,5v8a5,5,0,0,1,-5,5h-73a5,5,0,0,1,-5,-5v-8a5,5,0,0,1,5,-5z" stroke-width="3"></path><g id="node_text60" fill="black"><text id="kity_text_656" text-rendering="inherit" font-size="12" dy=".8em" y="134.7000033184886" x="332.50001049786806">绘制二维形状</text></g></g><g id="minder_node61"><g id="node_expander60" style="cursor: pointer;"><path id="kity_path_839" fill="white" stroke="gray" d="M236.50000897794962,142.5000033453107A6,6,0,1,1,224.50000897794962,142.5000033453107A6,6,0,1,1,236.50000897794962,142.5000033453107"></path><path id="kity_path_840" fill="none" stroke="gray" d="M226.00000897794962,142.5000033453107L235.00000897794962,142.5000033453107"></path></g><path id="node_outline61" fill="none" stroke="none" d="M241.5000091418624,128.5000033453107h65a5,5,0,0,1,5,5v18a5,5,0,0,1,-5,5h-65a5,5,0,0,1,-5,-5v-18a5,5,0,0,1,5,-5z" stroke-width="3"></path><g id="node_text61" fill="black"><text id="kity_text_658" text-rendering="inherit" font-size="12" dy=".8em" y="134.7000033184886" x="241.5000091418624">Shape</text></g><a id="kity_a_736" xlink:href="http://www.yanhuangxueyuan.com/threejs/docs/index.html#api/zh/extras/core/Shape" target="_blank" xlink:title="http://www.yanhuangxueyuan.com/threejs/docs/index.html#api/zh/extras/core/Shape" style="cursor: pointer;"><path id="kity_path_738" fill="rgba(255, 255, 255, 0)" stroke="none" d="M286.5000097826123,131.50000327080488h16a4,4,0,0,1,4,4v14a4,4,0,0,1,-4,4h-16a4,4,0,0,1,-4,-4v-14a4,4,0,0,1,4,-4z"></path><path id="kity_path_737" fill="#666" stroke="none" d="M301.1140097826123,147.72400327080487h-1.278c-1.668,0,-3.07,-1.07,-3.599,-2.556h4.877c0.707,0,1.278,-0.571,1.278,-1.278V141.33400327080489c0,-0.707,-0.571,-1.278,-1.278,-1.278h-4.877C296.76600978261234,138.57100327080488,298.16800978261233,137.50000327080488,299.83600978261234,137.50000327080488h1.278c2.116,0,3.834,1.716,3.834,3.834V143.89000327080487C304.9480097826123,146.0080032708049,303.23000978261234,147.72400327080487,301.1140097826123,147.72400327080487zM289.61200978261235,142.61200327080488c0,-0.707,0.573,-1.278,1.278,-1.278h7.668c0.707,0,1.278,0.571,1.278,1.278S299.2650097826123,143.89000327080487,298.5580097826123,143.89000327080487H290.8900097826123C290.1850097826123,143.89000327080487,289.61200978261235,143.31900327080487,289.61200978261235,142.61200327080488zM287.0560097826123,141.33400327080489V143.89000327080487c0,0.707,0.573,1.278,1.278,1.278h4.877c-0.528,1.486,-1.932,2.556,-3.599,2.556H288.3340097826123C286.21600978261233,147.72400327080487,284.5000097826123,146.0080032708049,284.5000097826123,143.89000327080487V141.33400327080489C284.5000097826123,139.2160032708049,286.21600978261233,137.50000327080488,288.3340097826123,137.50000327080488h1.278c1.667,0,3.071,1.071,3.599,2.556H288.3340097826123C287.62900978261234,140.0560032708049,287.0560097826123,140.6270032708049,287.0560097826123,141.33400327080489z"></path></a></g><g id="minder_node63"><g id="node_expander61" style="cursor: pointer;" display="none"><path id="kity_path_842" fill="white" stroke="gray" d="M236.50000897794962,178.5000038817525A6,6,0,1,1,224.50000897794962,178.5000038817525A6,6,0,1,1,236.50000897794962,178.5000038817525"></path><path id="kity_path_843" fill="none" stroke="gray"></path></g><path id="node_outline62" fill="none" stroke="none" d="M241.5000091418624,164.5000038817525h90a5,5,0,0,1,5,5v18a5,5,0,0,1,-5,5h-90a5,5,0,0,1,-5,-5v-18a5,5,0,0,1,5,-5z" stroke-width="3"></path><g id="node_text62" fill="black"><text id="kity_text_660" text-rendering="inherit" font-size="12" dy=".8em" y="170.7000038549304" x="241.5000091418624">ShapePath</text></g><a id="kity_a_739" xlink:href="http://www.yanhuangxueyuan.com/threejs/docs/index.html#api/zh/extras/core/ShapePath" target="_blank" xlink:title="http://www.yanhuangxueyuan.com/threejs/docs/index.html#api/zh/extras/core/ShapePath" style="cursor: pointer;"><path id="kity_path_741" fill="rgba(255, 255, 255, 0)" stroke="none" d="M311.50001015514135,167.50000380724669h16a4,4,0,0,1,4,4v14a4,4,0,0,1,-4,4h-16a4,4,0,0,1,-4,-4v-14a4,4,0,0,1,4,-4z"></path><path id="kity_path_740" fill="#666" stroke="none" d="M326.11401015514133,183.72400380724667h-1.278c-1.668,0,-3.07,-1.07,-3.599,-2.556h4.877c0.707,0,1.278,-0.571,1.278,-1.278V177.3340038072467c0,-0.707,-0.571,-1.278,-1.278,-1.278h-4.877C321.7660101551414,174.57100380724668,323.16801015514136,173.50000380724669,324.83601015514137,173.50000380724669h1.278c2.116,0,3.834,1.716,3.834,3.834V179.89000380724667C329.94801015514133,182.0080038072467,328.2300101551414,183.72400380724667,326.11401015514133,183.72400380724667zM314.6120101551414,178.61200380724668c0,-0.707,0.573,-1.278,1.278,-1.278h7.668c0.707,0,1.278,0.571,1.278,1.278S324.26501015514134,179.89000380724667,323.55801015514135,179.89000380724667H315.89001015514134C315.18501015514136,179.89000380724667,314.6120101551414,179.31900380724667,314.6120101551414,178.61200380724668zM312.05601015514134,177.3340038072467V179.89000380724667c0,0.707,0.573,1.278,1.278,1.278h4.877c-0.528,1.486,-1.932,2.556,-3.599,2.556H313.33401015514136C311.21601015514136,183.72400380724667,309.50001015514135,182.0080038072467,309.50001015514135,179.89000380724667V177.3340038072467C309.50001015514135,175.2160038072467,311.21601015514136,173.50000380724669,313.33401015514136,173.50000380724669h1.278c1.667,0,3.071,1.071,3.599,2.556H313.33401015514136C312.6290101551414,176.0560038072467,312.05601015514134,176.6270038072467,312.05601015514134,177.3340038072467z"></path></a></g><g id="minder_node68"><g id="node_expander62" style="cursor: pointer;" display="none"><path id="kity_path_845" fill="white" stroke="gray" d="M595.5000143274665,214.5000044181943A6,6,0,1,1,583.5000143274665,214.5000044181943A6,6,0,1,1,595.5000143274665,214.5000044181943"></path><path id="kity_path_846" fill="none" stroke="gray"></path></g><path id="node_outline63" fill="none" stroke="none" d="M600.5000144913793,200.5000044181943h65a5,5,0,0,1,5,5v18a5,5,0,0,1,-5,5h-65a5,5,0,0,1,-5,-5v-18a5,5,0,0,1,5,-5z" stroke-width="3"></path><g id="node_text63" fill="black"><text id="kity_text_662" text-rendering="inherit" font-size="12" dy=".8em" y="206.7000043913722" x="600.5000144913793">Shape</text></g><a id="kity_a_742" xlink:href="http://www.yanhuangxueyuan.com/threejs/docs/index.html#api/zh/extras/core/Shape" target="_blank" xlink:title="http://www.yanhuangxueyuan.com/threejs/docs/index.html#api/zh/extras/core/Shape" style="cursor: pointer;"><path id="kity_path_744" fill="rgba(255, 255, 255, 0)" stroke="none" d="M645.5000151321292,203.5000043436885h16a4,4,0,0,1,4,4v14a4,4,0,0,1,-4,4h-16a4,4,0,0,1,-4,-4v-14a4,4,0,0,1,4,-4z"></path><path id="kity_path_743" fill="#666" stroke="none" d="M660.1140151321292,219.72400434368848h-1.278c-1.668,0,-3.07,-1.07,-3.599,-2.556h4.877c0.707,0,1.278,-0.571,1.278,-1.278V213.3340043436885c0,-0.707,-0.571,-1.278,-1.278,-1.278h-4.877C655.7660151321292,210.5710043436885,657.1680151321292,209.5000043436885,658.8360151321292,209.5000043436885h1.278c2.116,0,3.834,1.716,3.834,3.834V215.89000434368847C663.9480151321292,218.0080043436885,662.2300151321292,219.72400434368848,660.1140151321292,219.72400434368848zM648.6120151321292,214.61200434368848c0,-0.707,0.573,-1.278,1.278,-1.278h7.668c0.707,0,1.278,0.571,1.278,1.278S658.2650151321292,215.89000434368847,657.5580151321292,215.89000434368847H649.8900151321292C649.1850151321291,215.89000434368847,648.6120151321292,215.31900434368848,648.6120151321292,214.61200434368848zM646.0560151321292,213.3340043436885V215.89000434368847c0,0.707,0.573,1.278,1.278,1.278h4.877c-0.528,1.486,-1.932,2.556,-3.599,2.556H647.3340151321291C645.2160151321292,219.72400434368848,643.5000151321292,218.0080043436885,643.5000151321292,215.89000434368847V213.3340043436885C643.5000151321292,211.2160043436885,645.2160151321292,209.5000043436885,647.3340151321291,209.5000043436885h1.278c1.667,0,3.071,1.071,3.599,2.556H647.3340151321291C646.6290151321292,212.0560043436885,646.0560151321292,212.6270043436885,646.0560151321292,213.3340043436885z"></path></a></g><g id="minder_node67"><g id="node_expander63" style="cursor: pointer;"><path id="kity_path_848" fill="white" stroke="gray" d="M514.5000131204724,214.5000044181943A6,6,0,1,1,502.50001312047243,214.5000044181943A6,6,0,1,1,514.5000131204724,214.5000044181943"></path><path id="kity_path_849" fill="none" stroke="gray" d="M504.00001312047243,214.5000044181943L513.0000131204724,214.5000044181943"></path></g><path id="node_outline64" fill="none" stroke="none" d="M519.5000132843852,200.5000044181943h55a5,5,0,0,1,5,5v18a5,5,0,0,1,-5,5h-55a5,5,0,0,1,-5,-5v-18a5,5,0,0,1,5,-5z" stroke-width="3"></path><g id="node_text64" fill="black"><text id="kity_text_664" text-rendering="inherit" font-size="12" dy=".8em" y="206.7000043913722" x="519.5000132843852">Path</text></g><a id="kity_a_745" xlink:href="http://www.yanhuangxueyuan.com/threejs/docs/index.html#api/zh/extras/core/Path" target="_blank" xlink:title="http://www.yanhuangxueyuan.com/threejs/docs/index.html#api/zh/extras/core/Path" style="cursor: pointer;"><path id="kity_path_747" fill="rgba(255, 255, 255, 0)" stroke="none" d="M554.5000137761235,203.5000043436885h16a4,4,0,0,1,4,4v14a4,4,0,0,1,-4,4h-16a4,4,0,0,1,-4,-4v-14a4,4,0,0,1,4,-4z"></path><path id="kity_path_746" fill="#666" stroke="none" d="M569.1140137761236,219.72400434368848h-1.278c-1.668,0,-3.07,-1.07,-3.599,-2.556h4.877c0.707,0,1.278,-0.571,1.278,-1.278V213.3340043436885c0,-0.707,-0.571,-1.278,-1.278,-1.278h-4.877C564.7660137761235,210.5710043436885,566.1680137761235,209.5000043436885,567.8360137761235,209.5000043436885h1.278c2.116,0,3.834,1.716,3.834,3.834V215.89000434368847C572.9480137761235,218.0080043436885,571.2300137761235,219.72400434368848,569.1140137761236,219.72400434368848zM557.6120137761235,214.61200434368848c0,-0.707,0.573,-1.278,1.278,-1.278h7.668c0.707,0,1.278,0.571,1.278,1.278S567.2650137761235,215.89000434368847,566.5580137761235,215.89000434368847H558.8900137761235C558.1850137761235,215.89000434368847,557.6120137761235,215.31900434368848,557.6120137761235,214.61200434368848zM555.0560137761236,213.3340043436885V215.89000434368847c0,0.707,0.573,1.278,1.278,1.278h4.877c-0.528,1.486,-1.932,2.556,-3.599,2.556H556.3340137761235C554.2160137761235,219.72400434368848,552.5000137761235,218.0080043436885,552.5000137761235,215.89000434368847V213.3340043436885C552.5000137761235,211.2160043436885,554.2160137761235,209.5000043436885,556.3340137761235,209.5000043436885h1.278c1.667,0,3.071,1.071,3.599,2.556H556.3340137761235C555.6290137761235,212.0560043436885,555.0560137761236,212.6270043436885,555.0560137761236,213.3340043436885z"></path></a></g><g id="minder_node69"><g id="node_expander64" style="cursor: pointer;" display="none"><path id="kity_path_851" fill="white" stroke="gray" d="M514.5000131204724,250.5000049546361A6,6,0,1,1,502.50001312047243,250.5000049546361A6,6,0,1,1,514.5000131204724,250.5000049546361"></path><path id="kity_path_852" fill="none" stroke="gray"></path></g><path id="node_outline65" fill="none" stroke="none" d="M519.5000132843852,236.5000049546361h90a5,5,0,0,1,5,5v18a5,5,0,0,1,-5,5h-90a5,5,0,0,1,-5,-5v-18a5,5,0,0,1,5,-5z" stroke-width="3"></path><g id="node_text65" fill="black"><text id="kity_text_666" text-rendering="inherit" font-size="12" dy=".8em" y="242.700004927814" x="519.5000132843852">ShapePath</text></g><a id="kity_a_748" xlink:href="http://www.yanhuangxueyuan.com/threejs/docs/index.html#api/zh/extras/core/ShapePath" target="_blank" xlink:title="http://www.yanhuangxueyuan.com/threejs/docs/index.html#api/zh/extras/core/ShapePath" style="cursor: pointer;"><path id="kity_path_750" fill="rgba(255, 255, 255, 0)" stroke="none" d="M589.5000142976642,239.5000048801303h16a4,4,0,0,1,4,4v14a4,4,0,0,1,-4,4h-16a4,4,0,0,1,-4,-4v-14a4,4,0,0,1,4,-4z"></path><path id="kity_path_749" fill="#666" stroke="none" d="M604.1140142976642,255.72400488013028h-1.278c-1.668,0,-3.07,-1.07,-3.599,-2.556h4.877c0.707,0,1.278,-0.571,1.278,-1.278V249.3340048801303c0,-0.707,-0.571,-1.278,-1.278,-1.278h-4.877C599.7660142976641,246.5710048801303,601.1680142976642,245.5000048801303,602.8360142976642,245.5000048801303h1.278c2.116,0,3.834,1.716,3.834,3.834V251.89000488013028C607.9480142976641,254.0080048801303,606.2300142976642,255.72400488013028,604.1140142976642,255.72400488013028zM592.6120142976641,250.61200488013029c0,-0.707,0.573,-1.278,1.278,-1.278h7.668c0.707,0,1.278,0.571,1.278,1.278S602.2650142976642,251.89000488013028,601.5580142976642,251.89000488013028H593.8900142976642C593.1850142976641,251.89000488013028,592.6120142976641,251.31900488013028,592.6120142976641,250.61200488013029zM590.0560142976642,249.3340048801303V251.89000488013028c0,0.707,0.573,1.278,1.278,1.278h4.877c-0.528,1.486,-1.932,2.556,-3.599,2.556H591.3340142976641C589.2160142976642,255.72400488013028,587.5000142976642,254.0080048801303,587.5000142976642,251.89000488013028V249.3340048801303C587.5000142976642,247.2160048801303,589.2160142976642,245.5000048801303,591.3340142976641,245.5000048801303h1.278c1.667,0,3.071,1.071,3.599,2.556H591.3340142976641C590.6290142976642,248.0560048801303,590.0560142976642,248.6270048801303,590.0560142976642,249.3340048801303z"></path></a></g><g id="minder_node66"><g id="node_expander65" style="cursor: pointer;"><path id="kity_path_854" fill="white" stroke="gray" d="M400.50001142174006,232.5000046864152A6,6,0,1,1,388.50001142174006,232.5000046864152A6,6,0,1,1,400.50001142174006,232.5000046864152"></path><path id="kity_path_855" fill="none" stroke="gray" d="M390.00001142174006,232.5000046864152L399.00001142174006,232.5000046864152"></path></g><path id="node_outline66" fill="none" stroke="none" d="M405.5000115856528,218.5000046864152h88a5,5,0,0,1,5,5v18a5,5,0,0,1,-5,5h-88a5,5,0,0,1,-5,-5v-18a5,5,0,0,1,5,-5z" stroke-width="3"></path><g id="node_text66" fill="black"><text id="kity_text_668" text-rendering="inherit" font-size="12" dy=".8em" y="224.7000046595931" x="405.5000115856528">CurvePath</text></g><a id="kity_a_751" xlink:href="http://www.yanhuangxueyuan.com/threejs/docs/index.html#api/zh/extras/core/CurvePath" target="_blank" xlink:title="http://www.yanhuangxueyuan.com/threejs/docs/index.html#api/zh/extras/core/CurvePath" style="cursor: pointer;"><path id="kity_path_753" fill="rgba(255, 255, 255, 0)" stroke="none" d="M473.50001256912947,221.5000046119094h16a4,4,0,0,1,4,4v14a4,4,0,0,1,-4,4h-16a4,4,0,0,1,-4,-4v-14a4,4,0,0,1,4,-4z"></path><path id="kity_path_752" fill="#666" stroke="none" d="M488.11401256912944,237.72400461190938h-1.278c-1.668,0,-3.07,-1.07,-3.599,-2.556h4.877c0.707,0,1.278,-0.571,1.278,-1.278V231.3340046119094c0,-0.707,-0.571,-1.278,-1.278,-1.278h-4.877C483.7660125691295,228.5710046119094,485.1680125691295,227.5000046119094,486.8360125691295,227.5000046119094h1.278c2.116,0,3.834,1.716,3.834,3.834V233.89000461190938C491.94801256912945,236.0080046119094,490.2300125691295,237.72400461190938,488.11401256912944,237.72400461190938zM476.6120125691295,232.61200461190938c0,-0.707,0.573,-1.278,1.278,-1.278h7.668c0.707,0,1.278,0.571,1.278,1.278S486.26501256912945,233.89000461190938,485.55801256912946,233.89000461190938H477.89001256912945C477.18501256912947,233.89000461190938,476.6120125691295,233.31900461190938,476.6120125691295,232.61200461190938zM474.05601256912945,231.3340046119094V233.89000461190938c0,0.707,0.573,1.278,1.278,1.278h4.877c-0.528,1.486,-1.932,2.556,-3.599,2.556H475.33401256912947C473.2160125691295,237.72400461190938,471.50001256912947,236.0080046119094,471.50001256912947,233.89000461190938V231.3340046119094C471.50001256912947,229.2160046119094,473.2160125691295,227.5000046119094,475.33401256912947,227.5000046119094h1.278c1.667,0,3.071,1.071,3.599,2.556H475.33401256912947C474.6290125691295,230.0560046119094,474.05601256912945,230.6270046119094,474.05601256912945,231.3340046119094z"></path></a></g><g id="minder_node65"><g id="node_expander66" style="cursor: pointer;"><path id="kity_path_857" fill="white" stroke="gray" d="M311.5000100955367,232.5000046864152A6,6,0,1,1,299.5000100955367,232.5000046864152A6,6,0,1,1,311.5000100955367,232.5000046864152"></path><path id="kity_path_858" fill="none" stroke="gray" d="M301.0000100955367,232.5000046864152L310.0000100955367,232.5000046864152"></path></g><path id="node_outline67" fill="none" stroke="none" d="M316.5000102594495,218.5000046864152h63a5,5,0,0,1,5,5v18a5,5,0,0,1,-5,5h-63a5,5,0,0,1,-5,-5v-18a5,5,0,0,1,5,-5z" stroke-width="3"></path><g id="node_text67" fill="black"><text id="kity_text_670" text-rendering="inherit" font-size="12" dy=".8em" y="224.7000046595931" x="316.5000102594495">Curve</text></g><a id="kity_a_754" xlink:href="http://www.yanhuangxueyuan.com/threejs/docs/index.html#api/zh/extras/core/Curve" target="_blank" xlink:title="http://www.yanhuangxueyuan.com/threejs/docs/index.html#api/zh/extras/core/Curve" style="cursor: pointer;"><path id="kity_path_756" fill="rgba(255, 255, 255, 0)" stroke="none" d="M359.5000108703971,221.5000046119094h16a4,4,0,0,1,4,4v14a4,4,0,0,1,-4,4h-16a4,4,0,0,1,-4,-4v-14a4,4,0,0,1,4,-4z"></path><path id="kity_path_755" fill="#666" stroke="none" d="M374.11401087039707,237.72400461190938h-1.278c-1.668,0,-3.07,-1.07,-3.599,-2.556h4.877c0.707,0,1.278,-0.571,1.278,-1.278V231.3340046119094c0,-0.707,-0.571,-1.278,-1.278,-1.278h-4.877C369.7660108703971,228.5710046119094,371.1680108703971,227.5000046119094,372.8360108703971,227.5000046119094h1.278c2.116,0,3.834,1.716,3.834,3.834V233.89000461190938C377.94801087039707,236.0080046119094,376.2300108703971,237.72400461190938,374.11401087039707,237.72400461190938zM362.6120108703971,232.61200461190938c0,-0.707,0.573,-1.278,1.278,-1.278h7.668c0.707,0,1.278,0.571,1.278,1.278S372.2650108703971,233.89000461190938,371.5580108703971,233.89000461190938H363.8900108703971C363.1850108703971,233.89000461190938,362.6120108703971,233.31900461190938,362.6120108703971,232.61200461190938zM360.0560108703971,231.3340046119094V233.89000461190938c0,0.707,0.573,1.278,1.278,1.278h4.877c-0.528,1.486,-1.932,2.556,-3.599,2.556H361.3340108703971C359.2160108703971,237.72400461190938,357.5000108703971,236.0080046119094,357.5000108703971,233.89000461190938V231.3340046119094C357.5000108703971,229.2160046119094,359.2160108703971,227.5000046119094,361.3340108703971,227.5000046119094h1.278c1.667,0,3.071,1.071,3.599,2.556H361.3340108703971C360.6290108703971,230.0560046119094,360.0560108703971,230.6270046119094,360.0560108703971,231.3340046119094z"></path></a></g><g id="minder_node64"><g id="node_expander67" style="cursor: pointer;"><path id="kity_path_860" fill="white" stroke="gray" d="M236.50000897794962,232.5000046864152A6,6,0,1,1,224.50000897794962,232.5000046864152A6,6,0,1,1,236.50000897794962,232.5000046864152"></path><path id="kity_path_861" fill="none" stroke="gray" d="M226.00000897794962,232.5000046864152L235.00000897794962,232.5000046864152"></path></g><path id="node_outline68" fill="none" stroke="none" d="M241.5000091418624,223.5000046864152h49a5,5,0,0,1,5,5v8a5,5,0,0,1,-5,5h-49a5,5,0,0,1,-5,-5v-8a5,5,0,0,1,5,-5z" stroke-width="3"></path><g id="node_text68" fill="black"><text id="kity_text_672" text-rendering="inherit" font-size="12" dy=".8em" y="224.7000046595931" x="241.5000091418624">继承关系</text></g></g><g id="minder_node71"><g id="node_expander69" style="cursor: pointer;" display="none"><path id="kity_path_866" fill="white" stroke="gray" d="M250.50000918656588,294.5000056102872A6,6,0,1,1,238.50000918656588,294.5000056102872A6,6,0,1,1,250.50000918656588,294.5000056102872"></path><path id="kity_path_867" fill="none" stroke="gray"></path></g><path id="node_outline70" fill="none" stroke="none" d="M255.50000935047865,280.5000056102872h87a5,5,0,0,1,5,5v18a5,5,0,0,1,-5,5h-87a5,5,0,0,1,-5,-5v-18a5,5,0,0,1,5,-5z" stroke-width="3"></path><g id="node_text70" fill="black"><text id="kity_text_676" text-rendering="inherit" font-size="12" dy=".8em" y="286.7000055834651" x="255.50000935047865">基类Curve</text></g><a id="kity_a_757" xlink:href="http://www.yanhuangxueyuan.com/threejs/docs/index.html#api/zh/extras/core/Curve" target="_blank" xlink:title="http://www.yanhuangxueyuan.com/threejs/docs/index.html#api/zh/extras/core/Curve" style="cursor: pointer;"><path id="kity_path_759" fill="rgba(255, 255, 255, 0)" stroke="none" d="M322.5000103190541,283.5000055357814h16a4,4,0,0,1,4,4v14a4,4,0,0,1,-4,4h-16a4,4,0,0,1,-4,-4v-14a4,4,0,0,1,4,-4z"></path><path id="kity_path_758" fill="#666" stroke="none" d="M337.1140103190541,299.7240055357814h-1.278c-1.668,0,-3.07,-1.07,-3.599,-2.556h4.877c0.707,0,1.278,-0.571,1.278,-1.278V293.3340055357814c0,-0.707,-0.571,-1.278,-1.278,-1.278h-4.877C332.76601031905415,290.5710055357814,334.16801031905413,289.5000055357814,335.83601031905414,289.5000055357814h1.278c2.116,0,3.834,1.716,3.834,3.834V295.89000553578137C340.9480103190541,298.00800553578136,339.23001031905414,299.7240055357814,337.1140103190541,299.7240055357814zM325.61201031905415,294.6120055357814c0,-0.707,0.573,-1.278,1.278,-1.278h7.668c0.707,0,1.278,0.571,1.278,1.278S335.2650103190541,295.89000553578137,334.5580103190541,295.89000553578137H326.8900103190541C326.18501031905413,295.89000553578137,325.61201031905415,295.3190055357814,325.61201031905415,294.6120055357814zM323.0560103190541,293.3340055357814V295.89000553578137c0,0.707,0.573,1.278,1.278,1.278h4.877c-0.528,1.486,-1.932,2.556,-3.599,2.556H324.33401031905413C322.21601031905413,299.7240055357814,320.5000103190541,298.00800553578136,320.5000103190541,295.89000553578137V293.3340055357814C320.5000103190541,291.2160055357814,322.21601031905413,289.5000055357814,324.33401031905413,289.5000055357814h1.278c1.667,0,3.071,1.071,3.599,2.556H324.33401031905413C323.62901031905415,292.05600553578137,323.0560103190541,292.6270055357814,323.0560103190541,293.3340055357814z"></path></a></g><g id="minder_node74"><g id="node_expander70" style="cursor: pointer;" display="none"><path id="kity_path_869" fill="white" stroke="gray" d="M344.500010587275,330.500006146729A6,6,0,1,1,332.500010587275,330.500006146729A6,6,0,1,1,344.500010587275,330.500006146729"></path><path id="kity_path_870" fill="none" stroke="gray"></path></g><path id="node_outline71" fill="none" stroke="none" d="M349.5000107511878,316.500006146729h86a5,5,0,0,1,5,5v18a5,5,0,0,1,-5,5h-86a5,5,0,0,1,-5,-5v-18a5,5,0,0,1,5,-5z" stroke-width="3"></path><g id="node_text71" fill="black"><text id="kity_text_678" text-rendering="inherit" font-size="12" dy=".8em" y="322.7000061199069" x="349.5000107511878">LineCurve</text></g><a id="kity_a_760" xlink:href="http://www.yanhuangxueyuan.com/threejs/docs/index.html#api/zh/extras/curves/LineCurve" target="_blank" xlink:title="http://www.yanhuangxueyuan.com/threejs/docs/index.html#api/zh/extras/curves/LineCurve" style="cursor: pointer;"><path id="kity_path_762" fill="rgba(255, 255, 255, 0)" stroke="none" d="M415.5000117048621,319.5000060722232h16a4,4,0,0,1,4,4v14a4,4,0,0,1,-4,4h-16a4,4,0,0,1,-4,-4v-14a4,4,0,0,1,4,-4z"></path><path id="kity_path_761" fill="#666" stroke="none" d="M430.1140117048621,335.7240060722232h-1.278c-1.668,0,-3.07,-1.07,-3.599,-2.556h4.877c0.707,0,1.278,-0.571,1.278,-1.278V329.3340060722232c0,-0.707,-0.571,-1.278,-1.278,-1.278h-4.877C425.76601170486214,326.5710060722232,427.1680117048621,325.5000060722232,428.83601170486213,325.5000060722232h1.278c2.116,0,3.834,1.716,3.834,3.834V331.8900060722232C433.9480117048621,334.00800607222317,432.23001170486214,335.7240060722232,430.1140117048621,335.7240060722232zM418.61201170486214,330.6120060722232c0,-0.707,0.573,-1.278,1.278,-1.278h7.668c0.707,0,1.278,0.571,1.278,1.278S428.2650117048621,331.8900060722232,427.5580117048621,331.8900060722232H419.8900117048621C419.1850117048621,331.8900060722232,418.61201170486214,331.3190060722232,418.61201170486214,330.6120060722232zM416.0560117048621,329.3340060722232V331.8900060722232c0,0.707,0.573,1.278,1.278,1.278h4.877c-0.528,1.486,-1.932,2.556,-3.599,2.556H417.3340117048621C415.2160117048621,335.7240060722232,413.5000117048621,334.00800607222317,413.5000117048621,331.8900060722232V329.3340060722232C413.5000117048621,327.2160060722232,415.2160117048621,325.5000060722232,417.3340117048621,325.5000060722232h1.278c1.667,0,3.071,1.071,3.599,2.556H417.3340117048621C416.62901170486214,328.05600607222317,416.0560117048621,328.6270060722232,416.0560117048621,329.3340060722232z"></path></a></g><g id="minder_node73"><g id="node_expander71" style="cursor: pointer;"><path id="kity_path_872" fill="white" stroke="gray" d="M292.50000981241465,330.500006146729A6,6,0,1,1,280.50000981241465,330.500006146729A6,6,0,1,1,292.50000981241465,330.500006146729"></path><path id="kity_path_873" fill="none" stroke="gray" d="M282.00000981241465,330.500006146729L291.00000981241465,330.500006146729"></path></g><path id="node_outline72" fill="none" stroke="none" d="M297.5000099763274,321.500006146729h26a5,5,0,0,1,5,5v8a5,5,0,0,1,-5,5h-26a5,5,0,0,1,-5,-5v-8a5,5,0,0,1,5,-5z" stroke-width="3"></path><g id="node_text72" fill="black"><text id="kity_text_680" text-rendering="inherit" font-size="12" dy=".8em" y="322.7000061199069" x="297.5000099763274">直线</text></g></g><g id="minder_node76"><g id="node_expander72" style="cursor: pointer;" display="none"><path id="kity_path_875" fill="white" stroke="gray" d="M343.50001057237387,366.5000066831708A6,6,0,1,1,331.50001057237387,366.5000066831708A6,6,0,1,1,343.50001057237387,366.5000066831708"></path><path id="kity_path_876" fill="none" stroke="gray"></path></g><path id="node_outline73" fill="none" stroke="none" d="M348.50001073628664,352.5000066831708h82a5,5,0,0,1,5,5v18a5,5,0,0,1,-5,5h-82a5,5,0,0,1,-5,-5v-18a5,5,0,0,1,5,-5z" stroke-width="3"></path><g id="node_text73" fill="black"><text id="kity_text_682" text-rendering="inherit" font-size="12" dy=".8em" y="358.7000066563487" x="348.50001073628664">ArcCurve</text></g><a id="kity_a_763" xlink:href="http://www.yanhuangxueyuan.com/threejs/docs/index.html#api/zh/extras/curves/ArcCurve" target="_blank" xlink:title="http://www.yanhuangxueyuan.com/threejs/docs/index.html#api/zh/extras/curves/ArcCurve" style="cursor: pointer;"><path id="kity_path_765" fill="rgba(255, 255, 255, 0)" stroke="none" d="M410.5000116303563,355.500006608665h16a4,4,0,0,1,4,4v14a4,4,0,0,1,-4,4h-16a4,4,0,0,1,-4,-4v-14a4,4,0,0,1,4,-4z"></path><path id="kity_path_764" fill="#666" stroke="none" d="M425.1140116303563,371.724006608665h-1.278c-1.668,0,-3.07,-1.07,-3.599,-2.556h4.877c0.707,0,1.278,-0.571,1.278,-1.278V365.334006608665c0,-0.707,-0.571,-1.278,-1.278,-1.278h-4.877C420.76601163035633,362.571006608665,422.1680116303563,361.500006608665,423.8360116303563,361.500006608665h1.278c2.116,0,3.834,1.716,3.834,3.834V367.890006608665C428.9480116303563,370.00800660866497,427.23001163035633,371.724006608665,425.1140116303563,371.724006608665zM413.61201163035633,366.612006608665c0,-0.707,0.573,-1.278,1.278,-1.278h7.668c0.707,0,1.278,0.571,1.278,1.278S423.2650116303563,367.890006608665,422.5580116303563,367.890006608665H414.8900116303563C414.1850116303563,367.890006608665,413.61201163035633,367.319006608665,413.61201163035633,366.612006608665zM411.0560116303563,365.334006608665V367.890006608665c0,0.707,0.573,1.278,1.278,1.278h4.877c-0.528,1.486,-1.932,2.556,-3.599,2.556H412.3340116303563C410.2160116303563,371.724006608665,408.5000116303563,370.00800660866497,408.5000116303563,367.890006608665V365.334006608665C408.5000116303563,363.216006608665,410.2160116303563,361.500006608665,412.3340116303563,361.500006608665h1.278c1.667,0,3.071,1.071,3.599,2.556H412.3340116303563C411.62901163035633,364.056006608665,411.0560116303563,364.627006608665,411.0560116303563,365.334006608665z"></path></a></g><g id="minder_node75"><g id="node_expander73" style="cursor: pointer;"><path id="kity_path_878" fill="white" stroke="gray" d="M292.50000981241465,366.5000066831708A6,6,0,1,1,280.50000981241465,366.5000066831708A6,6,0,1,1,292.50000981241465,366.5000066831708"></path><path id="kity_path_879" fill="none" stroke="gray" d="M282.00000981241465,366.5000066831708L291.00000981241465,366.5000066831708"></path></g><path id="node_outline74" fill="none" stroke="none" d="M297.5000099763274,357.5000066831708h25a5,5,0,0,1,5,5v8a5,5,0,0,1,-5,5h-25a5,5,0,0,1,-5,-5v-8a5,5,0,0,1,5,-5z" stroke-width="3"></path><g id="node_text74" fill="black"><text id="kity_text_684" text-rendering="inherit" font-size="12" dy=".8em" y="358.7000066563487" x="297.5000099763274">圆弧</text></g></g><g id="minder_node78"><g id="node_expander74" style="cursor: pointer;" display="none"><path id="kity_path_881" fill="white" stroke="gray" d="M343.50001057237387,402.5000072196126A6,6,0,1,1,331.50001057237387,402.5000072196126A6,6,0,1,1,343.50001057237387,402.5000072196126"></path><path id="kity_path_882" fill="none" stroke="gray"></path></g><path id="node_outline75" fill="none" stroke="none" d="M348.50001073628664,388.5000072196126h99a5,5,0,0,1,5,5v18a5,5,0,0,1,-5,5h-99a5,5,0,0,1,-5,-5v-18a5,5,0,0,1,5,-5z" stroke-width="3"></path><g id="node_text75" fill="black"><text id="kity_text_686" text-rendering="inherit" font-size="12" dy=".8em" y="394.7000071927905" x="348.50001073628664">EllipseCurve</text></g><a id="kity_a_766" xlink:href="http://www.yanhuangxueyuan.com/threejs/docs/index.html#api/zh/extras/curves/EllipseCurve" target="_blank" xlink:title="http://www.yanhuangxueyuan.com/threejs/docs/index.html#api/zh/extras/curves/EllipseCurve" style="cursor: pointer;"><path id="kity_path_768" fill="rgba(255, 255, 255, 0)" stroke="none" d="M427.50001188367605,391.5000071451068h16a4,4,0,0,1,4,4v14a4,4,0,0,1,-4,4h-16a4,4,0,0,1,-4,-4v-14a4,4,0,0,1,4,-4z"></path><path id="kity_path_767" fill="#666" stroke="none" d="M442.114011883676,407.7240071451068h-1.278c-1.668,0,-3.07,-1.07,-3.599,-2.556h4.877c0.707,0,1.278,-0.571,1.278,-1.278V401.3340071451068c0,-0.707,-0.571,-1.278,-1.278,-1.278h-4.877C437.7660118836761,398.5710071451068,439.16801188367606,397.5000071451068,440.83601188367606,397.5000071451068h1.278c2.116,0,3.834,1.716,3.834,3.834V403.8900071451068C445.94801188367603,406.0080071451068,444.23001188367607,407.7240071451068,442.114011883676,407.7240071451068zM430.6120118836761,402.6120071451068c0,-0.707,0.573,-1.278,1.278,-1.278h7.668c0.707,0,1.278,0.571,1.278,1.278S440.26501188367604,403.8900071451068,439.55801188367604,403.8900071451068H431.89001188367604C431.18501188367605,403.8900071451068,430.6120118836761,403.3190071451068,430.6120118836761,402.6120071451068zM428.05601188367604,401.3340071451068V403.8900071451068c0,0.707,0.573,1.278,1.278,1.278h4.877c-0.528,1.486,-1.932,2.556,-3.599,2.556H429.33401188367606C427.21601188367606,407.7240071451068,425.50001188367605,406.0080071451068,425.50001188367605,403.8900071451068V401.3340071451068C425.50001188367605,399.2160071451068,427.21601188367606,397.5000071451068,429.33401188367606,397.5000071451068h1.278c1.667,0,3.071,1.071,3.599,2.556H429.33401188367606C428.62901188367607,400.0560071451068,428.05601188367604,400.6270071451068,428.05601188367604,401.3340071451068z"></path></a></g><g id="minder_node77"><g id="node_expander75" style="cursor: pointer;"><path id="kity_path_884" fill="white" stroke="gray" d="M292.50000981241465,402.5000072196126A6,6,0,1,1,280.50000981241465,402.5000072196126A6,6,0,1,1,292.50000981241465,402.5000072196126"></path><path id="kity_path_885" fill="none" stroke="gray" d="M282.00000981241465,402.5000072196126L291.00000981241465,402.5000072196126"></path></g><path id="node_outline76" fill="none" stroke="none" d="M297.5000099763274,393.5000072196126h25a5,5,0,0,1,5,5v8a5,5,0,0,1,-5,5h-25a5,5,0,0,1,-5,-5v-8a5,5,0,0,1,5,-5z" stroke-width="3"></path><g id="node_text76" fill="black"><text id="kity_text_688" text-rendering="inherit" font-size="12" dy=".8em" y="394.7000071927905" x="297.5000099763274">椭圆</text></g></g><g id="minder_node80"><g id="node_expander76" style="cursor: pointer;" display="none"><path id="kity_path_887" fill="white" stroke="gray" d="M368.5000109449029,438.5000077560544A6,6,0,1,1,356.5000109449029,438.5000077560544A6,6,0,1,1,368.5000109449029,438.5000077560544"></path><path id="kity_path_888" fill="none" stroke="gray"></path></g><path id="node_outline77" fill="none" stroke="none" d="M373.50001110881567,424.5000077560544h98a5,5,0,0,1,5,5v18a5,5,0,0,1,-5,5h-98a5,5,0,0,1,-5,-5v-18a5,5,0,0,1,5,-5z" stroke-width="3"></path><g id="node_text77" fill="black"><text id="kity_text_690" text-rendering="inherit" font-size="12" dy=".8em" y="430.7000077292323" x="373.50001110881567">SplineCurve</text></g><a id="kity_a_769" xlink:href="http://www.yanhuangxueyuan.com/threejs/docs/index.html#api/zh/extras/curves/SplineCurve" target="_blank" xlink:title="http://www.yanhuangxueyuan.com/threejs/docs/index.html#api/zh/extras/curves/SplineCurve" style="cursor: pointer;"><path id="kity_path_771" fill="rgba(255, 255, 255, 0)" stroke="none" d="M451.5000122413039,427.5000076815486h16a4,4,0,0,1,4,4v14a4,4,0,0,1,-4,4h-16a4,4,0,0,1,-4,-4v-14a4,4,0,0,1,4,-4z"></path><path id="kity_path_770" fill="#666" stroke="none" d="M466.1140122413039,443.7240076815486h-1.278c-1.668,0,-3.07,-1.07,-3.599,-2.556h4.877c0.707,0,1.278,-0.571,1.278,-1.278V437.3340076815486c0,-0.707,-0.571,-1.278,-1.278,-1.278h-4.877C461.76601224130394,434.5710076815486,463.1680122413039,433.5000076815486,464.83601224130393,433.5000076815486h1.278c2.116,0,3.834,1.716,3.834,3.834V439.8900076815486C469.9480122413039,442.0080076815486,468.23001224130394,443.7240076815486,466.1140122413039,443.7240076815486zM454.61201224130394,438.6120076815486c0,-0.707,0.573,-1.278,1.278,-1.278h7.668c0.707,0,1.278,0.571,1.278,1.278S464.2650122413039,439.8900076815486,463.5580122413039,439.8900076815486H455.8900122413039C455.1850122413039,439.8900076815486,454.61201224130394,439.3190076815486,454.61201224130394,438.6120076815486zM452.0560122413039,437.3340076815486V439.8900076815486c0,0.707,0.573,1.278,1.278,1.278h4.877c-0.528,1.486,-1.932,2.556,-3.599,2.556H453.3340122413039C451.21601224130393,443.7240076815486,449.5000122413039,442.0080076815486,449.5000122413039,439.8900076815486V437.3340076815486C449.5000122413039,435.2160076815486,451.21601224130393,433.5000076815486,453.3340122413039,433.5000076815486h1.278c1.667,0,3.071,1.071,3.599,2.556H453.3340122413039C452.62901224130394,436.0560076815486,452.0560122413039,436.6270076815486,452.0560122413039,437.3340076815486z"></path></a></g><g id="minder_node79"><g id="node_expander77" style="cursor: pointer;"><path id="kity_path_890" fill="white" stroke="gray" d="M292.50000981241465,438.5000077560544A6,6,0,1,1,280.50000981241465,438.5000077560544A6,6,0,1,1,292.50000981241465,438.5000077560544"></path><path id="kity_path_891" fill="none" stroke="gray" d="M282.00000981241465,438.5000077560544L291.00000981241465,438.5000077560544"></path></g><path id="node_outline78" fill="none" stroke="none" d="M297.5000099763274,429.5000077560544h50a5,5,0,0,1,5,5v8a5,5,0,0,1,-5,5h-50a5,5,0,0,1,-5,-5v-8a5,5,0,0,1,5,-5z" stroke-width="3"></path><g id="node_text78" fill="black"><text id="kity_text_692" text-rendering="inherit" font-size="12" dy=".8em" y="430.7000077292323" x="297.5000099763274">样条曲线</text></g></g><g id="minder_node83"><g id="node_expander78" style="cursor: pointer;" display="none"><path id="kity_path_893" fill="white" stroke="gray" d="M454.50001222640276,474.5000082924962A6,6,0,1,1,442.50001222640276,474.5000082924962A6,6,0,1,1,454.50001222640276,474.5000082924962"></path><path id="kity_path_894" fill="none" stroke="gray"></path></g><path id="node_outline79" fill="none" stroke="none" d="M459.50001239031553,460.5000082924962h154a5,5,0,0,1,5,5v18a5,5,0,0,1,-5,5h-154a5,5,0,0,1,-5,-5v-18a5,5,0,0,1,5,-5z" stroke-width="3"></path><g id="node_text79" fill="black"><text id="kity_text_694" text-rendering="inherit" font-size="12" dy=".8em" y="466.7000082656741" x="459.50001239031553">QuadraticBezierCurve</text></g><a id="kity_a_772" xlink:href="http://www.yanhuangxueyuan.com/threejs/docs/index.html#api/zh/extras/curves/QuadraticBezierCurve" target="_blank" xlink:title="http://www.yanhuangxueyuan.com/threejs/docs/index.html#api/zh/extras/curves/QuadraticBezierCurve" style="cursor: pointer;"><path id="kity_path_774" fill="rgba(255, 255, 255, 0)" stroke="none" d="M593.5000143572688,463.5000082179904h16a4,4,0,0,1,4,4v14a4,4,0,0,1,-4,4h-16a4,4,0,0,1,-4,-4v-14a4,4,0,0,1,4,-4z"></path><path id="kity_path_773" fill="#666" stroke="none" d="M608.1140143572688,479.7240082179904h-1.278c-1.668,0,-3.07,-1.07,-3.599,-2.556h4.877c0.707,0,1.278,-0.571,1.278,-1.278V473.3340082179904c0,-0.707,-0.571,-1.278,-1.278,-1.278h-4.877C603.7660143572688,470.5710082179904,605.1680143572688,469.5000082179904,606.8360143572688,469.5000082179904h1.278c2.116,0,3.834,1.716,3.834,3.834V475.8900082179904C611.9480143572688,478.0080082179904,610.2300143572688,479.7240082179904,608.1140143572688,479.7240082179904zM596.6120143572688,474.6120082179904c0,-0.707,0.573,-1.278,1.278,-1.278h7.668c0.707,0,1.278,0.571,1.278,1.278S606.2650143572688,475.8900082179904,605.5580143572688,475.8900082179904H597.8900143572688C597.1850143572688,475.8900082179904,596.6120143572688,475.3190082179904,596.6120143572688,474.6120082179904zM594.0560143572689,473.3340082179904V475.8900082179904c0,0.707,0.573,1.278,1.278,1.278h4.877c-0.528,1.486,-1.932,2.556,-3.599,2.556H595.3340143572688C593.2160143572688,479.7240082179904,591.5000143572688,478.0080082179904,591.5000143572688,475.8900082179904V473.3340082179904C591.5000143572688,471.2160082179904,593.2160143572688,469.5000082179904,595.3340143572688,469.5000082179904h1.278c1.667,0,3.071,1.071,3.599,2.556H595.3340143572688C594.6290143572688,472.0560082179904,594.0560143572689,472.6270082179904,594.0560143572689,473.3340082179904z"></path></a></g><g id="minder_node82"><g id="node_expander79" style="cursor: pointer;"><path id="kity_path_896" fill="white" stroke="gray" d="M403.50001146644354,474.5000082924962A6,6,0,1,1,391.50001146644354,474.5000082924962A6,6,0,1,1,403.50001146644354,474.5000082924962"></path><path id="kity_path_897" fill="none" stroke="gray" d="M393.00001146644354,474.5000082924962L402.00001146644354,474.5000082924962"></path></g><path id="node_outline80" fill="none" stroke="none" d="M408.5000116303563,465.5000082924962h25a5,5,0,0,1,5,5v8a5,5,0,0,1,-5,5h-25a5,5,0,0,1,-5,-5v-8a5,5,0,0,1,5,-5z" stroke-width="3"></path><g id="node_text80" fill="black"><text id="kity_text_696" text-rendering="inherit" font-size="12" dy=".8em" y="466.7000082656741" x="408.5000116303563">二次</text></g></g><g id="minder_node85"><g id="node_expander80" style="cursor: pointer;" display="none"><path id="kity_path_899" fill="white" stroke="gray" d="M454.50001222640276,510.500008828938A6,6,0,1,1,442.50001222640276,510.500008828938A6,6,0,1,1,454.50001222640276,510.500008828938"></path><path id="kity_path_900" fill="none" stroke="gray"></path></g><path id="node_outline81" fill="none" stroke="none" d="M459.50001239031553,496.500008828938h130a5,5,0,0,1,5,5v18a5,5,0,0,1,-5,5h-130a5,5,0,0,1,-5,-5v-18a5,5,0,0,1,5,-5z" stroke-width="3"></path><g id="node_text81" fill="black"><text id="kity_text_698" text-rendering="inherit" font-size="12" dy=".8em" y="502.7000088021159" x="459.50001239031553">CubicBezierCurve</text></g><a id="kity_a_775" xlink:href="http://www.yanhuangxueyuan.com/threejs/docs/index.html#api/zh/extras/curves/CubicBezierCurve" target="_blank" xlink:title="http://www.yanhuangxueyuan.com/threejs/docs/index.html#api/zh/extras/curves/CubicBezierCurve" style="cursor: pointer;"><path id="kity_path_777" fill="rgba(255, 255, 255, 0)" stroke="none" d="M569.5000139996409,499.5000087544322h16a4,4,0,0,1,4,4v14a4,4,0,0,1,-4,4h-16a4,4,0,0,1,-4,-4v-14a4,4,0,0,1,4,-4z"></path><path id="kity_path_776" fill="#666" stroke="none" d="M584.114013999641,515.7240087544322h-1.278c-1.668,0,-3.07,-1.07,-3.599,-2.556h4.877c0.707,0,1.278,-0.571,1.278,-1.278V509.3340087544322c0,-0.707,-0.571,-1.278,-1.278,-1.278h-4.877C579.7660139996409,506.5710087544322,581.168013999641,505.5000087544322,582.836013999641,505.5000087544322h1.278c2.116,0,3.834,1.716,3.834,3.834V511.8900087544322C587.9480139996409,514.0080087544322,586.230013999641,515.7240087544322,584.114013999641,515.7240087544322zM572.6120139996409,510.6120087544322c0,-0.707,0.573,-1.278,1.278,-1.278h7.668c0.707,0,1.278,0.571,1.278,1.278S582.2650139996409,511.8900087544322,581.5580139996409,511.8900087544322H573.8900139996409C573.1850139996409,511.8900087544322,572.6120139996409,511.3190087544322,572.6120139996409,510.6120087544322zM570.056013999641,509.3340087544322V511.8900087544322c0,0.707,0.573,1.278,1.278,1.278h4.877c-0.528,1.486,-1.932,2.556,-3.599,2.556H571.3340139996409C569.216013999641,515.7240087544322,567.5000139996409,514.0080087544322,567.5000139996409,511.8900087544322V509.3340087544322C567.5000139996409,507.2160087544322,569.216013999641,505.5000087544322,571.3340139996409,505.5000087544322h1.278c1.667,0,3.071,1.071,3.599,2.556H571.3340139996409C570.629013999641,508.0560087544322,570.056013999641,508.6270087544322,570.056013999641,509.3340087544322z"></path></a></g><g id="minder_node84"><g id="node_expander81" style="cursor: pointer;"><path id="kity_path_902" fill="white" stroke="gray" d="M403.50001146644354,510.500008828938A6,6,0,1,1,391.50001146644354,510.500008828938A6,6,0,1,1,403.50001146644354,510.500008828938"></path><path id="kity_path_903" fill="none" stroke="gray" d="M393.00001146644354,510.500008828938L402.00001146644354,510.500008828938"></path></g><path id="node_outline82" fill="none" stroke="none" d="M408.5000116303563,501.500008828938h25a5,5,0,0,1,5,5v8a5,5,0,0,1,-5,5h-25a5,5,0,0,1,-5,-5v-8a5,5,0,0,1,5,-5z" stroke-width="3"></path><g id="node_text82" fill="black"><text id="kity_text_700" text-rendering="inherit" font-size="12" dy=".8em" y="502.7000088021159" x="408.5000116303563">三次</text></g></g><g id="minder_node81"><g id="node_expander82" style="cursor: pointer;"><path id="kity_path_905" fill="white" stroke="gray" d="M292.50000981241465,492.5000085607171A6,6,0,1,1,280.50000981241465,492.5000085607171A6,6,0,1,1,292.50000981241465,492.5000085607171"></path><path id="kity_path_906" fill="none" stroke="gray" d="M282.00000981241465,492.5000085607171L291.00000981241465,492.5000085607171"></path></g><path id="node_outline83" fill="none" stroke="none" d="M297.5000099763274,483.5000085607171h85a5,5,0,0,1,5,5v8a5,5,0,0,1,-5,5h-85a5,5,0,0,1,-5,-5v-8a5,5,0,0,1,5,-5z" stroke-width="3"></path><g id="node_text83" fill="black"><text id="kity_text_702" text-rendering="inherit" font-size="12" dy=".8em" y="484.700008533895" x="297.5000099763274">二维贝塞尔曲线</text></g></g><g id="minder_node72"><g id="node_expander83" style="cursor: pointer;"><path id="kity_path_908" fill="white" stroke="gray" d="M250.50000918656588,411.50000735372305A6,6,0,1,1,238.50000918656588,411.50000735372305A6,6,0,1,1,250.50000918656588,411.50000735372305"></path><path id="kity_path_909" fill="none" stroke="gray" d="M240.00000918656588,411.50000735372305L249.00000918656588,411.50000735372305"></path></g><path id="node_outline84" fill="none" stroke="none" d="M255.50000935047865,402.50000735372305h16a5,5,0,0,1,5,5v8a5,5,0,0,1,-5,5h-16a5,5,0,0,1,-5,-5v-8a5,5,0,0,1,5,-5z" stroke-width="3"></path><g id="node_text84" fill="black"><text id="kity_text_704" text-rendering="inherit" font-size="12" dy=".8em" y="403.70000732690096" x="255.50000935047865">2D</text></g></g><g id="minder_node88"><g id="node_expander84" style="cursor: pointer;" display="none"><path id="kity_path_911" fill="white" stroke="gray" d="M344.500010587275,546.5000093653798A6,6,0,1,1,332.500010587275,546.5000093653798A6,6,0,1,1,344.500010587275,546.5000093653798"></path><path id="kity_path_912" fill="none" stroke="gray"></path></g><path id="node_outline85" fill="none" stroke="none" d="M349.5000107511878,532.5000093653798h93a5,5,0,0,1,5,5v18a5,5,0,0,1,-5,5h-93a5,5,0,0,1,-5,-5v-18a5,5,0,0,1,5,-5z" stroke-width="3"></path><g id="node_text85" fill="black"><text id="kity_text_706" text-rendering="inherit" font-size="12" dy=".8em" y="538.7000093385577" x="349.5000107511878">LineCurve3</text></g><a id="kity_a_980" xlink:href="http://www.yanhuangxueyuan.com/threejs/docs/index.html#api/zh/extras/curves/LineCurve3" target="_blank" xlink:title="http://www.yanhuangxueyuan.com/threejs/docs/index.html#api/zh/extras/curves/LineCurve3" style="cursor: pointer;"><path id="kity_path_982" fill="rgba(255, 255, 255, 0)" stroke="none" d="M422.50001180917025,535.500009290874h16a4,4,0,0,1,4,4v14a4,4,0,0,1,-4,4h-16a4,4,0,0,1,-4,-4v-14a4,4,0,0,1,4,-4z"></path><path id="kity_path_981" fill="#666" stroke="none" d="M437.1140118091702,551.724009290874h-1.278c-1.668,0,-3.07,-1.07,-3.599,-2.556h4.877c0.707,0,1.278,-0.571,1.278,-1.278V545.334009290874c0,-0.707,-0.571,-1.278,-1.278,-1.278h-4.877C432.76601180917027,542.571009290874,434.16801180917025,541.500009290874,435.83601180917026,541.500009290874h1.278c2.116,0,3.834,1.716,3.834,3.834V547.890009290874C440.9480118091702,550.008009290874,439.23001180917026,551.724009290874,437.1140118091702,551.724009290874zM425.61201180917027,546.612009290874c0,-0.707,0.573,-1.278,1.278,-1.278h7.668c0.707,0,1.278,0.571,1.278,1.278S435.26501180917023,547.890009290874,434.55801180917024,547.890009290874H426.89001180917023C426.18501180917025,547.890009290874,425.61201180917027,547.319009290874,425.61201180917027,546.612009290874zM423.05601180917023,545.334009290874V547.890009290874c0,0.707,0.573,1.278,1.278,1.278h4.877c-0.528,1.486,-1.932,2.556,-3.599,2.556H424.33401180917025C422.21601180917025,551.724009290874,420.50001180917025,550.008009290874,420.50001180917025,547.890009290874V545.334009290874C420.50001180917025,543.216009290874,422.21601180917025,541.500009290874,424.33401180917025,541.500009290874h1.278c1.667,0,3.071,1.071,3.599,2.556H424.33401180917025C423.62901180917027,544.056009290874,423.05601180917023,544.627009290874,423.05601180917023,545.334009290874z"></path></a></g><g id="minder_node87"><g id="node_expander85" style="cursor: pointer;"><path id="kity_path_914" fill="white" stroke="gray" d="M292.50000981241465,546.5000093653798A6,6,0,1,1,280.50000981241465,546.5000093653798A6,6,0,1,1,292.50000981241465,546.5000093653798"></path><path id="kity_path_915" fill="none" stroke="gray" d="M282.00000981241465,546.5000093653798L291.00000981241465,546.5000093653798"></path></g><path id="node_outline86" fill="none" stroke="none" d="M297.5000099763274,537.5000093653798h26a5,5,0,0,1,5,5v8a5,5,0,0,1,-5,5h-26a5,5,0,0,1,-5,-5v-8a5,5,0,0,1,5,-5z" stroke-width="3"></path><g id="node_text86" fill="black"><text id="kity_text_708" text-rendering="inherit" font-size="12" dy=".8em" y="538.7000093385577" x="297.5000099763274">直线</text></g></g><g id="minder_node90"><g id="node_expander86" style="cursor: pointer;" display="none"><path id="kity_path_917" fill="white" stroke="gray" d="M391.5000112876296,582.5000099018216A6,6,0,1,1,379.5000112876296,582.5000099018216A6,6,0,1,1,391.5000112876296,582.5000099018216"></path><path id="kity_path_918" fill="none" stroke="gray"></path></g><path id="node_outline87" fill="none" stroke="none" d="M396.5000114515424,568.5000099018216h140a5,5,0,0,1,5,5v18a5,5,0,0,1,-5,5h-140a5,5,0,0,1,-5,-5v-18a5,5,0,0,1,5,-5z" stroke-width="3"></path><g id="node_text87" fill="black"><text id="kity_text_710" text-rendering="inherit" font-size="12" dy=".8em" y="574.7000098749995" x="396.5000114515424">CatmullRomCurve3</text></g><a id="kity_a_778" xlink:href="http://www.yanhuangxueyuan.com/threejs/docs/index.html#api/zh/extras/curves/CatmullRomCurve3" target="_blank" xlink:title="http://www.yanhuangxueyuan.com/threejs/docs/index.html#api/zh/extras/curves/CatmullRomCurve3" style="cursor: pointer;"><path id="kity_path_780" fill="rgba(255, 255, 255, 0)" stroke="none" d="M516.5000132098794,571.5000098273158h16a4,4,0,0,1,4,4v14a4,4,0,0,1,-4,4h-16a4,4,0,0,1,-4,-4v-14a4,4,0,0,1,4,-4z"></path><path id="kity_path_779" fill="#666" stroke="none" d="M531.1140132098794,587.7240098273159h-1.278c-1.668,0,-3.07,-1.07,-3.599,-2.556h4.877c0.707,0,1.278,-0.571,1.278,-1.278V581.3340098273158c0,-0.707,-0.571,-1.278,-1.278,-1.278h-4.877C526.7660132098794,578.5710098273158,528.1680132098794,577.5000098273158,529.8360132098794,577.5000098273158h1.278c2.116,0,3.834,1.716,3.834,3.834V583.8900098273158C534.9480132098794,586.0080098273158,533.2300132098794,587.7240098273159,531.1140132098794,587.7240098273159zM519.6120132098794,582.6120098273158c0,-0.707,0.573,-1.278,1.278,-1.278h7.668c0.707,0,1.278,0.571,1.278,1.278S529.2650132098794,583.8900098273158,528.5580132098794,583.8900098273158H520.8900132098794C520.1850132098793,583.8900098273158,519.6120132098794,583.3190098273158,519.6120132098794,582.6120098273158zM517.0560132098794,581.3340098273158V583.8900098273158c0,0.707,0.573,1.278,1.278,1.278h4.877c-0.528,1.486,-1.932,2.556,-3.599,2.556H518.3340132098793C516.2160132098794,587.7240098273159,514.5000132098794,586.0080098273158,514.5000132098794,583.8900098273158V581.3340098273158C514.5000132098794,579.2160098273158,516.2160132098794,577.5000098273158,518.3340132098793,577.5000098273158h1.278c1.667,0,3.071,1.071,3.599,2.556H518.3340132098793C517.6290132098794,580.0560098273158,517.0560132098794,580.6270098273158,517.0560132098794,581.3340098273158z"></path></a></g><g id="minder_node89"><g id="node_expander87" style="cursor: pointer;"><path id="kity_path_920" fill="white" stroke="gray" d="M292.50000981241465,582.5000099018216A6,6,0,1,1,280.50000981241465,582.5000099018216A6,6,0,1,1,292.50000981241465,582.5000099018216"></path><path id="kity_path_921" fill="none" stroke="gray" d="M282.00000981241465,582.5000099018216L291.00000981241465,582.5000099018216"></path></g><path id="node_outline88" fill="none" stroke="none" d="M297.5000099763274,573.5000099018216h73a5,5,0,0,1,5,5v8a5,5,0,0,1,-5,5h-73a5,5,0,0,1,-5,-5v-8a5,5,0,0,1,5,-5z" stroke-width="3"></path><g id="node_text88" fill="black"><text id="kity_text_712" text-rendering="inherit" font-size="12" dy=".8em" y="574.7000098749995" x="297.5000099763274"> 三维样条曲线</text></g></g><g id="minder_node93"><g id="node_expander88" style="cursor: pointer;" display="none"><path id="kity_path_923" fill="white" stroke="gray" d="M454.50001222640276,618.5000104382634A6,6,0,1,1,442.50001222640276,618.5000104382634A6,6,0,1,1,454.50001222640276,618.5000104382634"></path><path id="kity_path_924" fill="none" stroke="gray"></path></g><path id="node_outline89" fill="none" stroke="none" d="M459.50001239031553,604.5000104382634h136a5,5,0,0,1,5,5v18a5,5,0,0,1,-5,5h-136a5,5,0,0,1,-5,-5v-18a5,5,0,0,1,5,-5z" stroke-width="3"></path><g id="node_text89" fill="black"><text id="kity_text_714" text-rendering="inherit" font-size="12" dy=".8em" y="610.7000104114413" x="459.50001239031553">CubicBezierCurve3</text></g><a id="kity_a_781" xlink:href="http://www.yanhuangxueyuan.com/threejs/docs/index.html#api/zh/extras/curves/CubicBezierCurve3" target="_blank" xlink:title="http://www.yanhuangxueyuan.com/threejs/docs/index.html#api/zh/extras/curves/CubicBezierCurve3" style="cursor: pointer;"><path id="kity_path_783" fill="rgba(255, 255, 255, 0)" stroke="none" d="M575.5000140890479,607.5000103637576h16a4,4,0,0,1,4,4v14a4,4,0,0,1,-4,4h-16a4,4,0,0,1,-4,-4v-14a4,4,0,0,1,4,-4z"></path><path id="kity_path_782" fill="#666" stroke="none" d="M590.1140140890479,623.7240103637577h-1.278c-1.668,0,-3.07,-1.07,-3.599,-2.556h4.877c0.707,0,1.278,-0.571,1.278,-1.278V617.3340103637576c0,-0.707,-0.571,-1.278,-1.278,-1.278h-4.877C585.7660140890479,614.5710103637576,587.1680140890479,613.5000103637576,588.8360140890479,613.5000103637576h1.278c2.116,0,3.834,1.716,3.834,3.834V619.8900103637576C593.9480140890479,622.0080103637576,592.2300140890479,623.7240103637577,590.1140140890479,623.7240103637577zM578.6120140890479,618.6120103637576c0,-0.707,0.573,-1.278,1.278,-1.278h7.668c0.707,0,1.278,0.571,1.278,1.278S588.2650140890479,619.8900103637576,587.5580140890479,619.8900103637576H579.8900140890479C579.1850140890479,619.8900103637576,578.6120140890479,619.3190103637576,578.6120140890479,618.6120103637576zM576.056014089048,617.3340103637576V619.8900103637576c0,0.707,0.573,1.278,1.278,1.278h4.877c-0.528,1.486,-1.932,2.556,-3.599,2.556H577.3340140890479C575.2160140890479,623.7240103637577,573.5000140890479,622.0080103637576,573.5000140890479,619.8900103637576V617.3340103637576C573.5000140890479,615.2160103637576,575.2160140890479,613.5000103637576,577.3340140890479,613.5000103637576h1.278c1.667,0,3.071,1.071,3.599,2.556H577.3340140890479C576.6290140890479,616.0560103637577,576.056014089048,616.6270103637576,576.056014089048,617.3340103637576z"></path></a></g><g id="minder_node92"><g id="node_expander89" style="cursor: pointer;"><path id="kity_path_926" fill="white" stroke="gray" d="M403.50001146644354,618.5000104382634A6,6,0,1,1,391.50001146644354,618.5000104382634A6,6,0,1,1,403.50001146644354,618.5000104382634"></path><path id="kity_path_927" fill="none" stroke="gray" d="M393.00001146644354,618.5000104382634L402.00001146644354,618.5000104382634"></path></g><path id="node_outline90" fill="none" stroke="none" d="M408.5000116303563,609.5000104382634h25a5,5,0,0,1,5,5v8a5,5,0,0,1,-5,5h-25a5,5,0,0,1,-5,-5v-8a5,5,0,0,1,5,-5z" stroke-width="3"></path><g id="node_text90" fill="black"><text id="kity_text_716" text-rendering="inherit" font-size="12" dy=".8em" y="610.7000104114413" x="408.5000116303563">三次</text></g></g><g id="minder_node95"><g id="node_expander90" style="cursor: pointer;" display="none"><path id="kity_path_929" fill="white" stroke="gray" d="M454.50001222640276,654.5000109747052A6,6,0,1,1,442.50001222640276,654.5000109747052A6,6,0,1,1,454.50001222640276,654.5000109747052"></path><path id="kity_path_930" fill="none" stroke="gray"></path></g><path id="node_outline91" fill="none" stroke="none" d="M459.50001239031553,640.5000109747052h160a5,5,0,0,1,5,5v18a5,5,0,0,1,-5,5h-160a5,5,0,0,1,-5,-5v-18a5,5,0,0,1,5,-5z" stroke-width="3"></path><g id="node_text91" fill="black"><text id="kity_text_718" text-rendering="inherit" font-size="12" dy=".8em" y="646.7000109478831" x="459.50001239031553">QuadraticBezierCurve3</text></g><a id="kity_a_784" xlink:href="http://www.yanhuangxueyuan.com/threejs/docs/index.html#api/zh/extras/curves/QuadraticBezierCurve3" target="_blank" xlink:title="http://www.yanhuangxueyuan.com/threejs/docs/index.html#api/zh/extras/curves/QuadraticBezierCurve3" style="cursor: pointer;"><path id="kity_path_786" fill="rgba(255, 255, 255, 0)" stroke="none" d="M599.5000144466758,643.5000109001994h16a4,4,0,0,1,4,4v14a4,4,0,0,1,-4,4h-16a4,4,0,0,1,-4,-4v-14a4,4,0,0,1,4,-4z"></path><path id="kity_path_785" fill="#666" stroke="none" d="M614.1140144466758,659.7240109001995h-1.278c-1.668,0,-3.07,-1.07,-3.599,-2.556h4.877c0.707,0,1.278,-0.571,1.278,-1.278V653.3340109001994c0,-0.707,-0.571,-1.278,-1.278,-1.278h-4.877C609.7660144466757,650.5710109001994,611.1680144466758,649.5000109001994,612.8360144466758,649.5000109001994h1.278c2.116,0,3.834,1.716,3.834,3.834V655.8900109001994C617.9480144466758,658.0080109001995,616.2300144466758,659.7240109001995,614.1140144466758,659.7240109001995zM602.6120144466757,654.6120109001994c0,-0.707,0.573,-1.278,1.278,-1.278h7.668c0.707,0,1.278,0.571,1.278,1.278S612.2650144466758,655.8900109001994,611.5580144466758,655.8900109001994H603.8900144466758C603.1850144466757,655.8900109001994,602.6120144466757,655.3190109001994,602.6120144466757,654.6120109001994zM600.0560144466758,653.3340109001994V655.8900109001994c0,0.707,0.573,1.278,1.278,1.278h4.877c-0.528,1.486,-1.932,2.556,-3.599,2.556H601.3340144466757C599.2160144466758,659.7240109001995,597.5000144466758,658.0080109001995,597.5000144466758,655.8900109001994V653.3340109001994C597.5000144466758,651.2160109001994,599.2160144466758,649.5000109001994,601.3340144466757,649.5000109001994h1.278c1.667,0,3.071,1.071,3.599,2.556H601.3340144466757C600.6290144466758,652.0560109001995,600.0560144466758,652.6270109001994,600.0560144466758,653.3340109001994z"></path></a></g><g id="minder_node94"><g id="node_expander91" style="cursor: pointer;"><path id="kity_path_932" fill="white" stroke="gray" d="M403.50001146644354,654.5000109747052A6,6,0,1,1,391.50001146644354,654.5000109747052A6,6,0,1,1,403.50001146644354,654.5000109747052"></path><path id="kity_path_933" fill="none" stroke="gray" d="M393.00001146644354,654.5000109747052L402.00001146644354,654.5000109747052"></path></g><path id="node_outline92" fill="none" stroke="none" d="M408.5000116303563,645.5000109747052h25a5,5,0,0,1,5,5v8a5,5,0,0,1,-5,5h-25a5,5,0,0,1,-5,-5v-8a5,5,0,0,1,5,-5z" stroke-width="3"></path><g id="node_text92" fill="black"><text id="kity_text_720" text-rendering="inherit" font-size="12" dy=".8em" y="646.7000109478831" x="408.5000116303563">二次</text></g></g><g id="minder_node91"><g id="node_expander92" style="cursor: pointer;"><path id="kity_path_935" fill="white" stroke="gray" d="M292.50000981241465,636.5000107064843A6,6,0,1,1,280.50000981241465,636.5000107064843A6,6,0,1,1,292.50000981241465,636.5000107064843"></path><path id="kity_path_936" fill="none" stroke="gray" d="M282.00000981241465,636.5000107064843L291.00000981241465,636.5000107064843"></path></g><path id="node_outline93" fill="none" stroke="none" d="M297.5000099763274,627.5000107064843h85a5,5,0,0,1,5,5v8a5,5,0,0,1,-5,5h-85a5,5,0,0,1,-5,-5v-8a5,5,0,0,1,5,-5z" stroke-width="3"></path><g id="node_text93" fill="black"><text id="kity_text_722" text-rendering="inherit" font-size="12" dy=".8em" y="628.7000106796622" x="297.5000099763274">三维贝塞尔曲线</text></g></g><g id="minder_node86"><g id="node_expander93" style="cursor: pointer;"><path id="kity_path_938" fill="white" stroke="gray" d="M250.50000918656588,591.5000100359321A6,6,0,1,1,238.50000918656588,591.5000100359321A6,6,0,1,1,250.50000918656588,591.5000100359321"></path><path id="kity_path_939" fill="none" stroke="gray" d="M240.00000918656588,591.5000100359321L249.00000918656588,591.5000100359321"></path></g><path id="node_outline94" fill="none" stroke="none" d="M255.50000935047865,582.5000100359321h16a5,5,0,0,1,5,5v8a5,5,0,0,1,-5,5h-16a5,5,0,0,1,-5,-5v-8a5,5,0,0,1,5,-5z" stroke-width="3"></path><g id="node_text94" fill="black"><text id="kity_text_724" text-rendering="inherit" font-size="12" dy=".8em" y="583.70001000911" x="255.50000935047865">3D</text></g></g></g></g></svg>